%FSLAX45Y45*%
G04 Gerber Fmt 4.5, Leading zero omitted, Abs format (unit mm)*
G04 Created by KiCad (PCBNEW (5.1.9)-1) date 2021-12-01 20:16:34*
%MOMM*%
%LPD*%
G01*
G04 APERTURE LIST*
%TA.AperFunction,Profile*%
%ADD10C,0.200000*%
%TD*%
%ADD11C,0.200000*%
%ADD12C,0.300000*%
G04 APERTURE END LIST*
D10*
X1134788Y-8296316D02*
X-941705Y-5778500D01*
X-941705Y211503D02*
X-941705Y-5778500D01*
X20706080Y-5778500D02*
X18879797Y-8296316D01*
X-941705Y211503D02*
X-220634Y211503D01*
X-220634Y211503D02*
X496191Y211503D01*
X496191Y211503D02*
X1208908Y211503D01*
X1208908Y211503D02*
X1917653Y211503D01*
X1917653Y211503D02*
X2622564Y211503D01*
X2622564Y211503D02*
X3323777Y211503D01*
X3323777Y211503D02*
X4021429Y211503D01*
X4021429Y211503D02*
X4715658Y211503D01*
X4715658Y211503D02*
X5406600Y211503D01*
X5406600Y211503D02*
X6094392Y211503D01*
X6094392Y211503D02*
X6779171Y211503D01*
X6779171Y211503D02*
X7461074Y211503D01*
X7461074Y211503D02*
X8140239Y211503D01*
X8140239Y211503D02*
X8816801Y211503D01*
X8816801Y211503D02*
X9490898Y211503D01*
X9490898Y211503D02*
X10162667Y211503D01*
X10162667Y211503D02*
X10832244Y211503D01*
X10832244Y211503D02*
X11499767Y211503D01*
X11499767Y211503D02*
X12165373Y211503D01*
X12165373Y211503D02*
X12829199Y211503D01*
X12829199Y211503D02*
X13491381Y211503D01*
X13491381Y211503D02*
X14152056Y211503D01*
X14152056Y211503D02*
X14811362Y211503D01*
X14811362Y211503D02*
X15469436Y211503D01*
X15469436Y211503D02*
X16126413Y211503D01*
X16126413Y211503D02*
X16782432Y211503D01*
X16782432Y211503D02*
X17437629Y211503D01*
X17437629Y211503D02*
X18092141Y211503D01*
X18092141Y211503D02*
X18746106Y211503D01*
X18746106Y211503D02*
X19399659Y211503D01*
X19399659Y211503D02*
X20052938Y211503D01*
X20052938Y211503D02*
X20706080Y211503D01*
X1134788Y-8296316D02*
X1689321Y-8296316D01*
X1689321Y-8296316D02*
X2243855Y-8296316D01*
X2243855Y-8296316D02*
X2798389Y-8296316D01*
X2798389Y-8296316D02*
X3352922Y-8296316D01*
X3352922Y-8296316D02*
X3907456Y-8296316D01*
X3907456Y-8296316D02*
X4461989Y-8296316D01*
X4461989Y-8296316D02*
X5016522Y-8296316D01*
X5016522Y-8296316D02*
X5571055Y-8296316D01*
X5571055Y-8296316D02*
X6125587Y-8296316D01*
X6125587Y-8296316D02*
X6680120Y-8296316D01*
X6680120Y-8296316D02*
X7234652Y-8296316D01*
X7234652Y-8296316D02*
X7789184Y-8296316D01*
X7789184Y-8296316D02*
X8343717Y-8296316D01*
X8343717Y-8296316D02*
X8898249Y-8296316D01*
X8898249Y-8296316D02*
X9452780Y-8296316D01*
X9452780Y-8296316D02*
X10007312Y-8296316D01*
X10007312Y-8296316D02*
X10561843Y-8296316D01*
X10561843Y-8296316D02*
X11116375Y-8296316D01*
X11116375Y-8296316D02*
X11670906Y-8296316D01*
X11670906Y-8296316D02*
X12225437Y-8296316D01*
X12225437Y-8296316D02*
X12779968Y-8296316D01*
X12779968Y-8296316D02*
X13334498Y-8296316D01*
X13334498Y-8296316D02*
X13889029Y-8296316D01*
X13889029Y-8296316D02*
X14443559Y-8296316D01*
X14443559Y-8296316D02*
X14998090Y-8296316D01*
X14998090Y-8296316D02*
X15552620Y-8296316D01*
X15552620Y-8296316D02*
X16107150Y-8296316D01*
X16107150Y-8296316D02*
X16661679Y-8296316D01*
X16661679Y-8296316D02*
X17216209Y-8296316D01*
X17216209Y-8296316D02*
X17770739Y-8296316D01*
X17770739Y-8296316D02*
X18325268Y-8296316D01*
X18325268Y-8296316D02*
X18879797Y-8296316D01*
X20706080Y-5778500D02*
X20706080Y-5591315D01*
X20706080Y-5591315D02*
X20706080Y-5404129D01*
X20706080Y-5404129D02*
X20706080Y-5216944D01*
X20706080Y-5216944D02*
X20706080Y-5029758D01*
X20706080Y-5029758D02*
X20706080Y-4842572D01*
X20706080Y-4842572D02*
X20706080Y-4655386D01*
X20706080Y-4655386D02*
X20706080Y-4468200D01*
X20706080Y-4468200D02*
X20706080Y-4281014D01*
X20706080Y-4281014D02*
X20706080Y-4093827D01*
X20706080Y-4093827D02*
X20706080Y-3906641D01*
X20706080Y-3906641D02*
X20706080Y-3719454D01*
X20706080Y-3719454D02*
X20706080Y-3532267D01*
X20706080Y-3532267D02*
X20706080Y-3345080D01*
X20706080Y-3345080D02*
X20706080Y-3157893D01*
X20706080Y-3157893D02*
X20706080Y-2970706D01*
X20706080Y-2970706D02*
X20706080Y-2783518D01*
X20706080Y-2783518D02*
X20706080Y-2596331D01*
X20706080Y-2596331D02*
X20706080Y-2409143D01*
X20706080Y-2409143D02*
X20706080Y-2221955D01*
X20706080Y-2221955D02*
X20706080Y-2034766D01*
X20706080Y-2034766D02*
X20706080Y-1847578D01*
X20706080Y-1847578D02*
X20706080Y-1660390D01*
X20706080Y-1660390D02*
X20706080Y-1473201D01*
X20706080Y-1473201D02*
X20706080Y-1286012D01*
X20706080Y-1286012D02*
X20706080Y-1098824D01*
X20706080Y-1098824D02*
X20706080Y-911634D01*
X20706080Y-911634D02*
X20706080Y-724445D01*
X20706080Y-724445D02*
X20706080Y-537256D01*
X20706080Y-537256D02*
X20706080Y-350066D01*
X20706080Y-350066D02*
X20706080Y-162877D01*
X20706080Y-162877D02*
X20706080Y24313D01*
X20706080Y24313D02*
X20706080Y211503D01*
D11*
X17282480Y-350840D02*
X17322480Y-390840D01*
X17322480Y-350840D02*
X17282480Y-390840D01*
X17480600Y-350840D02*
X17520600Y-390840D01*
X17520600Y-350840D02*
X17480600Y-390840D01*
X181610Y-104140D02*
G75*
G03*
X181610Y-104140I-54610J0D01*
G01*
X429610Y-104140D02*
G75*
G03*
X429610Y-104140I-54610J0D01*
G01*
X7865110Y45720D02*
G75*
G03*
X7865110Y45720I-54610J0D01*
G01*
X7865110Y-208280D02*
G75*
G03*
X7865110Y-208280I-54610J0D01*
G01*
X7865110Y-462280D02*
G75*
G03*
X7865110Y-462280I-54610J0D01*
G01*
X7865110Y-716280D02*
G75*
G03*
X7865110Y-716280I-54610J0D01*
G01*
X7865110Y-970280D02*
G75*
G03*
X7865110Y-970280I-54610J0D01*
G01*
X7865110Y-1224280D02*
G75*
G03*
X7865110Y-1224280I-54610J0D01*
G01*
X7865110Y-1478280D02*
G75*
G03*
X7865110Y-1478280I-54610J0D01*
G01*
X7865110Y-1732280D02*
G75*
G03*
X7865110Y-1732280I-54610J0D01*
G01*
X7865110Y-1986280D02*
G75*
G03*
X7865110Y-1986280I-54610J0D01*
G01*
X7865110Y-2240280D02*
G75*
G03*
X7865110Y-2240280I-54610J0D01*
G01*
X7865110Y-2494280D02*
G75*
G03*
X7865110Y-2494280I-54610J0D01*
G01*
X7865110Y-2748280D02*
G75*
G03*
X7865110Y-2748280I-54610J0D01*
G01*
X9389110Y45720D02*
G75*
G03*
X9389110Y45720I-54610J0D01*
G01*
X9389110Y-208280D02*
G75*
G03*
X9389110Y-208280I-54610J0D01*
G01*
X9389110Y-462280D02*
G75*
G03*
X9389110Y-462280I-54610J0D01*
G01*
X9389110Y-716280D02*
G75*
G03*
X9389110Y-716280I-54610J0D01*
G01*
X9389110Y-970280D02*
G75*
G03*
X9389110Y-970280I-54610J0D01*
G01*
X9389110Y-1224280D02*
G75*
G03*
X9389110Y-1224280I-54610J0D01*
G01*
X9389110Y-1478280D02*
G75*
G03*
X9389110Y-1478280I-54610J0D01*
G01*
X9389110Y-1732280D02*
G75*
G03*
X9389110Y-1732280I-54610J0D01*
G01*
X9389110Y-1986280D02*
G75*
G03*
X9389110Y-1986280I-54610J0D01*
G01*
X9389110Y-2240280D02*
G75*
G03*
X9389110Y-2240280I-54610J0D01*
G01*
X9389110Y-2494280D02*
G75*
G03*
X9389110Y-2494280I-54610J0D01*
G01*
X9389110Y-2748280D02*
G75*
G03*
X9389110Y-2748280I-54610J0D01*
G01*
X17954610Y-2200000D02*
G75*
G03*
X17954610Y-2200000I-54610J0D01*
G01*
X17954610Y-2500000D02*
G75*
G03*
X17954610Y-2500000I-54610J0D01*
G01*
X17954610Y-2800000D02*
G75*
G03*
X17954610Y-2800000I-54610J0D01*
G01*
X571500Y-625000D02*
X571500Y-772000D01*
X498000Y-698500D02*
X645000Y-698500D01*
X571500Y-2530000D02*
X571500Y-2677000D01*
X498000Y-2603500D02*
X645000Y-2603500D01*
X1206500Y-371000D02*
X1206500Y-518000D01*
X1133000Y-444500D02*
X1280000Y-444500D01*
X1206500Y-2276000D02*
X1206500Y-2423000D01*
X1133000Y-2349500D02*
X1280000Y-2349500D01*
X1524000Y-4435000D02*
X1524000Y-4582000D01*
X1450500Y-4508500D02*
X1597500Y-4508500D01*
X2000250Y-6816250D02*
X2000250Y-6963250D01*
X1926750Y-6889750D02*
X2073750Y-6889750D01*
X2159000Y-4181000D02*
X2159000Y-4328000D01*
X2085500Y-4254500D02*
X2232500Y-4254500D01*
X2476500Y-625000D02*
X2476500Y-772000D01*
X2403000Y-698500D02*
X2550000Y-698500D01*
X2476500Y-2530000D02*
X2476500Y-2677000D01*
X2403000Y-2603500D02*
X2550000Y-2603500D01*
X2476500Y-6812440D02*
X2476500Y-6959440D01*
X2403000Y-6885940D02*
X2550000Y-6885940D01*
X2635250Y-6562250D02*
X2635250Y-6709250D01*
X2561750Y-6635750D02*
X2708750Y-6635750D01*
X3111500Y-371000D02*
X3111500Y-518000D01*
X3038000Y-444500D02*
X3185000Y-444500D01*
X3111500Y-2276000D02*
X3111500Y-2423000D01*
X3038000Y-2349500D02*
X3185000Y-2349500D01*
X3111500Y-6558440D02*
X3111500Y-6705440D01*
X3038000Y-6631940D02*
X3185000Y-6631940D01*
X3429000Y-4435000D02*
X3429000Y-4582000D01*
X3355500Y-4508500D02*
X3502500Y-4508500D01*
X4064000Y-4181000D02*
X4064000Y-4328000D01*
X3990500Y-4254500D02*
X4137500Y-4254500D01*
X4381500Y-625000D02*
X4381500Y-772000D01*
X4308000Y-698500D02*
X4455000Y-698500D01*
X4381500Y-2530000D02*
X4381500Y-2677000D01*
X4308000Y-2603500D02*
X4455000Y-2603500D01*
X5016500Y-371000D02*
X5016500Y-518000D01*
X4943000Y-444500D02*
X5090000Y-444500D01*
X5016500Y-2276000D02*
X5016500Y-2423000D01*
X4943000Y-2349500D02*
X5090000Y-2349500D01*
X5334000Y-4435000D02*
X5334000Y-4582000D01*
X5260500Y-4508500D02*
X5407500Y-4508500D01*
X5969000Y-4181000D02*
X5969000Y-4328000D01*
X5895500Y-4254500D02*
X6042500Y-4254500D01*
X6286500Y-625000D02*
X6286500Y-772000D01*
X6213000Y-698500D02*
X6360000Y-698500D01*
X6286500Y-2530000D02*
X6286500Y-2677000D01*
X6213000Y-2603500D02*
X6360000Y-2603500D01*
X6758940Y-6812440D02*
X6758940Y-6959440D01*
X6685440Y-6885940D02*
X6832440Y-6885940D01*
X6921500Y-371000D02*
X6921500Y-518000D01*
X6848000Y-444500D02*
X6995000Y-444500D01*
X6921500Y-2276000D02*
X6921500Y-2423000D01*
X6848000Y-2349500D02*
X6995000Y-2349500D01*
X7239000Y-4435000D02*
X7239000Y-4582000D01*
X7165500Y-4508500D02*
X7312500Y-4508500D01*
X7393940Y-6558440D02*
X7393940Y-6705440D01*
X7320440Y-6631940D02*
X7467440Y-6631940D01*
X7874000Y-4181000D02*
X7874000Y-4328000D01*
X7800500Y-4254500D02*
X7947500Y-4254500D01*
X8191500Y-625000D02*
X8191500Y-772000D01*
X8118000Y-698500D02*
X8265000Y-698500D01*
X8191500Y-2530000D02*
X8191500Y-2677000D01*
X8118000Y-2603500D02*
X8265000Y-2603500D01*
X8826500Y-371000D02*
X8826500Y-518000D01*
X8753000Y-444500D02*
X8900000Y-444500D01*
X8826500Y-2276000D02*
X8826500Y-2423000D01*
X8753000Y-2349500D02*
X8900000Y-2349500D01*
X9144000Y-4435000D02*
X9144000Y-4582000D01*
X9070500Y-4508500D02*
X9217500Y-4508500D01*
X9620250Y-6816250D02*
X9620250Y-6963250D01*
X9546750Y-6889750D02*
X9693750Y-6889750D01*
X9779000Y-4181000D02*
X9779000Y-4328000D01*
X9705500Y-4254500D02*
X9852500Y-4254500D01*
X10096500Y-625000D02*
X10096500Y-772000D01*
X10023000Y-698500D02*
X10170000Y-698500D01*
X10096500Y-2530000D02*
X10096500Y-2677000D01*
X10023000Y-2603500D02*
X10170000Y-2603500D01*
X10255250Y-6562250D02*
X10255250Y-6709250D01*
X10181750Y-6635750D02*
X10328750Y-6635750D01*
X10731500Y-371000D02*
X10731500Y-518000D01*
X10658000Y-444500D02*
X10805000Y-444500D01*
X10731500Y-2276000D02*
X10731500Y-2423000D01*
X10658000Y-2349500D02*
X10805000Y-2349500D01*
X11049000Y-4435000D02*
X11049000Y-4582000D01*
X10975500Y-4508500D02*
X11122500Y-4508500D01*
X11684000Y-4181000D02*
X11684000Y-4328000D01*
X11610500Y-4254500D02*
X11757500Y-4254500D01*
X12001500Y-625000D02*
X12001500Y-772000D01*
X11928000Y-698500D02*
X12075000Y-698500D01*
X12001500Y-2530000D02*
X12001500Y-2677000D01*
X11928000Y-2603500D02*
X12075000Y-2603500D01*
X12473940Y-6812440D02*
X12473940Y-6959440D01*
X12400440Y-6885940D02*
X12547440Y-6885940D01*
X12636500Y-371000D02*
X12636500Y-518000D01*
X12563000Y-444500D02*
X12710000Y-444500D01*
X12636500Y-2276000D02*
X12636500Y-2423000D01*
X12563000Y-2349500D02*
X12710000Y-2349500D01*
X12954000Y-4435000D02*
X12954000Y-4582000D01*
X12880500Y-4508500D02*
X13027500Y-4508500D01*
X13108940Y-6558440D02*
X13108940Y-6705440D01*
X13035440Y-6631940D02*
X13182440Y-6631940D01*
X13589000Y-4181000D02*
X13589000Y-4328000D01*
X13515500Y-4254500D02*
X13662500Y-4254500D01*
X13906500Y-625000D02*
X13906500Y-772000D01*
X13833000Y-698500D02*
X13980000Y-698500D01*
X13906500Y-2530000D02*
X13906500Y-2677000D01*
X13833000Y-2603500D02*
X13980000Y-2603500D01*
X14541500Y-371000D02*
X14541500Y-518000D01*
X14468000Y-444500D02*
X14615000Y-444500D01*
X14541500Y-2276000D02*
X14541500Y-2423000D01*
X14468000Y-2349500D02*
X14615000Y-2349500D01*
X14859000Y-4435000D02*
X14859000Y-4582000D01*
X14785500Y-4508500D02*
X14932500Y-4508500D01*
X15494000Y-4181000D02*
X15494000Y-4328000D01*
X15420500Y-4254500D02*
X15567500Y-4254500D01*
X15811500Y-625000D02*
X15811500Y-772000D01*
X15738000Y-698500D02*
X15885000Y-698500D01*
X16049625Y-2530000D02*
X16049625Y-2677000D01*
X15976125Y-2603500D02*
X16123125Y-2603500D01*
X16446500Y-371000D02*
X16446500Y-518000D01*
X16373000Y-444500D02*
X16520000Y-444500D01*
X16684625Y-2276000D02*
X16684625Y-2423000D01*
X16611125Y-2349500D02*
X16758125Y-2349500D01*
X16764000Y-4435000D02*
X16764000Y-4582000D01*
X16690500Y-4508500D02*
X16837500Y-4508500D01*
X16764000Y-6817520D02*
X16764000Y-6964520D01*
X16690500Y-6891020D02*
X16837500Y-6891020D01*
X17240250Y-6816250D02*
X17240250Y-6963250D01*
X17166750Y-6889750D02*
X17313750Y-6889750D01*
X17399000Y-4181000D02*
X17399000Y-4328000D01*
X17325500Y-4254500D02*
X17472500Y-4254500D01*
X17399000Y-6563520D02*
X17399000Y-6710520D01*
X17325500Y-6637020D02*
X17472500Y-6637020D01*
X17875250Y-6562250D02*
X17875250Y-6709250D01*
X17801750Y-6635750D02*
X17948750Y-6635750D01*
X18430875Y-625000D02*
X18430875Y-772000D01*
X18357375Y-698500D02*
X18504375Y-698500D01*
X19065875Y-371000D02*
X19065875Y-518000D01*
X18992375Y-444500D02*
X19139375Y-444500D01*
X19542760Y-3355500D02*
X19542760Y-3502500D01*
X19469260Y-3429000D02*
X19616260Y-3429000D01*
X19796760Y-3990500D02*
X19796760Y-4137500D01*
X19723260Y-4064000D02*
X19870260Y-4064000D01*
X-322487Y-313138D02*
X-322487Y-86862D01*
X-548763Y-86862D01*
X-548763Y-313138D01*
X-322487Y-313138D01*
X813138Y-6303118D02*
X813138Y-6076842D01*
X586862Y-6076842D01*
X586862Y-6303118D01*
X813138Y-6303118D01*
X19313138Y-6305658D02*
X19313138Y-6079382D01*
X19086862Y-6079382D01*
X19086862Y-6305658D01*
X19313138Y-6305658D01*
X20313138Y-313138D02*
X20313138Y-86862D01*
X20086862Y-86862D01*
X20086862Y-313138D01*
X20313138Y-313138D01*
X444500Y-1040000D02*
X532000Y-952500D01*
X444500Y-865000D01*
X357000Y-952500D01*
X444500Y-1040000D01*
X444500Y-2945000D02*
X532000Y-2857500D01*
X444500Y-2770000D01*
X357000Y-2857500D01*
X444500Y-2945000D01*
X1397000Y-4850000D02*
X1484500Y-4762500D01*
X1397000Y-4675000D01*
X1309500Y-4762500D01*
X1397000Y-4850000D01*
X1460500Y-1040000D02*
X1548000Y-952500D01*
X1460500Y-865000D01*
X1373000Y-952500D01*
X1460500Y-1040000D01*
X1460500Y-2945000D02*
X1548000Y-2857500D01*
X1460500Y-2770000D01*
X1373000Y-2857500D01*
X1460500Y-2945000D01*
X1873250Y-7231250D02*
X1960750Y-7143750D01*
X1873250Y-7056250D01*
X1785750Y-7143750D01*
X1873250Y-7231250D01*
X2349500Y-1040000D02*
X2437000Y-952500D01*
X2349500Y-865000D01*
X2262000Y-952500D01*
X2349500Y-1040000D01*
X2349500Y-2945000D02*
X2437000Y-2857500D01*
X2349500Y-2770000D01*
X2262000Y-2857500D01*
X2349500Y-2945000D01*
X2349500Y-7227440D02*
X2437000Y-7139940D01*
X2349500Y-7052440D01*
X2262000Y-7139940D01*
X2349500Y-7227440D01*
X2413000Y-4850000D02*
X2500500Y-4762500D01*
X2413000Y-4675000D01*
X2325500Y-4762500D01*
X2413000Y-4850000D01*
X2889250Y-7231250D02*
X2976750Y-7143750D01*
X2889250Y-7056250D01*
X2801750Y-7143750D01*
X2889250Y-7231250D01*
X3302000Y-4850000D02*
X3389500Y-4762500D01*
X3302000Y-4675000D01*
X3214500Y-4762500D01*
X3302000Y-4850000D01*
X3365500Y-1040000D02*
X3453000Y-952500D01*
X3365500Y-865000D01*
X3278000Y-952500D01*
X3365500Y-1040000D01*
X3365500Y-2945000D02*
X3453000Y-2857500D01*
X3365500Y-2770000D01*
X3278000Y-2857500D01*
X3365500Y-2945000D01*
X3365500Y-7227440D02*
X3453000Y-7139940D01*
X3365500Y-7052440D01*
X3278000Y-7139940D01*
X3365500Y-7227440D01*
X4254500Y-1040000D02*
X4342000Y-952500D01*
X4254500Y-865000D01*
X4167000Y-952500D01*
X4254500Y-1040000D01*
X4254500Y-2945000D02*
X4342000Y-2857500D01*
X4254500Y-2770000D01*
X4167000Y-2857500D01*
X4254500Y-2945000D01*
X4318000Y-4850000D02*
X4405500Y-4762500D01*
X4318000Y-4675000D01*
X4230500Y-4762500D01*
X4318000Y-4850000D01*
X5207000Y-4850000D02*
X5294500Y-4762500D01*
X5207000Y-4675000D01*
X5119500Y-4762500D01*
X5207000Y-4850000D01*
X5270500Y-1040000D02*
X5358000Y-952500D01*
X5270500Y-865000D01*
X5183000Y-952500D01*
X5270500Y-1040000D01*
X5270500Y-2945000D02*
X5358000Y-2857500D01*
X5270500Y-2770000D01*
X5183000Y-2857500D01*
X5270500Y-2945000D01*
X6159500Y-1040000D02*
X6247000Y-952500D01*
X6159500Y-865000D01*
X6072000Y-952500D01*
X6159500Y-1040000D01*
X6159500Y-2945000D02*
X6247000Y-2857500D01*
X6159500Y-2770000D01*
X6072000Y-2857500D01*
X6159500Y-2945000D01*
X6223000Y-4850000D02*
X6310500Y-4762500D01*
X6223000Y-4675000D01*
X6135500Y-4762500D01*
X6223000Y-4850000D01*
X6631940Y-7227440D02*
X6719440Y-7139940D01*
X6631940Y-7052440D01*
X6544440Y-7139940D01*
X6631940Y-7227440D01*
X7112000Y-4850000D02*
X7199500Y-4762500D01*
X7112000Y-4675000D01*
X7024500Y-4762500D01*
X7112000Y-4850000D01*
X7175500Y-1040000D02*
X7263000Y-952500D01*
X7175500Y-865000D01*
X7088000Y-952500D01*
X7175500Y-1040000D01*
X7175500Y-2945000D02*
X7263000Y-2857500D01*
X7175500Y-2770000D01*
X7088000Y-2857500D01*
X7175500Y-2945000D01*
X7647940Y-7227440D02*
X7735440Y-7139940D01*
X7647940Y-7052440D01*
X7560440Y-7139940D01*
X7647940Y-7227440D01*
X8064500Y-1040000D02*
X8152000Y-952500D01*
X8064500Y-865000D01*
X7977000Y-952500D01*
X8064500Y-1040000D01*
X8064500Y-2945000D02*
X8152000Y-2857500D01*
X8064500Y-2770000D01*
X7977000Y-2857500D01*
X8064500Y-2945000D01*
X8128000Y-4850000D02*
X8215500Y-4762500D01*
X8128000Y-4675000D01*
X8040500Y-4762500D01*
X8128000Y-4850000D01*
X9017000Y-4850000D02*
X9104500Y-4762500D01*
X9017000Y-4675000D01*
X8929500Y-4762500D01*
X9017000Y-4850000D01*
X9080500Y-1040000D02*
X9168000Y-952500D01*
X9080500Y-865000D01*
X8993000Y-952500D01*
X9080500Y-1040000D01*
X9080500Y-2945000D02*
X9168000Y-2857500D01*
X9080500Y-2770000D01*
X8993000Y-2857500D01*
X9080500Y-2945000D01*
X9493250Y-7231250D02*
X9580750Y-7143750D01*
X9493250Y-7056250D01*
X9405750Y-7143750D01*
X9493250Y-7231250D01*
X9969500Y-1040000D02*
X10057000Y-952500D01*
X9969500Y-865000D01*
X9882000Y-952500D01*
X9969500Y-1040000D01*
X9969500Y-2945000D02*
X10057000Y-2857500D01*
X9969500Y-2770000D01*
X9882000Y-2857500D01*
X9969500Y-2945000D01*
X10033000Y-4850000D02*
X10120500Y-4762500D01*
X10033000Y-4675000D01*
X9945500Y-4762500D01*
X10033000Y-4850000D01*
X10509250Y-7231250D02*
X10596750Y-7143750D01*
X10509250Y-7056250D01*
X10421750Y-7143750D01*
X10509250Y-7231250D01*
X10922000Y-4850000D02*
X11009500Y-4762500D01*
X10922000Y-4675000D01*
X10834500Y-4762500D01*
X10922000Y-4850000D01*
X10985500Y-1040000D02*
X11073000Y-952500D01*
X10985500Y-865000D01*
X10898000Y-952500D01*
X10985500Y-1040000D01*
X10985500Y-2945000D02*
X11073000Y-2857500D01*
X10985500Y-2770000D01*
X10898000Y-2857500D01*
X10985500Y-2945000D01*
X11874500Y-1040000D02*
X11962000Y-952500D01*
X11874500Y-865000D01*
X11787000Y-952500D01*
X11874500Y-1040000D01*
X11874500Y-2945000D02*
X11962000Y-2857500D01*
X11874500Y-2770000D01*
X11787000Y-2857500D01*
X11874500Y-2945000D01*
X11938000Y-4850000D02*
X12025500Y-4762500D01*
X11938000Y-4675000D01*
X11850500Y-4762500D01*
X11938000Y-4850000D01*
X12346940Y-7227440D02*
X12434440Y-7139940D01*
X12346940Y-7052440D01*
X12259440Y-7139940D01*
X12346940Y-7227440D01*
X12827000Y-4850000D02*
X12914500Y-4762500D01*
X12827000Y-4675000D01*
X12739500Y-4762500D01*
X12827000Y-4850000D01*
X12890500Y-1040000D02*
X12978000Y-952500D01*
X12890500Y-865000D01*
X12803000Y-952500D01*
X12890500Y-1040000D01*
X12890500Y-2945000D02*
X12978000Y-2857500D01*
X12890500Y-2770000D01*
X12803000Y-2857500D01*
X12890500Y-2945000D01*
X13362940Y-7227440D02*
X13450440Y-7139940D01*
X13362940Y-7052440D01*
X13275440Y-7139940D01*
X13362940Y-7227440D01*
X13779500Y-1040000D02*
X13867000Y-952500D01*
X13779500Y-865000D01*
X13692000Y-952500D01*
X13779500Y-1040000D01*
X13779500Y-2945000D02*
X13867000Y-2857500D01*
X13779500Y-2770000D01*
X13692000Y-2857500D01*
X13779500Y-2945000D01*
X13843000Y-4850000D02*
X13930500Y-4762500D01*
X13843000Y-4675000D01*
X13755500Y-4762500D01*
X13843000Y-4850000D01*
X14732000Y-4850000D02*
X14819500Y-4762500D01*
X14732000Y-4675000D01*
X14644500Y-4762500D01*
X14732000Y-4850000D01*
X14795500Y-1040000D02*
X14883000Y-952500D01*
X14795500Y-865000D01*
X14708000Y-952500D01*
X14795500Y-1040000D01*
X14795500Y-2945000D02*
X14883000Y-2857500D01*
X14795500Y-2770000D01*
X14708000Y-2857500D01*
X14795500Y-2945000D01*
X15684500Y-1040000D02*
X15772000Y-952500D01*
X15684500Y-865000D01*
X15597000Y-952500D01*
X15684500Y-1040000D01*
X15748000Y-4850000D02*
X15835500Y-4762500D01*
X15748000Y-4675000D01*
X15660500Y-4762500D01*
X15748000Y-4850000D01*
X15922625Y-2945000D02*
X16010125Y-2857500D01*
X15922625Y-2770000D01*
X15835125Y-2857500D01*
X15922625Y-2945000D01*
X16637000Y-4850000D02*
X16724500Y-4762500D01*
X16637000Y-4675000D01*
X16549500Y-4762500D01*
X16637000Y-4850000D01*
X16637000Y-7232520D02*
X16724500Y-7145020D01*
X16637000Y-7057520D01*
X16549500Y-7145020D01*
X16637000Y-7232520D01*
X16700500Y-1040000D02*
X16788000Y-952500D01*
X16700500Y-865000D01*
X16613000Y-952500D01*
X16700500Y-1040000D01*
X16938625Y-2945000D02*
X17026125Y-2857500D01*
X16938625Y-2770000D01*
X16851125Y-2857500D01*
X16938625Y-2945000D01*
X17113250Y-7231250D02*
X17200750Y-7143750D01*
X17113250Y-7056250D01*
X17025750Y-7143750D01*
X17113250Y-7231250D01*
X17653000Y-4850000D02*
X17740500Y-4762500D01*
X17653000Y-4675000D01*
X17565500Y-4762500D01*
X17653000Y-4850000D01*
X17653000Y-7232520D02*
X17740500Y-7145020D01*
X17653000Y-7057520D01*
X17565500Y-7145020D01*
X17653000Y-7232520D01*
X18129250Y-7231250D02*
X18216750Y-7143750D01*
X18129250Y-7056250D01*
X18041750Y-7143750D01*
X18129250Y-7231250D01*
X18303875Y-1040000D02*
X18391375Y-952500D01*
X18303875Y-865000D01*
X18216375Y-952500D01*
X18303875Y-1040000D01*
X19288760Y-3389500D02*
X19376260Y-3302000D01*
X19288760Y-3214500D01*
X19201260Y-3302000D01*
X19288760Y-3389500D01*
X19288760Y-4405500D02*
X19376260Y-4318000D01*
X19288760Y-4230500D01*
X19201260Y-4318000D01*
X19288760Y-4405500D01*
X19319875Y-1040000D02*
X19407375Y-952500D01*
X19319875Y-865000D01*
X19232375Y-952500D01*
X19319875Y-1040000D01*
X4133850Y-7689850D02*
X4438650Y-7994650D01*
X4438650Y-7689850D02*
X4133850Y-7994650D01*
X4438650Y-7842250D02*
G75*
G03*
X4438650Y-7842250I-152400J0D01*
G01*
X5082540Y-7686040D02*
X5387340Y-7990840D01*
X5387340Y-7686040D02*
X5082540Y-7990840D01*
X5387340Y-7838440D02*
G75*
G03*
X5387340Y-7838440I-152400J0D01*
G01*
X8892540Y-7686040D02*
X9197340Y-7990840D01*
X9197340Y-7686040D02*
X8892540Y-7990840D01*
X9197340Y-7838440D02*
G75*
G03*
X9197340Y-7838440I-152400J0D01*
G01*
X10797540Y-7686040D02*
X11102340Y-7990840D01*
X11102340Y-7686040D02*
X10797540Y-7990840D01*
X11102340Y-7838440D02*
G75*
G03*
X11102340Y-7838440I-152400J0D01*
G01*
X14607540Y-7686040D02*
X14912340Y-7990840D01*
X14912340Y-7686040D02*
X14607540Y-7990840D01*
X14912340Y-7838440D02*
G75*
G03*
X14912340Y-7838440I-152400J0D01*
G01*
X15563850Y-7689850D02*
X15868650Y-7994650D01*
X15868650Y-7689850D02*
X15563850Y-7994650D01*
X15868650Y-7842250D02*
G75*
G03*
X15868650Y-7842250I-152400J0D01*
G01*
X19834860Y-2463800D02*
X20139660Y-2768600D01*
X20139660Y-2463800D02*
X19834860Y-2768600D01*
X20139660Y-2616200D02*
G75*
G03*
X20139660Y-2616200I-152400J0D01*
G01*
X19834860Y-4851400D02*
X20139660Y-5156200D01*
X20139660Y-4851400D02*
X19834860Y-5156200D01*
X20139660Y-5003800D02*
G75*
G03*
X20139660Y-5003800I-152400J0D01*
G01*
X753110Y-753110D02*
X1151890Y-1151890D01*
X1151890Y-753110D02*
X753110Y-1151890D01*
X952500Y-753110D02*
X952500Y-1151890D01*
X753110Y-952500D02*
X1151890Y-952500D01*
X753110Y-2658110D02*
X1151890Y-3056890D01*
X1151890Y-2658110D02*
X753110Y-3056890D01*
X952500Y-2658110D02*
X952500Y-3056890D01*
X753110Y-2857500D02*
X1151890Y-2857500D01*
X1705610Y-4563110D02*
X2104390Y-4961890D01*
X2104390Y-4563110D02*
X1705610Y-4961890D01*
X1905000Y-4563110D02*
X1905000Y-4961890D01*
X1705610Y-4762500D02*
X2104390Y-4762500D01*
X2181860Y-6944360D02*
X2580640Y-7343140D01*
X2580640Y-6944360D02*
X2181860Y-7343140D01*
X2381250Y-6944360D02*
X2381250Y-7343140D01*
X2181860Y-7143750D02*
X2580640Y-7143750D01*
X2658110Y-753110D02*
X3056890Y-1151890D01*
X3056890Y-753110D02*
X2658110Y-1151890D01*
X2857500Y-753110D02*
X2857500Y-1151890D01*
X2658110Y-952500D02*
X3056890Y-952500D01*
X2658110Y-2658110D02*
X3056890Y-3056890D01*
X3056890Y-2658110D02*
X2658110Y-3056890D01*
X2857500Y-2658110D02*
X2857500Y-3056890D01*
X2658110Y-2857500D02*
X3056890Y-2857500D01*
X2658110Y-6940550D02*
X3056890Y-7339330D01*
X3056890Y-6940550D02*
X2658110Y-7339330D01*
X2857500Y-6940550D02*
X2857500Y-7339330D01*
X2658110Y-7139940D02*
X3056890Y-7139940D01*
X3610610Y-4563110D02*
X4009390Y-4961890D01*
X4009390Y-4563110D02*
X3610610Y-4961890D01*
X3810000Y-4563110D02*
X3810000Y-4961890D01*
X3610610Y-4762500D02*
X4009390Y-4762500D01*
X4086860Y-6118860D02*
X4485640Y-6517640D01*
X4485640Y-6118860D02*
X4086860Y-6517640D01*
X4286250Y-6118860D02*
X4286250Y-6517640D01*
X4086860Y-6318250D02*
X4485640Y-6318250D01*
X4563110Y-753110D02*
X4961890Y-1151890D01*
X4961890Y-753110D02*
X4563110Y-1151890D01*
X4762500Y-753110D02*
X4762500Y-1151890D01*
X4563110Y-952500D02*
X4961890Y-952500D01*
X4563110Y-2658110D02*
X4961890Y-3056890D01*
X4961890Y-2658110D02*
X4563110Y-3056890D01*
X4762500Y-2658110D02*
X4762500Y-3056890D01*
X4563110Y-2857500D02*
X4961890Y-2857500D01*
X5035550Y-6115050D02*
X5434330Y-6513830D01*
X5434330Y-6115050D02*
X5035550Y-6513830D01*
X5234940Y-6115050D02*
X5234940Y-6513830D01*
X5035550Y-6314440D02*
X5434330Y-6314440D01*
X5515610Y-4563110D02*
X5914390Y-4961890D01*
X5914390Y-4563110D02*
X5515610Y-4961890D01*
X5715000Y-4563110D02*
X5715000Y-4961890D01*
X5515610Y-4762500D02*
X5914390Y-4762500D01*
X6468110Y-753110D02*
X6866890Y-1151890D01*
X6866890Y-753110D02*
X6468110Y-1151890D01*
X6667500Y-753110D02*
X6667500Y-1151890D01*
X6468110Y-952500D02*
X6866890Y-952500D01*
X6468110Y-2658110D02*
X6866890Y-3056890D01*
X6866890Y-2658110D02*
X6468110Y-3056890D01*
X6667500Y-2658110D02*
X6667500Y-3056890D01*
X6468110Y-2857500D02*
X6866890Y-2857500D01*
X6940550Y-6940550D02*
X7339330Y-7339330D01*
X7339330Y-6940550D02*
X6940550Y-7339330D01*
X7139940Y-6940550D02*
X7139940Y-7339330D01*
X6940550Y-7139940D02*
X7339330Y-7139940D01*
X7420610Y-4563110D02*
X7819390Y-4961890D01*
X7819390Y-4563110D02*
X7420610Y-4961890D01*
X7620000Y-4563110D02*
X7620000Y-4961890D01*
X7420610Y-4762500D02*
X7819390Y-4762500D01*
X8373110Y-753110D02*
X8771890Y-1151890D01*
X8771890Y-753110D02*
X8373110Y-1151890D01*
X8572500Y-753110D02*
X8572500Y-1151890D01*
X8373110Y-952500D02*
X8771890Y-952500D01*
X8373110Y-2658110D02*
X8771890Y-3056890D01*
X8771890Y-2658110D02*
X8373110Y-3056890D01*
X8572500Y-2658110D02*
X8572500Y-3056890D01*
X8373110Y-2857500D02*
X8771890Y-2857500D01*
X8845550Y-6115050D02*
X9244330Y-6513830D01*
X9244330Y-6115050D02*
X8845550Y-6513830D01*
X9044940Y-6115050D02*
X9044940Y-6513830D01*
X8845550Y-6314440D02*
X9244330Y-6314440D01*
X9325610Y-4563110D02*
X9724390Y-4961890D01*
X9724390Y-4563110D02*
X9325610Y-4961890D01*
X9525000Y-4563110D02*
X9525000Y-4961890D01*
X9325610Y-4762500D02*
X9724390Y-4762500D01*
X9801860Y-6944360D02*
X10200640Y-7343140D01*
X10200640Y-6944360D02*
X9801860Y-7343140D01*
X10001250Y-6944360D02*
X10001250Y-7343140D01*
X9801860Y-7143750D02*
X10200640Y-7143750D01*
X10278110Y-753110D02*
X10676890Y-1151890D01*
X10676890Y-753110D02*
X10278110Y-1151890D01*
X10477500Y-753110D02*
X10477500Y-1151890D01*
X10278110Y-952500D02*
X10676890Y-952500D01*
X10278110Y-2658110D02*
X10676890Y-3056890D01*
X10676890Y-2658110D02*
X10278110Y-3056890D01*
X10477500Y-2658110D02*
X10477500Y-3056890D01*
X10278110Y-2857500D02*
X10676890Y-2857500D01*
X10750550Y-6115050D02*
X11149330Y-6513830D01*
X11149330Y-6115050D02*
X10750550Y-6513830D01*
X10949940Y-6115050D02*
X10949940Y-6513830D01*
X10750550Y-6314440D02*
X11149330Y-6314440D01*
X11230610Y-4563110D02*
X11629390Y-4961890D01*
X11629390Y-4563110D02*
X11230610Y-4961890D01*
X11430000Y-4563110D02*
X11430000Y-4961890D01*
X11230610Y-4762500D02*
X11629390Y-4762500D01*
X12183110Y-753110D02*
X12581890Y-1151890D01*
X12581890Y-753110D02*
X12183110Y-1151890D01*
X12382500Y-753110D02*
X12382500Y-1151890D01*
X12183110Y-952500D02*
X12581890Y-952500D01*
X12183110Y-2658110D02*
X12581890Y-3056890D01*
X12581890Y-2658110D02*
X12183110Y-3056890D01*
X12382500Y-2658110D02*
X12382500Y-3056890D01*
X12183110Y-2857500D02*
X12581890Y-2857500D01*
X12655550Y-6940550D02*
X13054330Y-7339330D01*
X13054330Y-6940550D02*
X12655550Y-7339330D01*
X12854940Y-6940550D02*
X12854940Y-7339330D01*
X12655550Y-7139940D02*
X13054330Y-7139940D01*
X13135610Y-4563110D02*
X13534390Y-4961890D01*
X13534390Y-4563110D02*
X13135610Y-4961890D01*
X13335000Y-4563110D02*
X13335000Y-4961890D01*
X13135610Y-4762500D02*
X13534390Y-4762500D01*
X14088110Y-753110D02*
X14486890Y-1151890D01*
X14486890Y-753110D02*
X14088110Y-1151890D01*
X14287500Y-753110D02*
X14287500Y-1151890D01*
X14088110Y-952500D02*
X14486890Y-952500D01*
X14088110Y-2658110D02*
X14486890Y-3056890D01*
X14486890Y-2658110D02*
X14088110Y-3056890D01*
X14287500Y-2658110D02*
X14287500Y-3056890D01*
X14088110Y-2857500D02*
X14486890Y-2857500D01*
X14560550Y-6115050D02*
X14959330Y-6513830D01*
X14959330Y-6115050D02*
X14560550Y-6513830D01*
X14759940Y-6115050D02*
X14759940Y-6513830D01*
X14560550Y-6314440D02*
X14959330Y-6314440D01*
X15040610Y-4563110D02*
X15439390Y-4961890D01*
X15439390Y-4563110D02*
X15040610Y-4961890D01*
X15240000Y-4563110D02*
X15240000Y-4961890D01*
X15040610Y-4762500D02*
X15439390Y-4762500D01*
X15516860Y-6118860D02*
X15915640Y-6517640D01*
X15915640Y-6118860D02*
X15516860Y-6517640D01*
X15716250Y-6118860D02*
X15716250Y-6517640D01*
X15516860Y-6318250D02*
X15915640Y-6318250D01*
X15993110Y-753110D02*
X16391890Y-1151890D01*
X16391890Y-753110D02*
X15993110Y-1151890D01*
X16192500Y-753110D02*
X16192500Y-1151890D01*
X15993110Y-952500D02*
X16391890Y-952500D01*
X16231235Y-2658110D02*
X16630015Y-3056890D01*
X16630015Y-2658110D02*
X16231235Y-3056890D01*
X16430625Y-2658110D02*
X16430625Y-3056890D01*
X16231235Y-2857500D02*
X16630015Y-2857500D01*
X16945610Y-4563110D02*
X17344390Y-4961890D01*
X17344390Y-4563110D02*
X16945610Y-4961890D01*
X17145000Y-4563110D02*
X17145000Y-4961890D01*
X16945610Y-4762500D02*
X17344390Y-4762500D01*
X16945610Y-6945630D02*
X17344390Y-7344410D01*
X17344390Y-6945630D02*
X16945610Y-7344410D01*
X17145000Y-6945630D02*
X17145000Y-7344410D01*
X16945610Y-7145020D02*
X17344390Y-7145020D01*
X17421860Y-6944360D02*
X17820640Y-7343140D01*
X17820640Y-6944360D02*
X17421860Y-7343140D01*
X17621250Y-6944360D02*
X17621250Y-7343140D01*
X17421860Y-7143750D02*
X17820640Y-7143750D01*
X18263870Y-2416810D02*
X18662650Y-2815590D01*
X18662650Y-2416810D02*
X18263870Y-2815590D01*
X18463260Y-2416810D02*
X18463260Y-2815590D01*
X18263870Y-2616200D02*
X18662650Y-2616200D01*
X18263870Y-4804410D02*
X18662650Y-5203190D01*
X18662650Y-4804410D02*
X18263870Y-5203190D01*
X18463260Y-4804410D02*
X18463260Y-5203190D01*
X18263870Y-5003800D02*
X18662650Y-5003800D01*
X18612485Y-753110D02*
X19011265Y-1151890D01*
X19011265Y-753110D02*
X18612485Y-1151890D01*
X18811875Y-753110D02*
X18811875Y-1151890D01*
X18612485Y-952500D02*
X19011265Y-952500D01*
X19089370Y-3610610D02*
X19488150Y-4009390D01*
X19488150Y-3610610D02*
X19089370Y-4009390D01*
X19288760Y-3610610D02*
X19288760Y-4009390D01*
X19089370Y-3810000D02*
X19488150Y-3810000D01*
D12*
X-665277Y-8772030D02*
X-665277Y-8472030D01*
X-593848Y-8472030D01*
X-550991Y-8486316D01*
X-522419Y-8514887D01*
X-508134Y-8543459D01*
X-493848Y-8600602D01*
X-493848Y-8643459D01*
X-508134Y-8700602D01*
X-522419Y-8729173D01*
X-550991Y-8757745D01*
X-593848Y-8772030D01*
X-665277Y-8772030D01*
X-365276Y-8772030D02*
X-365276Y-8572030D01*
X-365276Y-8629173D02*
X-350991Y-8600602D01*
X-336705Y-8586316D01*
X-308134Y-8572030D01*
X-279562Y-8572030D01*
X-179562Y-8772030D02*
X-179562Y-8572030D01*
X-179562Y-8472030D02*
X-193848Y-8486316D01*
X-179562Y-8500602D01*
X-165277Y-8486316D01*
X-179562Y-8472030D01*
X-179562Y-8500602D01*
X6152Y-8772030D02*
X-22419Y-8757745D01*
X-36705Y-8729173D01*
X-36705Y-8472030D01*
X163295Y-8772030D02*
X134723Y-8757745D01*
X120438Y-8729173D01*
X120438Y-8472030D01*
X506152Y-8772030D02*
X506152Y-8472030D01*
X606152Y-8686316D01*
X706152Y-8472030D01*
X706152Y-8772030D01*
X977581Y-8772030D02*
X977581Y-8614887D01*
X963295Y-8586316D01*
X934723Y-8572030D01*
X877581Y-8572030D01*
X849009Y-8586316D01*
X977581Y-8757745D02*
X949009Y-8772030D01*
X877581Y-8772030D01*
X849009Y-8757745D01*
X834723Y-8729173D01*
X834723Y-8700602D01*
X849009Y-8672030D01*
X877581Y-8657745D01*
X949009Y-8657745D01*
X977581Y-8643459D01*
X1120438Y-8572030D02*
X1120438Y-8872030D01*
X1120438Y-8586316D02*
X1149009Y-8572030D01*
X1206152Y-8572030D01*
X1234723Y-8586316D01*
X1249009Y-8600602D01*
X1263295Y-8629173D01*
X1263295Y-8714887D01*
X1249009Y-8743459D01*
X1234723Y-8757745D01*
X1206152Y-8772030D01*
X1149009Y-8772030D01*
X1120438Y-8757745D01*
X1391866Y-8743459D02*
X1406152Y-8757745D01*
X1391866Y-8772030D01*
X1377581Y-8757745D01*
X1391866Y-8743459D01*
X1391866Y-8772030D01*
X1391866Y-8586316D02*
X1406152Y-8600602D01*
X1391866Y-8614887D01*
X1377581Y-8600602D01*
X1391866Y-8586316D01*
X1391866Y-8614887D01*
X-991705Y-9246316D02*
X-951705Y-9286316D01*
X-951705Y-9246316D02*
X-991705Y-9286316D01*
X-608134Y-9102030D02*
X-579562Y-9102030D01*
X-550991Y-9116316D01*
X-536705Y-9130602D01*
X-522419Y-9159173D01*
X-508134Y-9216316D01*
X-508134Y-9287745D01*
X-522419Y-9344887D01*
X-536705Y-9373459D01*
X-550991Y-9387745D01*
X-579562Y-9402030D01*
X-608134Y-9402030D01*
X-636705Y-9387745D01*
X-650991Y-9373459D01*
X-665277Y-9344887D01*
X-679562Y-9287745D01*
X-679562Y-9216316D01*
X-665277Y-9159173D01*
X-650991Y-9130602D01*
X-636705Y-9116316D01*
X-608134Y-9102030D01*
X-379562Y-9373459D02*
X-365276Y-9387745D01*
X-379562Y-9402030D01*
X-393848Y-9387745D01*
X-379562Y-9373459D01*
X-379562Y-9402030D01*
X-108134Y-9202030D02*
X-108134Y-9402030D01*
X-179562Y-9087745D02*
X-250991Y-9302030D01*
X-65276Y-9302030D01*
X106152Y-9102030D02*
X134723Y-9102030D01*
X163295Y-9116316D01*
X177581Y-9130602D01*
X191866Y-9159173D01*
X206152Y-9216316D01*
X206152Y-9287745D01*
X191866Y-9344887D01*
X177581Y-9373459D01*
X163295Y-9387745D01*
X134723Y-9402030D01*
X106152Y-9402030D01*
X77581Y-9387745D01*
X63295Y-9373459D01*
X49009Y-9344887D01*
X34723Y-9287745D01*
X34723Y-9216316D01*
X49009Y-9159173D01*
X63295Y-9130602D01*
X77581Y-9116316D01*
X106152Y-9102030D01*
X334723Y-9402030D02*
X334723Y-9202030D01*
X334723Y-9230602D02*
X349009Y-9216316D01*
X377581Y-9202030D01*
X420438Y-9202030D01*
X449009Y-9216316D01*
X463295Y-9244887D01*
X463295Y-9402030D01*
X463295Y-9244887D02*
X477581Y-9216316D01*
X506152Y-9202030D01*
X549009Y-9202030D01*
X577581Y-9216316D01*
X591866Y-9244887D01*
X591866Y-9402030D01*
X734723Y-9402030D02*
X734723Y-9202030D01*
X734723Y-9230602D02*
X749009Y-9216316D01*
X777581Y-9202030D01*
X820438Y-9202030D01*
X849009Y-9216316D01*
X863295Y-9244887D01*
X863295Y-9402030D01*
X863295Y-9244887D02*
X877581Y-9216316D01*
X906152Y-9202030D01*
X949009Y-9202030D01*
X977581Y-9216316D01*
X991866Y-9244887D01*
X991866Y-9402030D01*
X1577581Y-9087745D02*
X1320438Y-9473459D01*
X1963295Y-9102030D02*
X1991866Y-9102030D01*
X2020438Y-9116316D01*
X2034723Y-9130602D01*
X2049009Y-9159173D01*
X2063295Y-9216316D01*
X2063295Y-9287745D01*
X2049009Y-9344887D01*
X2034723Y-9373459D01*
X2020438Y-9387745D01*
X1991866Y-9402030D01*
X1963295Y-9402030D01*
X1934723Y-9387745D01*
X1920438Y-9373459D01*
X1906152Y-9344887D01*
X1891866Y-9287745D01*
X1891866Y-9216316D01*
X1906152Y-9159173D01*
X1920438Y-9130602D01*
X1934723Y-9116316D01*
X1963295Y-9102030D01*
X2191866Y-9373459D02*
X2206152Y-9387745D01*
X2191866Y-9402030D01*
X2177581Y-9387745D01*
X2191866Y-9373459D01*
X2191866Y-9402030D01*
X2391866Y-9102030D02*
X2420438Y-9102030D01*
X2449009Y-9116316D01*
X2463295Y-9130602D01*
X2477581Y-9159173D01*
X2491866Y-9216316D01*
X2491866Y-9287745D01*
X2477581Y-9344887D01*
X2463295Y-9373459D01*
X2449009Y-9387745D01*
X2420438Y-9402030D01*
X2391866Y-9402030D01*
X2363295Y-9387745D01*
X2349009Y-9373459D01*
X2334723Y-9344887D01*
X2320438Y-9287745D01*
X2320438Y-9216316D01*
X2334723Y-9159173D01*
X2349009Y-9130602D01*
X2363295Y-9116316D01*
X2391866Y-9102030D01*
X2777581Y-9402030D02*
X2606152Y-9402030D01*
X2691866Y-9402030D02*
X2691866Y-9102030D01*
X2663295Y-9144887D01*
X2634723Y-9173459D01*
X2606152Y-9187745D01*
X3034723Y-9102030D02*
X2977581Y-9102030D01*
X2949009Y-9116316D01*
X2934723Y-9130602D01*
X2906152Y-9173459D01*
X2891866Y-9230602D01*
X2891866Y-9344887D01*
X2906152Y-9373459D01*
X2920438Y-9387745D01*
X2949009Y-9402030D01*
X3006152Y-9402030D01*
X3034723Y-9387745D01*
X3049009Y-9373459D01*
X3063295Y-9344887D01*
X3063295Y-9273459D01*
X3049009Y-9244887D01*
X3034723Y-9230602D01*
X3006152Y-9216316D01*
X2949009Y-9216316D01*
X2920438Y-9230602D01*
X2906152Y-9244887D01*
X2891866Y-9273459D01*
X3177581Y-9102030D02*
X3177581Y-9159173D01*
X3291866Y-9102030D02*
X3291866Y-9159173D01*
X3734723Y-9516316D02*
X3720438Y-9502030D01*
X3691866Y-9459173D01*
X3677581Y-9430602D01*
X3663295Y-9387745D01*
X3649009Y-9316316D01*
X3649009Y-9259173D01*
X3663295Y-9187745D01*
X3677581Y-9144887D01*
X3691866Y-9116316D01*
X3720438Y-9073459D01*
X3734723Y-9059173D01*
X3834723Y-9130602D02*
X3849009Y-9116316D01*
X3877581Y-9102030D01*
X3949009Y-9102030D01*
X3977581Y-9116316D01*
X3991866Y-9130602D01*
X4006152Y-9159173D01*
X4006152Y-9187745D01*
X3991866Y-9230602D01*
X3820438Y-9402030D01*
X4006152Y-9402030D01*
X4363295Y-9402030D02*
X4363295Y-9102030D01*
X4491866Y-9402030D02*
X4491866Y-9244887D01*
X4477581Y-9216316D01*
X4449009Y-9202030D01*
X4406152Y-9202030D01*
X4377581Y-9216316D01*
X4363295Y-9230602D01*
X4677581Y-9402030D02*
X4649009Y-9387745D01*
X4634723Y-9373459D01*
X4620438Y-9344887D01*
X4620438Y-9259173D01*
X4634723Y-9230602D01*
X4649009Y-9216316D01*
X4677581Y-9202030D01*
X4720438Y-9202030D01*
X4749009Y-9216316D01*
X4763295Y-9230602D01*
X4777581Y-9259173D01*
X4777581Y-9344887D01*
X4763295Y-9373459D01*
X4749009Y-9387745D01*
X4720438Y-9402030D01*
X4677581Y-9402030D01*
X4949009Y-9402030D02*
X4920438Y-9387745D01*
X4906152Y-9359173D01*
X4906152Y-9102030D01*
X5177581Y-9387745D02*
X5149009Y-9402030D01*
X5091866Y-9402030D01*
X5063295Y-9387745D01*
X5049009Y-9359173D01*
X5049009Y-9244887D01*
X5063295Y-9216316D01*
X5091866Y-9202030D01*
X5149009Y-9202030D01*
X5177581Y-9216316D01*
X5191866Y-9244887D01*
X5191866Y-9273459D01*
X5049009Y-9302030D01*
X5306152Y-9387745D02*
X5334723Y-9402030D01*
X5391866Y-9402030D01*
X5420438Y-9387745D01*
X5434723Y-9359173D01*
X5434723Y-9344887D01*
X5420438Y-9316316D01*
X5391866Y-9302030D01*
X5349009Y-9302030D01*
X5320438Y-9287745D01*
X5306152Y-9259173D01*
X5306152Y-9244887D01*
X5320438Y-9216316D01*
X5349009Y-9202030D01*
X5391866Y-9202030D01*
X5420438Y-9216316D01*
X5534723Y-9516316D02*
X5549009Y-9502030D01*
X5577581Y-9459173D01*
X5591866Y-9430602D01*
X5606152Y-9387745D01*
X5620438Y-9316316D01*
X5620438Y-9259173D01*
X5606152Y-9187745D01*
X5591866Y-9144887D01*
X5577581Y-9116316D01*
X5549009Y-9073459D01*
X5534723Y-9059173D01*
X-951705Y-9662316D02*
G75*
G03*
X-951705Y-9662316I-54610J0D01*
G01*
X-508134Y-9798030D02*
X-679562Y-9798030D01*
X-593848Y-9798030D02*
X-593848Y-9498030D01*
X-622419Y-9540887D01*
X-650991Y-9569459D01*
X-679562Y-9583745D01*
X-379562Y-9769459D02*
X-365276Y-9783745D01*
X-379562Y-9798030D01*
X-393848Y-9783745D01*
X-379562Y-9769459D01*
X-379562Y-9798030D01*
X-179562Y-9498030D02*
X-150991Y-9498030D01*
X-122419Y-9512316D01*
X-108134Y-9526602D01*
X-93848Y-9555173D01*
X-79562Y-9612316D01*
X-79562Y-9683745D01*
X-93848Y-9740887D01*
X-108134Y-9769459D01*
X-122419Y-9783745D01*
X-150991Y-9798030D01*
X-179562Y-9798030D01*
X-208134Y-9783745D01*
X-222419Y-9769459D01*
X-236705Y-9740887D01*
X-250991Y-9683745D01*
X-250991Y-9612316D01*
X-236705Y-9555173D01*
X-222419Y-9526602D01*
X-208134Y-9512316D01*
X-179562Y-9498030D01*
X63295Y-9798030D02*
X120438Y-9798030D01*
X149009Y-9783745D01*
X163295Y-9769459D01*
X191866Y-9726602D01*
X206152Y-9669459D01*
X206152Y-9555173D01*
X191866Y-9526602D01*
X177581Y-9512316D01*
X149009Y-9498030D01*
X91866Y-9498030D01*
X63295Y-9512316D01*
X49009Y-9526602D01*
X34723Y-9555173D01*
X34723Y-9626602D01*
X49009Y-9655173D01*
X63295Y-9669459D01*
X91866Y-9683745D01*
X149009Y-9683745D01*
X177581Y-9669459D01*
X191866Y-9655173D01*
X206152Y-9626602D01*
X334723Y-9798030D02*
X334723Y-9598030D01*
X334723Y-9626602D02*
X349009Y-9612316D01*
X377581Y-9598030D01*
X420438Y-9598030D01*
X449009Y-9612316D01*
X463295Y-9640887D01*
X463295Y-9798030D01*
X463295Y-9640887D02*
X477581Y-9612316D01*
X506152Y-9598030D01*
X549009Y-9598030D01*
X577581Y-9612316D01*
X591866Y-9640887D01*
X591866Y-9798030D01*
X734723Y-9798030D02*
X734723Y-9598030D01*
X734723Y-9626602D02*
X749009Y-9612316D01*
X777581Y-9598030D01*
X820438Y-9598030D01*
X849009Y-9612316D01*
X863295Y-9640887D01*
X863295Y-9798030D01*
X863295Y-9640887D02*
X877581Y-9612316D01*
X906152Y-9598030D01*
X949009Y-9598030D01*
X977581Y-9612316D01*
X991866Y-9640887D01*
X991866Y-9798030D01*
X1577581Y-9483745D02*
X1320438Y-9869459D01*
X1963295Y-9498030D02*
X1991866Y-9498030D01*
X2020438Y-9512316D01*
X2034723Y-9526602D01*
X2049009Y-9555173D01*
X2063295Y-9612316D01*
X2063295Y-9683745D01*
X2049009Y-9740887D01*
X2034723Y-9769459D01*
X2020438Y-9783745D01*
X1991866Y-9798030D01*
X1963295Y-9798030D01*
X1934723Y-9783745D01*
X1920438Y-9769459D01*
X1906152Y-9740887D01*
X1891866Y-9683745D01*
X1891866Y-9612316D01*
X1906152Y-9555173D01*
X1920438Y-9526602D01*
X1934723Y-9512316D01*
X1963295Y-9498030D01*
X2191866Y-9769459D02*
X2206152Y-9783745D01*
X2191866Y-9798030D01*
X2177581Y-9783745D01*
X2191866Y-9769459D01*
X2191866Y-9798030D01*
X2391866Y-9498030D02*
X2420438Y-9498030D01*
X2449009Y-9512316D01*
X2463295Y-9526602D01*
X2477581Y-9555173D01*
X2491866Y-9612316D01*
X2491866Y-9683745D01*
X2477581Y-9740887D01*
X2463295Y-9769459D01*
X2449009Y-9783745D01*
X2420438Y-9798030D01*
X2391866Y-9798030D01*
X2363295Y-9783745D01*
X2349009Y-9769459D01*
X2334723Y-9740887D01*
X2320438Y-9683745D01*
X2320438Y-9612316D01*
X2334723Y-9555173D01*
X2349009Y-9526602D01*
X2363295Y-9512316D01*
X2391866Y-9498030D01*
X2749009Y-9598030D02*
X2749009Y-9798030D01*
X2677581Y-9483745D02*
X2606152Y-9698030D01*
X2791866Y-9698030D01*
X2877581Y-9498030D02*
X3063295Y-9498030D01*
X2963295Y-9612316D01*
X3006152Y-9612316D01*
X3034723Y-9626602D01*
X3049009Y-9640887D01*
X3063295Y-9669459D01*
X3063295Y-9740887D01*
X3049009Y-9769459D01*
X3034723Y-9783745D01*
X3006152Y-9798030D01*
X2920438Y-9798030D01*
X2891866Y-9783745D01*
X2877581Y-9769459D01*
X3177581Y-9498030D02*
X3177581Y-9555173D01*
X3291866Y-9498030D02*
X3291866Y-9555173D01*
X3734723Y-9912316D02*
X3720438Y-9898030D01*
X3691866Y-9855173D01*
X3677581Y-9826602D01*
X3663295Y-9783745D01*
X3649009Y-9712316D01*
X3649009Y-9655173D01*
X3663295Y-9583745D01*
X3677581Y-9540887D01*
X3691866Y-9512316D01*
X3720438Y-9469459D01*
X3734723Y-9455173D01*
X3834723Y-9526602D02*
X3849009Y-9512316D01*
X3877581Y-9498030D01*
X3949009Y-9498030D01*
X3977581Y-9512316D01*
X3991866Y-9526602D01*
X4006152Y-9555173D01*
X4006152Y-9583745D01*
X3991866Y-9626602D01*
X3820438Y-9798030D01*
X4006152Y-9798030D01*
X4149009Y-9798030D02*
X4206152Y-9798030D01*
X4234723Y-9783745D01*
X4249009Y-9769459D01*
X4277581Y-9726602D01*
X4291866Y-9669459D01*
X4291866Y-9555173D01*
X4277581Y-9526602D01*
X4263295Y-9512316D01*
X4234723Y-9498030D01*
X4177581Y-9498030D01*
X4149009Y-9512316D01*
X4134723Y-9526602D01*
X4120438Y-9555173D01*
X4120438Y-9626602D01*
X4134723Y-9655173D01*
X4149009Y-9669459D01*
X4177581Y-9683745D01*
X4234723Y-9683745D01*
X4263295Y-9669459D01*
X4277581Y-9655173D01*
X4291866Y-9626602D01*
X4649009Y-9798030D02*
X4649009Y-9498030D01*
X4777581Y-9798030D02*
X4777581Y-9640887D01*
X4763295Y-9612316D01*
X4734723Y-9598030D01*
X4691866Y-9598030D01*
X4663295Y-9612316D01*
X4649009Y-9626602D01*
X4963295Y-9798030D02*
X4934723Y-9783745D01*
X4920438Y-9769459D01*
X4906152Y-9740887D01*
X4906152Y-9655173D01*
X4920438Y-9626602D01*
X4934723Y-9612316D01*
X4963295Y-9598030D01*
X5006152Y-9598030D01*
X5034723Y-9612316D01*
X5049009Y-9626602D01*
X5063295Y-9655173D01*
X5063295Y-9740887D01*
X5049009Y-9769459D01*
X5034723Y-9783745D01*
X5006152Y-9798030D01*
X4963295Y-9798030D01*
X5234723Y-9798030D02*
X5206152Y-9783745D01*
X5191866Y-9755173D01*
X5191866Y-9498030D01*
X5463295Y-9783745D02*
X5434723Y-9798030D01*
X5377581Y-9798030D01*
X5349009Y-9783745D01*
X5334723Y-9755173D01*
X5334723Y-9640887D01*
X5349009Y-9612316D01*
X5377581Y-9598030D01*
X5434723Y-9598030D01*
X5463295Y-9612316D01*
X5477581Y-9640887D01*
X5477581Y-9669459D01*
X5334723Y-9698030D01*
X5591866Y-9783745D02*
X5620438Y-9798030D01*
X5677581Y-9798030D01*
X5706152Y-9783745D01*
X5720438Y-9755173D01*
X5720438Y-9740887D01*
X5706152Y-9712316D01*
X5677581Y-9698030D01*
X5634723Y-9698030D01*
X5606152Y-9683745D01*
X5591866Y-9655173D01*
X5591866Y-9640887D01*
X5606152Y-9612316D01*
X5634723Y-9598030D01*
X5677581Y-9598030D01*
X5706152Y-9612316D01*
X5820438Y-9912316D02*
X5834723Y-9898030D01*
X5863295Y-9855173D01*
X5877581Y-9826602D01*
X5891866Y-9783745D01*
X5906152Y-9712316D01*
X5906152Y-9655173D01*
X5891866Y-9583745D01*
X5877581Y-9540887D01*
X5863295Y-9512316D01*
X5834723Y-9469459D01*
X5820438Y-9455173D01*
X-1025205Y-9984816D02*
X-1025205Y-10131816D01*
X-1098705Y-10058316D02*
X-951705Y-10058316D01*
X-508134Y-10194030D02*
X-679562Y-10194030D01*
X-593848Y-10194030D02*
X-593848Y-9894030D01*
X-622419Y-9936887D01*
X-650991Y-9965459D01*
X-679562Y-9979745D01*
X-379562Y-10165459D02*
X-365276Y-10179745D01*
X-379562Y-10194030D01*
X-393848Y-10179745D01*
X-379562Y-10165459D01*
X-379562Y-10194030D01*
X-108134Y-9994030D02*
X-108134Y-10194030D01*
X-179562Y-9879745D02*
X-250991Y-10094030D01*
X-65276Y-10094030D01*
X20438Y-9894030D02*
X220438Y-9894030D01*
X91866Y-10194030D01*
X334723Y-10194030D02*
X334723Y-9994030D01*
X334723Y-10022602D02*
X349009Y-10008316D01*
X377581Y-9994030D01*
X420438Y-9994030D01*
X449009Y-10008316D01*
X463295Y-10036887D01*
X463295Y-10194030D01*
X463295Y-10036887D02*
X477581Y-10008316D01*
X506152Y-9994030D01*
X549009Y-9994030D01*
X577581Y-10008316D01*
X591866Y-10036887D01*
X591866Y-10194030D01*
X734723Y-10194030D02*
X734723Y-9994030D01*
X734723Y-10022602D02*
X749009Y-10008316D01*
X777581Y-9994030D01*
X820438Y-9994030D01*
X849009Y-10008316D01*
X863295Y-10036887D01*
X863295Y-10194030D01*
X863295Y-10036887D02*
X877581Y-10008316D01*
X906152Y-9994030D01*
X949009Y-9994030D01*
X977581Y-10008316D01*
X991866Y-10036887D01*
X991866Y-10194030D01*
X1577581Y-9879745D02*
X1320438Y-10265459D01*
X1963295Y-9894030D02*
X1991866Y-9894030D01*
X2020438Y-9908316D01*
X2034723Y-9922602D01*
X2049009Y-9951173D01*
X2063295Y-10008316D01*
X2063295Y-10079745D01*
X2049009Y-10136887D01*
X2034723Y-10165459D01*
X2020438Y-10179745D01*
X1991866Y-10194030D01*
X1963295Y-10194030D01*
X1934723Y-10179745D01*
X1920438Y-10165459D01*
X1906152Y-10136887D01*
X1891866Y-10079745D01*
X1891866Y-10008316D01*
X1906152Y-9951173D01*
X1920438Y-9922602D01*
X1934723Y-9908316D01*
X1963295Y-9894030D01*
X2191866Y-10165459D02*
X2206152Y-10179745D01*
X2191866Y-10194030D01*
X2177581Y-10179745D01*
X2191866Y-10165459D01*
X2191866Y-10194030D01*
X2391866Y-9894030D02*
X2420438Y-9894030D01*
X2449009Y-9908316D01*
X2463295Y-9922602D01*
X2477581Y-9951173D01*
X2491866Y-10008316D01*
X2491866Y-10079745D01*
X2477581Y-10136887D01*
X2463295Y-10165459D01*
X2449009Y-10179745D01*
X2420438Y-10194030D01*
X2391866Y-10194030D01*
X2363295Y-10179745D01*
X2349009Y-10165459D01*
X2334723Y-10136887D01*
X2320438Y-10079745D01*
X2320438Y-10008316D01*
X2334723Y-9951173D01*
X2349009Y-9922602D01*
X2363295Y-9908316D01*
X2391866Y-9894030D01*
X2763295Y-9894030D02*
X2620438Y-9894030D01*
X2606152Y-10036887D01*
X2620438Y-10022602D01*
X2649009Y-10008316D01*
X2720438Y-10008316D01*
X2749009Y-10022602D01*
X2763295Y-10036887D01*
X2777581Y-10065459D01*
X2777581Y-10136887D01*
X2763295Y-10165459D01*
X2749009Y-10179745D01*
X2720438Y-10194030D01*
X2649009Y-10194030D01*
X2620438Y-10179745D01*
X2606152Y-10165459D01*
X2949009Y-10022602D02*
X2920438Y-10008316D01*
X2906152Y-9994030D01*
X2891866Y-9965459D01*
X2891866Y-9951173D01*
X2906152Y-9922602D01*
X2920438Y-9908316D01*
X2949009Y-9894030D01*
X3006152Y-9894030D01*
X3034723Y-9908316D01*
X3049009Y-9922602D01*
X3063295Y-9951173D01*
X3063295Y-9965459D01*
X3049009Y-9994030D01*
X3034723Y-10008316D01*
X3006152Y-10022602D01*
X2949009Y-10022602D01*
X2920438Y-10036887D01*
X2906152Y-10051173D01*
X2891866Y-10079745D01*
X2891866Y-10136887D01*
X2906152Y-10165459D01*
X2920438Y-10179745D01*
X2949009Y-10194030D01*
X3006152Y-10194030D01*
X3034723Y-10179745D01*
X3049009Y-10165459D01*
X3063295Y-10136887D01*
X3063295Y-10079745D01*
X3049009Y-10051173D01*
X3034723Y-10036887D01*
X3006152Y-10022602D01*
X3177581Y-9894030D02*
X3177581Y-9951173D01*
X3291866Y-9894030D02*
X3291866Y-9951173D01*
X3734723Y-10308316D02*
X3720438Y-10294030D01*
X3691866Y-10251173D01*
X3677581Y-10222602D01*
X3663295Y-10179745D01*
X3649009Y-10108316D01*
X3649009Y-10051173D01*
X3663295Y-9979745D01*
X3677581Y-9936887D01*
X3691866Y-9908316D01*
X3720438Y-9865459D01*
X3734723Y-9851173D01*
X3820438Y-9894030D02*
X4020438Y-9894030D01*
X3891866Y-10194030D01*
X4120438Y-9922602D02*
X4134723Y-9908316D01*
X4163295Y-9894030D01*
X4234723Y-9894030D01*
X4263295Y-9908316D01*
X4277581Y-9922602D01*
X4291866Y-9951173D01*
X4291866Y-9979745D01*
X4277581Y-10022602D01*
X4106152Y-10194030D01*
X4291866Y-10194030D01*
X4649009Y-10194030D02*
X4649009Y-9894030D01*
X4777581Y-10194030D02*
X4777581Y-10036887D01*
X4763295Y-10008316D01*
X4734723Y-9994030D01*
X4691866Y-9994030D01*
X4663295Y-10008316D01*
X4649009Y-10022602D01*
X4963295Y-10194030D02*
X4934723Y-10179745D01*
X4920438Y-10165459D01*
X4906152Y-10136887D01*
X4906152Y-10051173D01*
X4920438Y-10022602D01*
X4934723Y-10008316D01*
X4963295Y-9994030D01*
X5006152Y-9994030D01*
X5034723Y-10008316D01*
X5049009Y-10022602D01*
X5063295Y-10051173D01*
X5063295Y-10136887D01*
X5049009Y-10165459D01*
X5034723Y-10179745D01*
X5006152Y-10194030D01*
X4963295Y-10194030D01*
X5234723Y-10194030D02*
X5206152Y-10179745D01*
X5191866Y-10151173D01*
X5191866Y-9894030D01*
X5463295Y-10179745D02*
X5434723Y-10194030D01*
X5377581Y-10194030D01*
X5349009Y-10179745D01*
X5334723Y-10151173D01*
X5334723Y-10036887D01*
X5349009Y-10008316D01*
X5377581Y-9994030D01*
X5434723Y-9994030D01*
X5463295Y-10008316D01*
X5477581Y-10036887D01*
X5477581Y-10065459D01*
X5334723Y-10094030D01*
X5591866Y-10179745D02*
X5620438Y-10194030D01*
X5677581Y-10194030D01*
X5706152Y-10179745D01*
X5720438Y-10151173D01*
X5720438Y-10136887D01*
X5706152Y-10108316D01*
X5677581Y-10094030D01*
X5634723Y-10094030D01*
X5606152Y-10079745D01*
X5591866Y-10051173D01*
X5591866Y-10036887D01*
X5606152Y-10008316D01*
X5634723Y-9994030D01*
X5677581Y-9994030D01*
X5706152Y-10008316D01*
X5820438Y-10308316D02*
X5834723Y-10294030D01*
X5863295Y-10251173D01*
X5877581Y-10222602D01*
X5891866Y-10179745D01*
X5906152Y-10108316D01*
X5906152Y-10051173D01*
X5891866Y-9979745D01*
X5877581Y-9936887D01*
X5863295Y-9908316D01*
X5834723Y-9865459D01*
X5820438Y-9851173D01*
X-998567Y-10567454D02*
X-998567Y-10341178D01*
X-1224843Y-10341178D01*
X-1224843Y-10567454D01*
X-998567Y-10567454D01*
X-693848Y-10290030D02*
X-508134Y-10290030D01*
X-608134Y-10404316D01*
X-565277Y-10404316D01*
X-536705Y-10418602D01*
X-522419Y-10432887D01*
X-508134Y-10461459D01*
X-508134Y-10532887D01*
X-522419Y-10561459D01*
X-536705Y-10575745D01*
X-565277Y-10590030D01*
X-650991Y-10590030D01*
X-679562Y-10575745D01*
X-693848Y-10561459D01*
X-379562Y-10561459D02*
X-365276Y-10575745D01*
X-379562Y-10590030D01*
X-393848Y-10575745D01*
X-379562Y-10561459D01*
X-379562Y-10590030D01*
X-250991Y-10318602D02*
X-236705Y-10304316D01*
X-208134Y-10290030D01*
X-136705Y-10290030D01*
X-108134Y-10304316D01*
X-93848Y-10318602D01*
X-79562Y-10347173D01*
X-79562Y-10375745D01*
X-93848Y-10418602D01*
X-265277Y-10590030D01*
X-79562Y-10590030D01*
X106152Y-10290030D02*
X134723Y-10290030D01*
X163295Y-10304316D01*
X177581Y-10318602D01*
X191866Y-10347173D01*
X206152Y-10404316D01*
X206152Y-10475745D01*
X191866Y-10532887D01*
X177581Y-10561459D01*
X163295Y-10575745D01*
X134723Y-10590030D01*
X106152Y-10590030D01*
X77581Y-10575745D01*
X63295Y-10561459D01*
X49009Y-10532887D01*
X34723Y-10475745D01*
X34723Y-10404316D01*
X49009Y-10347173D01*
X63295Y-10318602D01*
X77581Y-10304316D01*
X106152Y-10290030D01*
X334723Y-10590030D02*
X334723Y-10390030D01*
X334723Y-10418602D02*
X349009Y-10404316D01*
X377581Y-10390030D01*
X420438Y-10390030D01*
X449009Y-10404316D01*
X463295Y-10432887D01*
X463295Y-10590030D01*
X463295Y-10432887D02*
X477581Y-10404316D01*
X506152Y-10390030D01*
X549009Y-10390030D01*
X577581Y-10404316D01*
X591866Y-10432887D01*
X591866Y-10590030D01*
X734723Y-10590030D02*
X734723Y-10390030D01*
X734723Y-10418602D02*
X749009Y-10404316D01*
X777581Y-10390030D01*
X820438Y-10390030D01*
X849009Y-10404316D01*
X863295Y-10432887D01*
X863295Y-10590030D01*
X863295Y-10432887D02*
X877581Y-10404316D01*
X906152Y-10390030D01*
X949009Y-10390030D01*
X977581Y-10404316D01*
X991866Y-10432887D01*
X991866Y-10590030D01*
X1577581Y-10275745D02*
X1320438Y-10661459D01*
X1963295Y-10290030D02*
X1991866Y-10290030D01*
X2020438Y-10304316D01*
X2034723Y-10318602D01*
X2049009Y-10347173D01*
X2063295Y-10404316D01*
X2063295Y-10475745D01*
X2049009Y-10532887D01*
X2034723Y-10561459D01*
X2020438Y-10575745D01*
X1991866Y-10590030D01*
X1963295Y-10590030D01*
X1934723Y-10575745D01*
X1920438Y-10561459D01*
X1906152Y-10532887D01*
X1891866Y-10475745D01*
X1891866Y-10404316D01*
X1906152Y-10347173D01*
X1920438Y-10318602D01*
X1934723Y-10304316D01*
X1963295Y-10290030D01*
X2191866Y-10561459D02*
X2206152Y-10575745D01*
X2191866Y-10590030D01*
X2177581Y-10575745D01*
X2191866Y-10561459D01*
X2191866Y-10590030D01*
X2491866Y-10590030D02*
X2320438Y-10590030D01*
X2406152Y-10590030D02*
X2406152Y-10290030D01*
X2377581Y-10332887D01*
X2349009Y-10361459D01*
X2320438Y-10375745D01*
X2606152Y-10318602D02*
X2620438Y-10304316D01*
X2649009Y-10290030D01*
X2720438Y-10290030D01*
X2749009Y-10304316D01*
X2763295Y-10318602D01*
X2777581Y-10347173D01*
X2777581Y-10375745D01*
X2763295Y-10418602D01*
X2591866Y-10590030D01*
X2777581Y-10590030D01*
X3034723Y-10290030D02*
X2977581Y-10290030D01*
X2949009Y-10304316D01*
X2934723Y-10318602D01*
X2906152Y-10361459D01*
X2891866Y-10418602D01*
X2891866Y-10532887D01*
X2906152Y-10561459D01*
X2920438Y-10575745D01*
X2949009Y-10590030D01*
X3006152Y-10590030D01*
X3034723Y-10575745D01*
X3049009Y-10561459D01*
X3063295Y-10532887D01*
X3063295Y-10461459D01*
X3049009Y-10432887D01*
X3034723Y-10418602D01*
X3006152Y-10404316D01*
X2949009Y-10404316D01*
X2920438Y-10418602D01*
X2906152Y-10432887D01*
X2891866Y-10461459D01*
X3177581Y-10290030D02*
X3177581Y-10347173D01*
X3291866Y-10290030D02*
X3291866Y-10347173D01*
X3734723Y-10704316D02*
X3720438Y-10690030D01*
X3691866Y-10647173D01*
X3677581Y-10618602D01*
X3663295Y-10575745D01*
X3649009Y-10504316D01*
X3649009Y-10447173D01*
X3663295Y-10375745D01*
X3677581Y-10332887D01*
X3691866Y-10304316D01*
X3720438Y-10261459D01*
X3734723Y-10247173D01*
X3977581Y-10390030D02*
X3977581Y-10590030D01*
X3906152Y-10275745D02*
X3834723Y-10490030D01*
X4020438Y-10490030D01*
X4363295Y-10590030D02*
X4363295Y-10290030D01*
X4491866Y-10590030D02*
X4491866Y-10432887D01*
X4477581Y-10404316D01*
X4449009Y-10390030D01*
X4406152Y-10390030D01*
X4377581Y-10404316D01*
X4363295Y-10418602D01*
X4677581Y-10590030D02*
X4649009Y-10575745D01*
X4634723Y-10561459D01*
X4620438Y-10532887D01*
X4620438Y-10447173D01*
X4634723Y-10418602D01*
X4649009Y-10404316D01*
X4677581Y-10390030D01*
X4720438Y-10390030D01*
X4749009Y-10404316D01*
X4763295Y-10418602D01*
X4777581Y-10447173D01*
X4777581Y-10532887D01*
X4763295Y-10561459D01*
X4749009Y-10575745D01*
X4720438Y-10590030D01*
X4677581Y-10590030D01*
X4949009Y-10590030D02*
X4920438Y-10575745D01*
X4906152Y-10547173D01*
X4906152Y-10290030D01*
X5177581Y-10575745D02*
X5149009Y-10590030D01*
X5091866Y-10590030D01*
X5063295Y-10575745D01*
X5049009Y-10547173D01*
X5049009Y-10432887D01*
X5063295Y-10404316D01*
X5091866Y-10390030D01*
X5149009Y-10390030D01*
X5177581Y-10404316D01*
X5191866Y-10432887D01*
X5191866Y-10461459D01*
X5049009Y-10490030D01*
X5306152Y-10575745D02*
X5334723Y-10590030D01*
X5391866Y-10590030D01*
X5420438Y-10575745D01*
X5434723Y-10547173D01*
X5434723Y-10532887D01*
X5420438Y-10504316D01*
X5391866Y-10490030D01*
X5349009Y-10490030D01*
X5320438Y-10475745D01*
X5306152Y-10447173D01*
X5306152Y-10432887D01*
X5320438Y-10404316D01*
X5349009Y-10390030D01*
X5391866Y-10390030D01*
X5420438Y-10404316D01*
X5534723Y-10704316D02*
X5549009Y-10690030D01*
X5577581Y-10647173D01*
X5591866Y-10618602D01*
X5606152Y-10575745D01*
X5620438Y-10504316D01*
X5620438Y-10447173D01*
X5606152Y-10375745D01*
X5591866Y-10332887D01*
X5577581Y-10304316D01*
X5549009Y-10261459D01*
X5534723Y-10247173D01*
X-1039205Y-10991816D02*
X-951705Y-10904316D01*
X-1039205Y-10816816D01*
X-1126705Y-10904316D01*
X-1039205Y-10991816D01*
X-508134Y-11040030D02*
X-679562Y-11040030D01*
X-593848Y-11040030D02*
X-593848Y-10740030D01*
X-622419Y-10782887D01*
X-650991Y-10811459D01*
X-679562Y-10825745D01*
X-379562Y-11011459D02*
X-365276Y-11025745D01*
X-379562Y-11040030D01*
X-393848Y-11025745D01*
X-379562Y-11011459D01*
X-379562Y-11040030D01*
X-265277Y-10740030D02*
X-65276Y-10740030D01*
X-193848Y-11040030D01*
X191866Y-10740030D02*
X49009Y-10740030D01*
X34723Y-10882887D01*
X49009Y-10868602D01*
X77581Y-10854316D01*
X149009Y-10854316D01*
X177581Y-10868602D01*
X191866Y-10882887D01*
X206152Y-10911459D01*
X206152Y-10982887D01*
X191866Y-11011459D01*
X177581Y-11025745D01*
X149009Y-11040030D01*
X77581Y-11040030D01*
X49009Y-11025745D01*
X34723Y-11011459D01*
X334723Y-11040030D02*
X334723Y-10840030D01*
X334723Y-10868602D02*
X349009Y-10854316D01*
X377581Y-10840030D01*
X420438Y-10840030D01*
X449009Y-10854316D01*
X463295Y-10882887D01*
X463295Y-11040030D01*
X463295Y-10882887D02*
X477581Y-10854316D01*
X506152Y-10840030D01*
X549009Y-10840030D01*
X577581Y-10854316D01*
X591866Y-10882887D01*
X591866Y-11040030D01*
X734723Y-11040030D02*
X734723Y-10840030D01*
X734723Y-10868602D02*
X749009Y-10854316D01*
X777581Y-10840030D01*
X820438Y-10840030D01*
X849009Y-10854316D01*
X863295Y-10882887D01*
X863295Y-11040030D01*
X863295Y-10882887D02*
X877581Y-10854316D01*
X906152Y-10840030D01*
X949009Y-10840030D01*
X977581Y-10854316D01*
X991866Y-10882887D01*
X991866Y-11040030D01*
X1577581Y-10725745D02*
X1320438Y-11111459D01*
X1963295Y-10740030D02*
X1991866Y-10740030D01*
X2020438Y-10754316D01*
X2034723Y-10768602D01*
X2049009Y-10797173D01*
X2063295Y-10854316D01*
X2063295Y-10925745D01*
X2049009Y-10982887D01*
X2034723Y-11011459D01*
X2020438Y-11025745D01*
X1991866Y-11040030D01*
X1963295Y-11040030D01*
X1934723Y-11025745D01*
X1920438Y-11011459D01*
X1906152Y-10982887D01*
X1891866Y-10925745D01*
X1891866Y-10854316D01*
X1906152Y-10797173D01*
X1920438Y-10768602D01*
X1934723Y-10754316D01*
X1963295Y-10740030D01*
X2191866Y-11011459D02*
X2206152Y-11025745D01*
X2191866Y-11040030D01*
X2177581Y-11025745D01*
X2191866Y-11011459D01*
X2191866Y-11040030D01*
X2391866Y-10740030D02*
X2420438Y-10740030D01*
X2449009Y-10754316D01*
X2463295Y-10768602D01*
X2477581Y-10797173D01*
X2491866Y-10854316D01*
X2491866Y-10925745D01*
X2477581Y-10982887D01*
X2463295Y-11011459D01*
X2449009Y-11025745D01*
X2420438Y-11040030D01*
X2391866Y-11040030D01*
X2363295Y-11025745D01*
X2349009Y-11011459D01*
X2334723Y-10982887D01*
X2320438Y-10925745D01*
X2320438Y-10854316D01*
X2334723Y-10797173D01*
X2349009Y-10768602D01*
X2363295Y-10754316D01*
X2391866Y-10740030D01*
X2749009Y-10740030D02*
X2691866Y-10740030D01*
X2663295Y-10754316D01*
X2649009Y-10768602D01*
X2620438Y-10811459D01*
X2606152Y-10868602D01*
X2606152Y-10982887D01*
X2620438Y-11011459D01*
X2634723Y-11025745D01*
X2663295Y-11040030D01*
X2720438Y-11040030D01*
X2749009Y-11025745D01*
X2763295Y-11011459D01*
X2777581Y-10982887D01*
X2777581Y-10911459D01*
X2763295Y-10882887D01*
X2749009Y-10868602D01*
X2720438Y-10854316D01*
X2663295Y-10854316D01*
X2634723Y-10868602D01*
X2620438Y-10882887D01*
X2606152Y-10911459D01*
X2920438Y-11040030D02*
X2977581Y-11040030D01*
X3006152Y-11025745D01*
X3020438Y-11011459D01*
X3049009Y-10968602D01*
X3063295Y-10911459D01*
X3063295Y-10797173D01*
X3049009Y-10768602D01*
X3034723Y-10754316D01*
X3006152Y-10740030D01*
X2949009Y-10740030D01*
X2920438Y-10754316D01*
X2906152Y-10768602D01*
X2891866Y-10797173D01*
X2891866Y-10868602D01*
X2906152Y-10897173D01*
X2920438Y-10911459D01*
X2949009Y-10925745D01*
X3006152Y-10925745D01*
X3034723Y-10911459D01*
X3049009Y-10897173D01*
X3063295Y-10868602D01*
X3177581Y-10740030D02*
X3177581Y-10797173D01*
X3291866Y-10740030D02*
X3291866Y-10797173D01*
X3734723Y-11154316D02*
X3720438Y-11140030D01*
X3691866Y-11097173D01*
X3677581Y-11068602D01*
X3663295Y-11025745D01*
X3649009Y-10954316D01*
X3649009Y-10897173D01*
X3663295Y-10825745D01*
X3677581Y-10782887D01*
X3691866Y-10754316D01*
X3720438Y-10711459D01*
X3734723Y-10697173D01*
X3820438Y-10740030D02*
X4020438Y-10740030D01*
X3891866Y-11040030D01*
X4120438Y-10768602D02*
X4134723Y-10754316D01*
X4163295Y-10740030D01*
X4234723Y-10740030D01*
X4263295Y-10754316D01*
X4277581Y-10768602D01*
X4291866Y-10797173D01*
X4291866Y-10825745D01*
X4277581Y-10868602D01*
X4106152Y-11040030D01*
X4291866Y-11040030D01*
X4649009Y-11040030D02*
X4649009Y-10740030D01*
X4777581Y-11040030D02*
X4777581Y-10882887D01*
X4763295Y-10854316D01*
X4734723Y-10840030D01*
X4691866Y-10840030D01*
X4663295Y-10854316D01*
X4649009Y-10868602D01*
X4963295Y-11040030D02*
X4934723Y-11025745D01*
X4920438Y-11011459D01*
X4906152Y-10982887D01*
X4906152Y-10897173D01*
X4920438Y-10868602D01*
X4934723Y-10854316D01*
X4963295Y-10840030D01*
X5006152Y-10840030D01*
X5034723Y-10854316D01*
X5049009Y-10868602D01*
X5063295Y-10897173D01*
X5063295Y-10982887D01*
X5049009Y-11011459D01*
X5034723Y-11025745D01*
X5006152Y-11040030D01*
X4963295Y-11040030D01*
X5234723Y-11040030D02*
X5206152Y-11025745D01*
X5191866Y-10997173D01*
X5191866Y-10740030D01*
X5463295Y-11025745D02*
X5434723Y-11040030D01*
X5377581Y-11040030D01*
X5349009Y-11025745D01*
X5334723Y-10997173D01*
X5334723Y-10882887D01*
X5349009Y-10854316D01*
X5377581Y-10840030D01*
X5434723Y-10840030D01*
X5463295Y-10854316D01*
X5477581Y-10882887D01*
X5477581Y-10911459D01*
X5334723Y-10940030D01*
X5591866Y-11025745D02*
X5620438Y-11040030D01*
X5677581Y-11040030D01*
X5706152Y-11025745D01*
X5720438Y-10997173D01*
X5720438Y-10982887D01*
X5706152Y-10954316D01*
X5677581Y-10940030D01*
X5634723Y-10940030D01*
X5606152Y-10925745D01*
X5591866Y-10897173D01*
X5591866Y-10882887D01*
X5606152Y-10854316D01*
X5634723Y-10840030D01*
X5677581Y-10840030D01*
X5706152Y-10854316D01*
X5820438Y-11154316D02*
X5834723Y-11140030D01*
X5863295Y-11097173D01*
X5877581Y-11068602D01*
X5891866Y-11025745D01*
X5906152Y-10954316D01*
X5906152Y-10897173D01*
X5891866Y-10825745D01*
X5877581Y-10782887D01*
X5863295Y-10754316D01*
X5834723Y-10711459D01*
X5820438Y-10697173D01*
X6363295Y-11154316D02*
X6349009Y-11140030D01*
X6320438Y-11097173D01*
X6306152Y-11068602D01*
X6291866Y-11025745D01*
X6277581Y-10954316D01*
X6277581Y-10897173D01*
X6291866Y-10825745D01*
X6306152Y-10782887D01*
X6320438Y-10754316D01*
X6349009Y-10711459D01*
X6363295Y-10697173D01*
X6477581Y-10840030D02*
X6477581Y-11040030D01*
X6477581Y-10868602D02*
X6491866Y-10854316D01*
X6520438Y-10840030D01*
X6563295Y-10840030D01*
X6591866Y-10854316D01*
X6606152Y-10882887D01*
X6606152Y-11040030D01*
X6791866Y-11040030D02*
X6763295Y-11025745D01*
X6749009Y-11011459D01*
X6734723Y-10982887D01*
X6734723Y-10897173D01*
X6749009Y-10868602D01*
X6763295Y-10854316D01*
X6791866Y-10840030D01*
X6834723Y-10840030D01*
X6863295Y-10854316D01*
X6877581Y-10868602D01*
X6891866Y-10897173D01*
X6891866Y-10982887D01*
X6877581Y-11011459D01*
X6863295Y-11025745D01*
X6834723Y-11040030D01*
X6791866Y-11040030D01*
X6977581Y-10840030D02*
X7091866Y-10840030D01*
X7020438Y-10740030D02*
X7020438Y-10997173D01*
X7034723Y-11025745D01*
X7063295Y-11040030D01*
X7091866Y-11040030D01*
X7420438Y-10840030D02*
X7420438Y-11140030D01*
X7420438Y-10854316D02*
X7449009Y-10840030D01*
X7506152Y-10840030D01*
X7534723Y-10854316D01*
X7549009Y-10868602D01*
X7563295Y-10897173D01*
X7563295Y-10982887D01*
X7549009Y-11011459D01*
X7534723Y-11025745D01*
X7506152Y-11040030D01*
X7449009Y-11040030D01*
X7420438Y-11025745D01*
X7734723Y-11040030D02*
X7706152Y-11025745D01*
X7691866Y-10997173D01*
X7691866Y-10740030D01*
X7977581Y-11040030D02*
X7977581Y-10882887D01*
X7963295Y-10854316D01*
X7934723Y-10840030D01*
X7877581Y-10840030D01*
X7849009Y-10854316D01*
X7977581Y-11025745D02*
X7949009Y-11040030D01*
X7877581Y-11040030D01*
X7849009Y-11025745D01*
X7834723Y-10997173D01*
X7834723Y-10968602D01*
X7849009Y-10940030D01*
X7877581Y-10925745D01*
X7949009Y-10925745D01*
X7977581Y-10911459D01*
X8077581Y-10840030D02*
X8191866Y-10840030D01*
X8120438Y-10740030D02*
X8120438Y-10997173D01*
X8134723Y-11025745D01*
X8163295Y-11040030D01*
X8191866Y-11040030D01*
X8406152Y-11025745D02*
X8377581Y-11040030D01*
X8320438Y-11040030D01*
X8291866Y-11025745D01*
X8277581Y-10997173D01*
X8277581Y-10882887D01*
X8291866Y-10854316D01*
X8320438Y-10840030D01*
X8377581Y-10840030D01*
X8406152Y-10854316D01*
X8420438Y-10882887D01*
X8420438Y-10911459D01*
X8277581Y-10940030D01*
X8677581Y-11040030D02*
X8677581Y-10740030D01*
X8677581Y-11025745D02*
X8649009Y-11040030D01*
X8591866Y-11040030D01*
X8563295Y-11025745D01*
X8549009Y-11011459D01*
X8534723Y-10982887D01*
X8534723Y-10897173D01*
X8549009Y-10868602D01*
X8563295Y-10854316D01*
X8591866Y-10840030D01*
X8649009Y-10840030D01*
X8677581Y-10854316D01*
X8791866Y-11154316D02*
X8806152Y-11140030D01*
X8834723Y-11097173D01*
X8849009Y-11068602D01*
X8863295Y-11025745D01*
X8877581Y-10954316D01*
X8877581Y-10897173D01*
X8863295Y-10825745D01*
X8849009Y-10782887D01*
X8834723Y-10754316D01*
X8806152Y-10711459D01*
X8791866Y-10697173D01*
X-1256505Y-11147916D02*
X-951705Y-11452716D01*
X-951705Y-11147916D02*
X-1256505Y-11452716D01*
X-951705Y-11300316D02*
G75*
G03*
X-951705Y-11300316I-152400J0D01*
G01*
X-693848Y-11136030D02*
X-508134Y-11136030D01*
X-608134Y-11250316D01*
X-565277Y-11250316D01*
X-536705Y-11264602D01*
X-522419Y-11278887D01*
X-508134Y-11307459D01*
X-508134Y-11378887D01*
X-522419Y-11407459D01*
X-536705Y-11421744D01*
X-565277Y-11436030D01*
X-650991Y-11436030D01*
X-679562Y-11421744D01*
X-693848Y-11407459D01*
X-379562Y-11407459D02*
X-365276Y-11421744D01*
X-379562Y-11436030D01*
X-393848Y-11421744D01*
X-379562Y-11407459D01*
X-379562Y-11436030D01*
X-179562Y-11136030D02*
X-150991Y-11136030D01*
X-122419Y-11150316D01*
X-108134Y-11164602D01*
X-93848Y-11193173D01*
X-79562Y-11250316D01*
X-79562Y-11321744D01*
X-93848Y-11378887D01*
X-108134Y-11407459D01*
X-122419Y-11421744D01*
X-150991Y-11436030D01*
X-179562Y-11436030D01*
X-208134Y-11421744D01*
X-222419Y-11407459D01*
X-236705Y-11378887D01*
X-250991Y-11321744D01*
X-250991Y-11250316D01*
X-236705Y-11193173D01*
X-222419Y-11164602D01*
X-208134Y-11150316D01*
X-179562Y-11136030D01*
X191866Y-11136030D02*
X49009Y-11136030D01*
X34723Y-11278887D01*
X49009Y-11264602D01*
X77581Y-11250316D01*
X149009Y-11250316D01*
X177581Y-11264602D01*
X191866Y-11278887D01*
X206152Y-11307459D01*
X206152Y-11378887D01*
X191866Y-11407459D01*
X177581Y-11421744D01*
X149009Y-11436030D01*
X77581Y-11436030D01*
X49009Y-11421744D01*
X34723Y-11407459D01*
X334723Y-11436030D02*
X334723Y-11236030D01*
X334723Y-11264602D02*
X349009Y-11250316D01*
X377581Y-11236030D01*
X420438Y-11236030D01*
X449009Y-11250316D01*
X463295Y-11278887D01*
X463295Y-11436030D01*
X463295Y-11278887D02*
X477581Y-11250316D01*
X506152Y-11236030D01*
X549009Y-11236030D01*
X577581Y-11250316D01*
X591866Y-11278887D01*
X591866Y-11436030D01*
X734723Y-11436030D02*
X734723Y-11236030D01*
X734723Y-11264602D02*
X749009Y-11250316D01*
X777581Y-11236030D01*
X820438Y-11236030D01*
X849009Y-11250316D01*
X863295Y-11278887D01*
X863295Y-11436030D01*
X863295Y-11278887D02*
X877581Y-11250316D01*
X906152Y-11236030D01*
X949009Y-11236030D01*
X977581Y-11250316D01*
X991866Y-11278887D01*
X991866Y-11436030D01*
X1577581Y-11121745D02*
X1320438Y-11507459D01*
X1963295Y-11136030D02*
X1991866Y-11136030D01*
X2020438Y-11150316D01*
X2034723Y-11164602D01*
X2049009Y-11193173D01*
X2063295Y-11250316D01*
X2063295Y-11321744D01*
X2049009Y-11378887D01*
X2034723Y-11407459D01*
X2020438Y-11421744D01*
X1991866Y-11436030D01*
X1963295Y-11436030D01*
X1934723Y-11421744D01*
X1920438Y-11407459D01*
X1906152Y-11378887D01*
X1891866Y-11321744D01*
X1891866Y-11250316D01*
X1906152Y-11193173D01*
X1920438Y-11164602D01*
X1934723Y-11150316D01*
X1963295Y-11136030D01*
X2191866Y-11407459D02*
X2206152Y-11421744D01*
X2191866Y-11436030D01*
X2177581Y-11421744D01*
X2191866Y-11407459D01*
X2191866Y-11436030D01*
X2491866Y-11436030D02*
X2320438Y-11436030D01*
X2406152Y-11436030D02*
X2406152Y-11136030D01*
X2377581Y-11178887D01*
X2349009Y-11207459D01*
X2320438Y-11221744D01*
X2606152Y-11164602D02*
X2620438Y-11150316D01*
X2649009Y-11136030D01*
X2720438Y-11136030D01*
X2749009Y-11150316D01*
X2763295Y-11164602D01*
X2777581Y-11193173D01*
X2777581Y-11221744D01*
X2763295Y-11264602D01*
X2591866Y-11436030D01*
X2777581Y-11436030D01*
X2963295Y-11136030D02*
X2991866Y-11136030D01*
X3020438Y-11150316D01*
X3034723Y-11164602D01*
X3049009Y-11193173D01*
X3063295Y-11250316D01*
X3063295Y-11321744D01*
X3049009Y-11378887D01*
X3034723Y-11407459D01*
X3020438Y-11421744D01*
X2991866Y-11436030D01*
X2963295Y-11436030D01*
X2934723Y-11421744D01*
X2920438Y-11407459D01*
X2906152Y-11378887D01*
X2891866Y-11321744D01*
X2891866Y-11250316D01*
X2906152Y-11193173D01*
X2920438Y-11164602D01*
X2934723Y-11150316D01*
X2963295Y-11136030D01*
X3177581Y-11136030D02*
X3177581Y-11193173D01*
X3291866Y-11136030D02*
X3291866Y-11193173D01*
X3734723Y-11550316D02*
X3720438Y-11536030D01*
X3691866Y-11493173D01*
X3677581Y-11464602D01*
X3663295Y-11421744D01*
X3649009Y-11350316D01*
X3649009Y-11293173D01*
X3663295Y-11221744D01*
X3677581Y-11178887D01*
X3691866Y-11150316D01*
X3720438Y-11107459D01*
X3734723Y-11093173D01*
X3891866Y-11264602D02*
X3863295Y-11250316D01*
X3849009Y-11236030D01*
X3834723Y-11207459D01*
X3834723Y-11193173D01*
X3849009Y-11164602D01*
X3863295Y-11150316D01*
X3891866Y-11136030D01*
X3949009Y-11136030D01*
X3977581Y-11150316D01*
X3991866Y-11164602D01*
X4006152Y-11193173D01*
X4006152Y-11207459D01*
X3991866Y-11236030D01*
X3977581Y-11250316D01*
X3949009Y-11264602D01*
X3891866Y-11264602D01*
X3863295Y-11278887D01*
X3849009Y-11293173D01*
X3834723Y-11321744D01*
X3834723Y-11378887D01*
X3849009Y-11407459D01*
X3863295Y-11421744D01*
X3891866Y-11436030D01*
X3949009Y-11436030D01*
X3977581Y-11421744D01*
X3991866Y-11407459D01*
X4006152Y-11378887D01*
X4006152Y-11321744D01*
X3991866Y-11293173D01*
X3977581Y-11278887D01*
X3949009Y-11264602D01*
X4363295Y-11436030D02*
X4363295Y-11136030D01*
X4491866Y-11436030D02*
X4491866Y-11278887D01*
X4477581Y-11250316D01*
X4449009Y-11236030D01*
X4406152Y-11236030D01*
X4377581Y-11250316D01*
X4363295Y-11264602D01*
X4677581Y-11436030D02*
X4649009Y-11421744D01*
X4634723Y-11407459D01*
X4620438Y-11378887D01*
X4620438Y-11293173D01*
X4634723Y-11264602D01*
X4649009Y-11250316D01*
X4677581Y-11236030D01*
X4720438Y-11236030D01*
X4749009Y-11250316D01*
X4763295Y-11264602D01*
X4777581Y-11293173D01*
X4777581Y-11378887D01*
X4763295Y-11407459D01*
X4749009Y-11421744D01*
X4720438Y-11436030D01*
X4677581Y-11436030D01*
X4949009Y-11436030D02*
X4920438Y-11421744D01*
X4906152Y-11393173D01*
X4906152Y-11136030D01*
X5177581Y-11421744D02*
X5149009Y-11436030D01*
X5091866Y-11436030D01*
X5063295Y-11421744D01*
X5049009Y-11393173D01*
X5049009Y-11278887D01*
X5063295Y-11250316D01*
X5091866Y-11236030D01*
X5149009Y-11236030D01*
X5177581Y-11250316D01*
X5191866Y-11278887D01*
X5191866Y-11307459D01*
X5049009Y-11336030D01*
X5306152Y-11421744D02*
X5334723Y-11436030D01*
X5391866Y-11436030D01*
X5420438Y-11421744D01*
X5434723Y-11393173D01*
X5434723Y-11378887D01*
X5420438Y-11350316D01*
X5391866Y-11336030D01*
X5349009Y-11336030D01*
X5320438Y-11321744D01*
X5306152Y-11293173D01*
X5306152Y-11278887D01*
X5320438Y-11250316D01*
X5349009Y-11236030D01*
X5391866Y-11236030D01*
X5420438Y-11250316D01*
X5534723Y-11550316D02*
X5549009Y-11536030D01*
X5577581Y-11493173D01*
X5591866Y-11464602D01*
X5606152Y-11421744D01*
X5620438Y-11350316D01*
X5620438Y-11293173D01*
X5606152Y-11221744D01*
X5591866Y-11178887D01*
X5577581Y-11150316D01*
X5549009Y-11107459D01*
X5534723Y-11093173D01*
X6077581Y-11550316D02*
X6063295Y-11536030D01*
X6034723Y-11493173D01*
X6020438Y-11464602D01*
X6006152Y-11421744D01*
X5991866Y-11350316D01*
X5991866Y-11293173D01*
X6006152Y-11221744D01*
X6020438Y-11178887D01*
X6034723Y-11150316D01*
X6063295Y-11107459D01*
X6077581Y-11093173D01*
X6191866Y-11236030D02*
X6191866Y-11436030D01*
X6191866Y-11264602D02*
X6206152Y-11250316D01*
X6234723Y-11236030D01*
X6277581Y-11236030D01*
X6306152Y-11250316D01*
X6320438Y-11278887D01*
X6320438Y-11436030D01*
X6506152Y-11436030D02*
X6477581Y-11421744D01*
X6463295Y-11407459D01*
X6449009Y-11378887D01*
X6449009Y-11293173D01*
X6463295Y-11264602D01*
X6477581Y-11250316D01*
X6506152Y-11236030D01*
X6549009Y-11236030D01*
X6577581Y-11250316D01*
X6591866Y-11264602D01*
X6606152Y-11293173D01*
X6606152Y-11378887D01*
X6591866Y-11407459D01*
X6577581Y-11421744D01*
X6549009Y-11436030D01*
X6506152Y-11436030D01*
X6691866Y-11236030D02*
X6806152Y-11236030D01*
X6734723Y-11136030D02*
X6734723Y-11393173D01*
X6749009Y-11421744D01*
X6777581Y-11436030D01*
X6806152Y-11436030D01*
X7134723Y-11236030D02*
X7134723Y-11536030D01*
X7134723Y-11250316D02*
X7163295Y-11236030D01*
X7220438Y-11236030D01*
X7249009Y-11250316D01*
X7263295Y-11264602D01*
X7277581Y-11293173D01*
X7277581Y-11378887D01*
X7263295Y-11407459D01*
X7249009Y-11421744D01*
X7220438Y-11436030D01*
X7163295Y-11436030D01*
X7134723Y-11421744D01*
X7449009Y-11436030D02*
X7420438Y-11421744D01*
X7406152Y-11393173D01*
X7406152Y-11136030D01*
X7691866Y-11436030D02*
X7691866Y-11278887D01*
X7677581Y-11250316D01*
X7649009Y-11236030D01*
X7591866Y-11236030D01*
X7563295Y-11250316D01*
X7691866Y-11421744D02*
X7663295Y-11436030D01*
X7591866Y-11436030D01*
X7563295Y-11421744D01*
X7549009Y-11393173D01*
X7549009Y-11364602D01*
X7563295Y-11336030D01*
X7591866Y-11321744D01*
X7663295Y-11321744D01*
X7691866Y-11307459D01*
X7791866Y-11236030D02*
X7906152Y-11236030D01*
X7834723Y-11136030D02*
X7834723Y-11393173D01*
X7849009Y-11421744D01*
X7877581Y-11436030D01*
X7906152Y-11436030D01*
X8120438Y-11421744D02*
X8091866Y-11436030D01*
X8034723Y-11436030D01*
X8006152Y-11421744D01*
X7991866Y-11393173D01*
X7991866Y-11278887D01*
X8006152Y-11250316D01*
X8034723Y-11236030D01*
X8091866Y-11236030D01*
X8120438Y-11250316D01*
X8134723Y-11278887D01*
X8134723Y-11307459D01*
X7991866Y-11336030D01*
X8391866Y-11436030D02*
X8391866Y-11136030D01*
X8391866Y-11421744D02*
X8363295Y-11436030D01*
X8306152Y-11436030D01*
X8277581Y-11421744D01*
X8263295Y-11407459D01*
X8249009Y-11378887D01*
X8249009Y-11293173D01*
X8263295Y-11264602D01*
X8277581Y-11250316D01*
X8306152Y-11236030D01*
X8363295Y-11236030D01*
X8391866Y-11250316D01*
X8506152Y-11550316D02*
X8520438Y-11536030D01*
X8549009Y-11493173D01*
X8563295Y-11464602D01*
X8577581Y-11421744D01*
X8591866Y-11350316D01*
X8591866Y-11293173D01*
X8577581Y-11221744D01*
X8563295Y-11178887D01*
X8549009Y-11150316D01*
X8520438Y-11107459D01*
X8506152Y-11093173D01*
X-1350485Y-11535726D02*
X-951705Y-11934506D01*
X-951705Y-11535726D02*
X-1350485Y-11934506D01*
X-1151095Y-11535726D02*
X-1151095Y-11934506D01*
X-1350485Y-11735116D02*
X-951705Y-11735116D01*
X-693848Y-11570830D02*
X-508134Y-11570830D01*
X-608134Y-11685116D01*
X-565277Y-11685116D01*
X-536705Y-11699402D01*
X-522419Y-11713687D01*
X-508134Y-11742259D01*
X-508134Y-11813687D01*
X-522419Y-11842259D01*
X-536705Y-11856544D01*
X-565277Y-11870830D01*
X-650991Y-11870830D01*
X-679562Y-11856544D01*
X-693848Y-11842259D01*
X-379562Y-11842259D02*
X-365276Y-11856544D01*
X-379562Y-11870830D01*
X-393848Y-11856544D01*
X-379562Y-11842259D01*
X-379562Y-11870830D01*
X-222419Y-11870830D02*
X-165277Y-11870830D01*
X-136705Y-11856544D01*
X-122419Y-11842259D01*
X-93848Y-11799402D01*
X-79562Y-11742259D01*
X-79562Y-11627973D01*
X-93848Y-11599402D01*
X-108134Y-11585116D01*
X-136705Y-11570830D01*
X-193848Y-11570830D01*
X-222419Y-11585116D01*
X-236705Y-11599402D01*
X-250991Y-11627973D01*
X-250991Y-11699402D01*
X-236705Y-11727973D01*
X-222419Y-11742259D01*
X-193848Y-11756544D01*
X-136705Y-11756544D01*
X-108134Y-11742259D01*
X-93848Y-11727973D01*
X-79562Y-11699402D01*
X63295Y-11870830D02*
X120438Y-11870830D01*
X149009Y-11856544D01*
X163295Y-11842259D01*
X191866Y-11799402D01*
X206152Y-11742259D01*
X206152Y-11627973D01*
X191866Y-11599402D01*
X177581Y-11585116D01*
X149009Y-11570830D01*
X91866Y-11570830D01*
X63295Y-11585116D01*
X49009Y-11599402D01*
X34723Y-11627973D01*
X34723Y-11699402D01*
X49009Y-11727973D01*
X63295Y-11742259D01*
X91866Y-11756544D01*
X149009Y-11756544D01*
X177581Y-11742259D01*
X191866Y-11727973D01*
X206152Y-11699402D01*
X334723Y-11870830D02*
X334723Y-11670830D01*
X334723Y-11699402D02*
X349009Y-11685116D01*
X377581Y-11670830D01*
X420438Y-11670830D01*
X449009Y-11685116D01*
X463295Y-11713687D01*
X463295Y-11870830D01*
X463295Y-11713687D02*
X477581Y-11685116D01*
X506152Y-11670830D01*
X549009Y-11670830D01*
X577581Y-11685116D01*
X591866Y-11713687D01*
X591866Y-11870830D01*
X734723Y-11870830D02*
X734723Y-11670830D01*
X734723Y-11699402D02*
X749009Y-11685116D01*
X777581Y-11670830D01*
X820438Y-11670830D01*
X849009Y-11685116D01*
X863295Y-11713687D01*
X863295Y-11870830D01*
X863295Y-11713687D02*
X877581Y-11685116D01*
X906152Y-11670830D01*
X949009Y-11670830D01*
X977581Y-11685116D01*
X991866Y-11713687D01*
X991866Y-11870830D01*
X1577581Y-11556544D02*
X1320438Y-11942259D01*
X1963295Y-11570830D02*
X1991866Y-11570830D01*
X2020438Y-11585116D01*
X2034723Y-11599402D01*
X2049009Y-11627973D01*
X2063295Y-11685116D01*
X2063295Y-11756544D01*
X2049009Y-11813687D01*
X2034723Y-11842259D01*
X2020438Y-11856544D01*
X1991866Y-11870830D01*
X1963295Y-11870830D01*
X1934723Y-11856544D01*
X1920438Y-11842259D01*
X1906152Y-11813687D01*
X1891866Y-11756544D01*
X1891866Y-11685116D01*
X1906152Y-11627973D01*
X1920438Y-11599402D01*
X1934723Y-11585116D01*
X1963295Y-11570830D01*
X2191866Y-11842259D02*
X2206152Y-11856544D01*
X2191866Y-11870830D01*
X2177581Y-11856544D01*
X2191866Y-11842259D01*
X2191866Y-11870830D01*
X2491866Y-11870830D02*
X2320438Y-11870830D01*
X2406152Y-11870830D02*
X2406152Y-11570830D01*
X2377581Y-11613687D01*
X2349009Y-11642259D01*
X2320438Y-11656544D01*
X2763295Y-11570830D02*
X2620438Y-11570830D01*
X2606152Y-11713687D01*
X2620438Y-11699402D01*
X2649009Y-11685116D01*
X2720438Y-11685116D01*
X2749009Y-11699402D01*
X2763295Y-11713687D01*
X2777581Y-11742259D01*
X2777581Y-11813687D01*
X2763295Y-11842259D01*
X2749009Y-11856544D01*
X2720438Y-11870830D01*
X2649009Y-11870830D01*
X2620438Y-11856544D01*
X2606152Y-11842259D01*
X2877581Y-11570830D02*
X3077581Y-11570830D01*
X2949009Y-11870830D01*
X3177581Y-11570830D02*
X3177581Y-11627973D01*
X3291866Y-11570830D02*
X3291866Y-11627973D01*
X3734723Y-11985116D02*
X3720438Y-11970830D01*
X3691866Y-11927973D01*
X3677581Y-11899402D01*
X3663295Y-11856544D01*
X3649009Y-11785116D01*
X3649009Y-11727973D01*
X3663295Y-11656544D01*
X3677581Y-11613687D01*
X3691866Y-11585116D01*
X3720438Y-11542259D01*
X3734723Y-11527973D01*
X3977581Y-11670830D02*
X3977581Y-11870830D01*
X3906152Y-11556544D02*
X3834723Y-11770830D01*
X4020438Y-11770830D01*
X4263295Y-11670830D02*
X4263295Y-11870830D01*
X4191866Y-11556544D02*
X4120438Y-11770830D01*
X4306152Y-11770830D01*
X4649009Y-11870830D02*
X4649009Y-11570830D01*
X4777581Y-11870830D02*
X4777581Y-11713687D01*
X4763295Y-11685116D01*
X4734723Y-11670830D01*
X4691866Y-11670830D01*
X4663295Y-11685116D01*
X4649009Y-11699402D01*
X4963295Y-11870830D02*
X4934723Y-11856544D01*
X4920438Y-11842259D01*
X4906152Y-11813687D01*
X4906152Y-11727973D01*
X4920438Y-11699402D01*
X4934723Y-11685116D01*
X4963295Y-11670830D01*
X5006152Y-11670830D01*
X5034723Y-11685116D01*
X5049009Y-11699402D01*
X5063295Y-11727973D01*
X5063295Y-11813687D01*
X5049009Y-11842259D01*
X5034723Y-11856544D01*
X5006152Y-11870830D01*
X4963295Y-11870830D01*
X5234723Y-11870830D02*
X5206152Y-11856544D01*
X5191866Y-11827973D01*
X5191866Y-11570830D01*
X5463295Y-11856544D02*
X5434723Y-11870830D01*
X5377581Y-11870830D01*
X5349009Y-11856544D01*
X5334723Y-11827973D01*
X5334723Y-11713687D01*
X5349009Y-11685116D01*
X5377581Y-11670830D01*
X5434723Y-11670830D01*
X5463295Y-11685116D01*
X5477581Y-11713687D01*
X5477581Y-11742259D01*
X5334723Y-11770830D01*
X5591866Y-11856544D02*
X5620438Y-11870830D01*
X5677581Y-11870830D01*
X5706152Y-11856544D01*
X5720438Y-11827973D01*
X5720438Y-11813687D01*
X5706152Y-11785116D01*
X5677581Y-11770830D01*
X5634723Y-11770830D01*
X5606152Y-11756544D01*
X5591866Y-11727973D01*
X5591866Y-11713687D01*
X5606152Y-11685116D01*
X5634723Y-11670830D01*
X5677581Y-11670830D01*
X5706152Y-11685116D01*
X5820438Y-11985116D02*
X5834723Y-11970830D01*
X5863295Y-11927973D01*
X5877581Y-11899402D01*
X5891866Y-11856544D01*
X5906152Y-11785116D01*
X5906152Y-11727973D01*
X5891866Y-11656544D01*
X5877581Y-11613687D01*
X5863295Y-11585116D01*
X5834723Y-11542259D01*
X5820438Y-11527973D01*
X6363295Y-11985116D02*
X6349009Y-11970830D01*
X6320438Y-11927973D01*
X6306152Y-11899402D01*
X6291866Y-11856544D01*
X6277581Y-11785116D01*
X6277581Y-11727973D01*
X6291866Y-11656544D01*
X6306152Y-11613687D01*
X6320438Y-11585116D01*
X6349009Y-11542259D01*
X6363295Y-11527973D01*
X6477581Y-11670830D02*
X6477581Y-11870830D01*
X6477581Y-11699402D02*
X6491866Y-11685116D01*
X6520438Y-11670830D01*
X6563295Y-11670830D01*
X6591866Y-11685116D01*
X6606152Y-11713687D01*
X6606152Y-11870830D01*
X6791866Y-11870830D02*
X6763295Y-11856544D01*
X6749009Y-11842259D01*
X6734723Y-11813687D01*
X6734723Y-11727973D01*
X6749009Y-11699402D01*
X6763295Y-11685116D01*
X6791866Y-11670830D01*
X6834723Y-11670830D01*
X6863295Y-11685116D01*
X6877581Y-11699402D01*
X6891866Y-11727973D01*
X6891866Y-11813687D01*
X6877581Y-11842259D01*
X6863295Y-11856544D01*
X6834723Y-11870830D01*
X6791866Y-11870830D01*
X6977581Y-11670830D02*
X7091866Y-11670830D01*
X7020438Y-11570830D02*
X7020438Y-11827973D01*
X7034723Y-11856544D01*
X7063295Y-11870830D01*
X7091866Y-11870830D01*
X7420438Y-11670830D02*
X7420438Y-11970830D01*
X7420438Y-11685116D02*
X7449009Y-11670830D01*
X7506152Y-11670830D01*
X7534723Y-11685116D01*
X7549009Y-11699402D01*
X7563295Y-11727973D01*
X7563295Y-11813687D01*
X7549009Y-11842259D01*
X7534723Y-11856544D01*
X7506152Y-11870830D01*
X7449009Y-11870830D01*
X7420438Y-11856544D01*
X7734723Y-11870830D02*
X7706152Y-11856544D01*
X7691866Y-11827973D01*
X7691866Y-11570830D01*
X7977581Y-11870830D02*
X7977581Y-11713687D01*
X7963295Y-11685116D01*
X7934723Y-11670830D01*
X7877581Y-11670830D01*
X7849009Y-11685116D01*
X7977581Y-11856544D02*
X7949009Y-11870830D01*
X7877581Y-11870830D01*
X7849009Y-11856544D01*
X7834723Y-11827973D01*
X7834723Y-11799402D01*
X7849009Y-11770830D01*
X7877581Y-11756544D01*
X7949009Y-11756544D01*
X7977581Y-11742259D01*
X8077581Y-11670830D02*
X8191866Y-11670830D01*
X8120438Y-11570830D02*
X8120438Y-11827973D01*
X8134723Y-11856544D01*
X8163295Y-11870830D01*
X8191866Y-11870830D01*
X8406152Y-11856544D02*
X8377581Y-11870830D01*
X8320438Y-11870830D01*
X8291866Y-11856544D01*
X8277581Y-11827973D01*
X8277581Y-11713687D01*
X8291866Y-11685116D01*
X8320438Y-11670830D01*
X8377581Y-11670830D01*
X8406152Y-11685116D01*
X8420438Y-11713687D01*
X8420438Y-11742259D01*
X8277581Y-11770830D01*
X8677581Y-11870830D02*
X8677581Y-11570830D01*
X8677581Y-11856544D02*
X8649009Y-11870830D01*
X8591866Y-11870830D01*
X8563295Y-11856544D01*
X8549009Y-11842259D01*
X8534723Y-11813687D01*
X8534723Y-11727973D01*
X8549009Y-11699402D01*
X8563295Y-11685116D01*
X8591866Y-11670830D01*
X8649009Y-11670830D01*
X8677581Y-11685116D01*
X8791866Y-11985116D02*
X8806152Y-11970830D01*
X8834723Y-11927973D01*
X8849009Y-11899402D01*
X8863295Y-11856544D01*
X8877581Y-11785116D01*
X8877581Y-11727973D01*
X8863295Y-11656544D01*
X8849009Y-11613687D01*
X8834723Y-11585116D01*
X8806152Y-11542259D01*
X8791866Y-11527973D01*
M02*
