G04 #@! TF.GenerationSoftware,KiCad,Pcbnew,(5.1.9)-1*
G04 #@! TF.CreationDate,2021-12-01T20:16:17-08:00*
G04 #@! TF.ProjectId,Isola_v2,49736f6c-615f-4763-922e-6b696361645f,rev?*
G04 #@! TF.SameCoordinates,Original*
G04 #@! TF.FileFunction,Soldermask,Bot*
G04 #@! TF.FilePolarity,Negative*
%FSLAX46Y46*%
G04 Gerber Fmt 4.6, Leading zero omitted, Abs format (unit mm)*
G04 Created by KiCad (PCBNEW (5.1.9)-1) date 2021-12-01 20:16:17*
%MOMM*%
%LPD*%
G01*
G04 APERTURE LIST*
%ADD10C,1.752600*%
%ADD11R,1.752600X1.752600*%
%ADD12C,2.250000*%
%ADD13C,3.987800*%
%ADD14C,1.750000*%
%ADD15R,1.397000X1.600000*%
%ADD16C,3.048000*%
%ADD17C,5.600000*%
G04 APERTURE END LIST*
D10*
X93345000Y457200D03*
X78105000Y-27482800D03*
X93345000Y-2082800D03*
X93345000Y-4622800D03*
X93345000Y-7162800D03*
X93345000Y-9702800D03*
X93345000Y-12242800D03*
X93345000Y-14782800D03*
X93345000Y-17322800D03*
X93345000Y-19862800D03*
X93345000Y-22402800D03*
X93345000Y-24942800D03*
X93345000Y-27482800D03*
X78105000Y-24942800D03*
X78105000Y-22402800D03*
X78105000Y-19862800D03*
X78105000Y-17322800D03*
X78105000Y-14782800D03*
X78105000Y-12242800D03*
X78105000Y-9702800D03*
X78105000Y-7162800D03*
X78105000Y-4622800D03*
X78105000Y-2082800D03*
D11*
X78105000Y457200D03*
D12*
X178752500Y-66357500D03*
D13*
X176212500Y-71437500D03*
D12*
X172402500Y-68897500D03*
D14*
X171132500Y-71437500D03*
X181292500Y-71437500D03*
D12*
X26352500Y-66357500D03*
D13*
X23812500Y-71437500D03*
D12*
X20002500Y-68897500D03*
D14*
X18732500Y-71437500D03*
X28892500Y-71437500D03*
D12*
X88265000Y-4445000D03*
D13*
X85725000Y-9525000D03*
D12*
X81915000Y-6985000D03*
D14*
X80645000Y-9525000D03*
X90805000Y-9525000D03*
D12*
X12065000Y-4445000D03*
D13*
X9525000Y-9525000D03*
D12*
X5715000Y-6985000D03*
D14*
X4445000Y-9525000D03*
X14605000Y-9525000D03*
D12*
X31115000Y-4445000D03*
D13*
X28575000Y-9525000D03*
D12*
X24765000Y-6985000D03*
D14*
X23495000Y-9525000D03*
X33655000Y-9525000D03*
D12*
X50165000Y-4445000D03*
D13*
X47625000Y-9525000D03*
D12*
X43815000Y-6985000D03*
D14*
X42545000Y-9525000D03*
X52705000Y-9525000D03*
D12*
X69215000Y-4445000D03*
D13*
X66675000Y-9525000D03*
D12*
X62865000Y-6985000D03*
D14*
X61595000Y-9525000D03*
X71755000Y-9525000D03*
D12*
X107315000Y-4445000D03*
D13*
X104775000Y-9525000D03*
D12*
X100965000Y-6985000D03*
D14*
X99695000Y-9525000D03*
X109855000Y-9525000D03*
D12*
X126365000Y-4445000D03*
D13*
X123825000Y-9525000D03*
D12*
X120015000Y-6985000D03*
D14*
X118745000Y-9525000D03*
X128905000Y-9525000D03*
D12*
X145415000Y-4445000D03*
D13*
X142875000Y-9525000D03*
D12*
X139065000Y-6985000D03*
D14*
X137795000Y-9525000D03*
X147955000Y-9525000D03*
D12*
X164465000Y-4445000D03*
D13*
X161925000Y-9525000D03*
D12*
X158115000Y-6985000D03*
D14*
X156845000Y-9525000D03*
X167005000Y-9525000D03*
D12*
X12065000Y-23495000D03*
D13*
X9525000Y-28575000D03*
D12*
X5715000Y-26035000D03*
D14*
X4445000Y-28575000D03*
X14605000Y-28575000D03*
D12*
X31115000Y-23495000D03*
D13*
X28575000Y-28575000D03*
D12*
X24765000Y-26035000D03*
D14*
X23495000Y-28575000D03*
X33655000Y-28575000D03*
D12*
X50165000Y-23495000D03*
D13*
X47625000Y-28575000D03*
D12*
X43815000Y-26035000D03*
D14*
X42545000Y-28575000D03*
X52705000Y-28575000D03*
D12*
X69215000Y-23495000D03*
D13*
X66675000Y-28575000D03*
D12*
X62865000Y-26035000D03*
D14*
X61595000Y-28575000D03*
X71755000Y-28575000D03*
D12*
X88265000Y-23495000D03*
D13*
X85725000Y-28575000D03*
D12*
X81915000Y-26035000D03*
D14*
X80645000Y-28575000D03*
X90805000Y-28575000D03*
D12*
X107315000Y-23495000D03*
D13*
X104775000Y-28575000D03*
D12*
X100965000Y-26035000D03*
D14*
X99695000Y-28575000D03*
X109855000Y-28575000D03*
D12*
X126365000Y-23495000D03*
D13*
X123825000Y-28575000D03*
D12*
X120015000Y-26035000D03*
D14*
X118745000Y-28575000D03*
X128905000Y-28575000D03*
D12*
X145415000Y-23495000D03*
D13*
X142875000Y-28575000D03*
D12*
X139065000Y-26035000D03*
D14*
X137795000Y-28575000D03*
X147955000Y-28575000D03*
D12*
X21590000Y-42545000D03*
D13*
X19050000Y-47625000D03*
D12*
X15240000Y-45085000D03*
D14*
X13970000Y-47625000D03*
X24130000Y-47625000D03*
D12*
X40640000Y-42545000D03*
D13*
X38100000Y-47625000D03*
D12*
X34290000Y-45085000D03*
D14*
X33020000Y-47625000D03*
X43180000Y-47625000D03*
D12*
X59690000Y-42545000D03*
D13*
X57150000Y-47625000D03*
D12*
X53340000Y-45085000D03*
D14*
X52070000Y-47625000D03*
X62230000Y-47625000D03*
D12*
X78740000Y-42545000D03*
D13*
X76200000Y-47625000D03*
D12*
X72390000Y-45085000D03*
D14*
X71120000Y-47625000D03*
X81280000Y-47625000D03*
D12*
X97790000Y-42545000D03*
D13*
X95250000Y-47625000D03*
D12*
X91440000Y-45085000D03*
D14*
X90170000Y-47625000D03*
X100330000Y-47625000D03*
D12*
X116840000Y-42545000D03*
D13*
X114300000Y-47625000D03*
D12*
X110490000Y-45085000D03*
D14*
X109220000Y-47625000D03*
X119380000Y-47625000D03*
D12*
X135890000Y-42545000D03*
D13*
X133350000Y-47625000D03*
D12*
X129540000Y-45085000D03*
D14*
X128270000Y-47625000D03*
X138430000Y-47625000D03*
D12*
X154940000Y-42545000D03*
D13*
X152400000Y-47625000D03*
D12*
X148590000Y-45085000D03*
D14*
X147320000Y-47625000D03*
X157480000Y-47625000D03*
D12*
X173990000Y-42545000D03*
D13*
X171450000Y-47625000D03*
D12*
X167640000Y-45085000D03*
D14*
X166370000Y-47625000D03*
X176530000Y-47625000D03*
D12*
X173990000Y-66370200D03*
D13*
X171450000Y-71450200D03*
D12*
X167640000Y-68910200D03*
D14*
X166370000Y-71450200D03*
X176530000Y-71450200D03*
D12*
X31115000Y-66319400D03*
D13*
X28575000Y-71399400D03*
D12*
X24765000Y-68859400D03*
D14*
X23495000Y-71399400D03*
X33655000Y-71399400D03*
D12*
X190658750Y-4445000D03*
D13*
X188118750Y-9525000D03*
D12*
X184308750Y-6985000D03*
D14*
X183038750Y-9525000D03*
X193198750Y-9525000D03*
D12*
X166846250Y-23495000D03*
D13*
X164306250Y-28575000D03*
D12*
X160496250Y-26035000D03*
D14*
X159226250Y-28575000D03*
X169386250Y-28575000D03*
D10*
X3750000Y-1041400D03*
X1270000Y-1041400D03*
X179000000Y-28000000D03*
X179000000Y-25000000D03*
X179000000Y-22000000D03*
D15*
X184683400Y-71853600D03*
X184683400Y-74653600D03*
X114071400Y-71858300D03*
X114071400Y-74658300D03*
X140589000Y-71853600D03*
X140589000Y-74653600D03*
X58420000Y-14721000D03*
X58420000Y-17521000D03*
X19015200Y-14721000D03*
X19015200Y-17521000D03*
X36642800Y-14721000D03*
X36642800Y-17521000D03*
X39542800Y-14721000D03*
X39542800Y-17521000D03*
X112852200Y-14721000D03*
X112852200Y-17521000D03*
X115773200Y-14721000D03*
X115773200Y-17521000D03*
X133315200Y-14721000D03*
X133315200Y-17521000D03*
X152365200Y-14721000D03*
X152365200Y-17521000D03*
X171415200Y-14721000D03*
X171415200Y-17521000D03*
X202000000Y-14721000D03*
X202000000Y-17521000D03*
X19015200Y-33618600D03*
X19015200Y-36418600D03*
X38065200Y-33618600D03*
X38065200Y-36418600D03*
X57200800Y-33618600D03*
X57200800Y-36418600D03*
X76250800Y-33618600D03*
X76250800Y-36418600D03*
X95173800Y-33618600D03*
X95173800Y-36418600D03*
X114265200Y-33618600D03*
X114265200Y-36418600D03*
X133315200Y-33618600D03*
X133315200Y-36418600D03*
X152365200Y-33618600D03*
X152365200Y-36418600D03*
X176177700Y-33618600D03*
X176177700Y-36418600D03*
X202000000Y-33618600D03*
X202000000Y-36418600D03*
X28540200Y-51424000D03*
X28540200Y-54224000D03*
X47590200Y-51424000D03*
X47590200Y-54224000D03*
X66640200Y-51424000D03*
X66640200Y-54224000D03*
X85690200Y-51424000D03*
X85690200Y-54224000D03*
X104740200Y-51424000D03*
X104740200Y-54224000D03*
X123790200Y-51424000D03*
X123790200Y-54224000D03*
X142840200Y-51424000D03*
X142840200Y-54224000D03*
X161890200Y-51424000D03*
X161890200Y-54224000D03*
X179781200Y-51406600D03*
X179781200Y-54206600D03*
X37109400Y-71853600D03*
X37109400Y-74653600D03*
X59486800Y-71853600D03*
X59486800Y-74653600D03*
D12*
X197967600Y-40640000D03*
D13*
X192887600Y-38100000D03*
D12*
X195427600Y-34290000D03*
D14*
X192887600Y-33020000D03*
X192887600Y-43180000D03*
D16*
X199872600Y-50038000D03*
X199872600Y-26162000D03*
D13*
X184632600Y-50038000D03*
X184632600Y-26162000D03*
D12*
X131089400Y-66319400D03*
X124739400Y-68859400D03*
D13*
X128549400Y-71399400D03*
D14*
X123469400Y-71399400D03*
X133629400Y-71399400D03*
D16*
X109499400Y-78384400D03*
X147599400Y-78384400D03*
D13*
X109499400Y-63144400D03*
X147599400Y-63144400D03*
D12*
X73939400Y-66319400D03*
X67589400Y-68859400D03*
D13*
X71399400Y-71399400D03*
D14*
X66319400Y-71399400D03*
X76479400Y-71399400D03*
D16*
X52349400Y-78384400D03*
X90449400Y-78384400D03*
D13*
X52349400Y-63144400D03*
X90449400Y-63144400D03*
D12*
X102552500Y-66357500D03*
D13*
X100012500Y-71437500D03*
D12*
X96202500Y-68897500D03*
D14*
X94932500Y-71437500D03*
X105092500Y-71437500D03*
D16*
X42862500Y-78422500D03*
X157162500Y-78422500D03*
D13*
X42862500Y-63182500D03*
X157162500Y-63182500D03*
D17*
X-4356250Y-2000000D03*
X202000000Y-2000000D03*
X7000000Y-61899800D03*
X192000000Y-61925200D03*
M02*
