G04 #@! TF.GenerationSoftware,KiCad,Pcbnew,(5.1.9)-1*
G04 #@! TF.CreationDate,2021-12-01T20:16:17-08:00*
G04 #@! TF.ProjectId,Isola_v2,49736f6c-615f-4763-922e-6b696361645f,rev?*
G04 #@! TF.SameCoordinates,Original*
G04 #@! TF.FileFunction,Profile,NP*
%FSLAX46Y46*%
G04 Gerber Fmt 4.6, Leading zero omitted, Abs format (unit mm)*
G04 Created by KiCad (PCBNEW (5.1.9)-1) date 2021-12-01 20:16:17*
%MOMM*%
%LPD*%
G01*
G04 APERTURE LIST*
G04 #@! TA.AperFunction,Profile*
%ADD10C,0.200000*%
G04 #@! TD*
G04 APERTURE END LIST*
D10*
X11347876Y-82963159D02*
X-9417050Y-57784998D01*
X-9417050Y2115032D02*
X-9417050Y-57784998D01*
X207060800Y-57785000D02*
X188797971Y-82963158D01*
X-9417050Y2115032D02*
X-2206343Y2115032D01*
X-2206343Y2115032D02*
X4961909Y2115032D01*
X4961909Y2115032D02*
X12089077Y2115032D01*
X12089077Y2115032D02*
X19176530Y2115032D01*
X19176530Y2115032D02*
X26225637Y2115032D01*
X26225637Y2115032D02*
X33237768Y2115032D01*
X33237768Y2115032D02*
X40214293Y2115032D01*
X40214293Y2115032D02*
X47156580Y2115032D01*
X47156580Y2115032D02*
X54066000Y2115032D01*
X54066000Y2115032D02*
X60943921Y2115032D01*
X60943921Y2115032D02*
X67791712Y2115032D01*
X67791712Y2115032D02*
X74610745Y2115032D01*
X74610745Y2115032D02*
X81402387Y2115032D01*
X81402387Y2115032D02*
X88168008Y2115032D01*
X88168008Y2115032D02*
X94908978Y2115032D01*
X94908978Y2115032D02*
X101626667Y2115032D01*
X101626667Y2115032D02*
X108322443Y2115032D01*
X108322443Y2115032D02*
X114997675Y2115032D01*
X114997675Y2115032D02*
X121653735Y2115032D01*
X121653735Y2115032D02*
X128291990Y2115032D01*
X128291990Y2115032D02*
X134913810Y2115032D01*
X134913810Y2115032D02*
X141520565Y2115032D01*
X141520565Y2115032D02*
X148113624Y2115032D01*
X148113624Y2115032D02*
X154694357Y2115032D01*
X154694357Y2115032D02*
X161264133Y2115032D01*
X161264133Y2115032D02*
X167824321Y2115032D01*
X167824321Y2115032D02*
X174376291Y2115032D01*
X174376291Y2115032D02*
X180921413Y2115032D01*
X180921413Y2115032D02*
X187461055Y2115032D01*
X187461055Y2115032D02*
X193996587Y2115032D01*
X193996587Y2115032D02*
X200529379Y2115032D01*
X200529379Y2115032D02*
X207060800Y2115032D01*
X11347876Y-82963159D02*
X16893215Y-82963158D01*
X16893215Y-82963158D02*
X22438553Y-82963158D01*
X22438553Y-82963158D02*
X27983889Y-82963158D01*
X27983889Y-82963158D02*
X33529223Y-82963158D01*
X33529223Y-82963158D02*
X39074556Y-82963158D01*
X39074556Y-82963158D02*
X44619888Y-82963158D01*
X44619888Y-82963158D02*
X50165218Y-82963158D01*
X50165218Y-82963158D02*
X55710546Y-82963158D01*
X55710546Y-82963158D02*
X61255873Y-82963158D01*
X61255873Y-82963158D02*
X66801199Y-82963158D01*
X66801199Y-82963158D02*
X72346523Y-82963158D01*
X72346523Y-82963158D02*
X77891845Y-82963158D01*
X77891845Y-82963158D02*
X83437166Y-82963158D01*
X83437166Y-82963158D02*
X88982485Y-82963158D01*
X88982485Y-82963158D02*
X94527803Y-82963158D01*
X94527803Y-82963158D02*
X100073119Y-82963158D01*
X100073119Y-82963158D02*
X105618433Y-82963158D01*
X105618433Y-82963158D02*
X111163747Y-82963158D01*
X111163747Y-82963158D02*
X116709058Y-82963158D01*
X116709058Y-82963158D02*
X122254368Y-82963158D01*
X122254368Y-82963158D02*
X127799677Y-82963158D01*
X127799677Y-82963158D02*
X133344984Y-82963158D01*
X133344984Y-82963158D02*
X138890289Y-82963158D01*
X138890289Y-82963158D02*
X144435593Y-82963158D01*
X144435593Y-82963158D02*
X149980896Y-82963158D01*
X149980896Y-82963158D02*
X155526197Y-82963158D01*
X155526197Y-82963158D02*
X161071496Y-82963158D01*
X161071496Y-82963158D02*
X166616794Y-82963158D01*
X166616794Y-82963158D02*
X172162090Y-82963158D01*
X172162090Y-82963158D02*
X177707385Y-82963158D01*
X177707385Y-82963158D02*
X183252679Y-82963158D01*
X183252679Y-82963158D02*
X188797971Y-82963158D01*
X207060800Y-57784998D02*
X207060800Y-55913146D01*
X207060800Y-55913146D02*
X207060800Y-54041292D01*
X207060800Y-54041292D02*
X207060800Y-52169437D01*
X207060800Y-52169437D02*
X207060800Y-50297581D01*
X207060800Y-50297581D02*
X207060800Y-48425723D01*
X207060800Y-48425723D02*
X207060800Y-46553863D01*
X207060800Y-46553863D02*
X207060800Y-44682002D01*
X207060800Y-44682002D02*
X207060800Y-42810139D01*
X207060800Y-42810139D02*
X207060800Y-40938275D01*
X207060800Y-40938275D02*
X207060800Y-39066409D01*
X207060800Y-39066409D02*
X207060800Y-37194542D01*
X207060800Y-37194542D02*
X207060800Y-35322673D01*
X207060800Y-35322673D02*
X207060800Y-33450802D01*
X207060800Y-33450802D02*
X207060800Y-31578930D01*
X207060800Y-31578930D02*
X207060800Y-29707057D01*
X207060800Y-29707057D02*
X207060800Y-27835182D01*
X207060800Y-27835182D02*
X207060800Y-25963305D01*
X207060800Y-25963305D02*
X207060800Y-24091427D01*
X207060800Y-24091427D02*
X207060800Y-22219547D01*
X207060800Y-22219547D02*
X207060800Y-20347665D01*
X207060800Y-20347665D02*
X207060800Y-18475782D01*
X207060800Y-18475782D02*
X207060800Y-16603898D01*
X207060800Y-16603898D02*
X207060800Y-14732012D01*
X207060800Y-14732012D02*
X207060800Y-12860124D01*
X207060800Y-12860124D02*
X207060800Y-10988235D01*
X207060800Y-10988235D02*
X207060800Y-9116344D01*
X207060800Y-9116344D02*
X207060800Y-7244452D01*
X207060800Y-7244452D02*
X207060800Y-5372558D01*
X207060800Y-5372558D02*
X207060800Y-3500663D01*
X207060800Y-3500663D02*
X207060800Y-1628766D01*
X207060800Y-1628766D02*
X207060800Y243131D01*
X207060800Y243131D02*
X207060800Y2115032D01*
M02*
