M48
; DRILL file {KiCad (5.1.9)-1} date 12/01/21 20:16:33
; FORMAT={-:-/ absolute / metric / decimal}
; #@! TF.CreationDate,2021-12-01T20:16:33-08:00
; #@! TF.GenerationSoftware,Kicad,Pcbnew,(5.1.9)-1
FMAT,2
METRIC
T1C0.400
T2C1.092
T3C1.470
T4C3.200
T5C1.750
T6C3.048
T7C3.988
%
G90
G05
T1
X173.025Y-3.708
X175.006Y-3.708
T2
X1.27Y-1.041
X3.75Y-1.041
X78.105Y0.457
X78.105Y-2.083
X78.105Y-4.623
X78.105Y-7.163
X78.105Y-9.703
X78.105Y-12.243
X78.105Y-14.783
X78.105Y-17.323
X78.105Y-19.863
X78.105Y-22.403
X78.105Y-24.943
X78.105Y-27.483
X93.345Y0.457
X93.345Y-2.083
X93.345Y-4.623
X93.345Y-7.163
X93.345Y-9.703
X93.345Y-12.243
X93.345Y-14.783
X93.345Y-17.323
X93.345Y-19.863
X93.345Y-22.403
X93.345Y-24.943
X93.345Y-27.483
X179.0Y-22.0
X179.0Y-25.0
X179.0Y-28.0
T3
X5.715Y-6.985
X5.715Y-26.035
X12.065Y-4.445
X12.065Y-23.495
X15.24Y-45.085
X20.002Y-68.897
X21.59Y-42.545
X24.765Y-6.985
X24.765Y-26.035
X24.765Y-68.859
X26.352Y-66.358
X31.115Y-4.445
X31.115Y-23.495
X31.115Y-66.319
X34.29Y-45.085
X40.64Y-42.545
X43.815Y-6.985
X43.815Y-26.035
X50.165Y-4.445
X50.165Y-23.495
X53.34Y-45.085
X59.69Y-42.545
X62.865Y-6.985
X62.865Y-26.035
X67.589Y-68.859
X69.215Y-4.445
X69.215Y-23.495
X72.39Y-45.085
X73.939Y-66.319
X78.74Y-42.545
X81.915Y-6.985
X81.915Y-26.035
X88.265Y-4.445
X88.265Y-23.495
X91.44Y-45.085
X96.203Y-68.897
X97.79Y-42.545
X100.965Y-6.985
X100.965Y-26.035
X102.552Y-66.358
X107.315Y-4.445
X107.315Y-23.495
X110.49Y-45.085
X116.84Y-42.545
X120.015Y-6.985
X120.015Y-26.035
X124.739Y-68.859
X126.365Y-4.445
X126.365Y-23.495
X129.54Y-45.085
X131.089Y-66.319
X135.89Y-42.545
X139.065Y-6.985
X139.065Y-26.035
X145.415Y-4.445
X145.415Y-23.495
X148.59Y-45.085
X154.94Y-42.545
X158.115Y-6.985
X160.496Y-26.035
X164.465Y-4.445
X166.846Y-23.495
X167.64Y-45.085
X167.64Y-68.91
X172.403Y-68.897
X173.99Y-42.545
X173.99Y-66.37
X178.752Y-66.358
X184.309Y-6.985
X190.659Y-4.445
X195.428Y-34.29
X197.968Y-40.64
T4
X-4.356Y-2.0
X7.0Y-61.9
X192.0Y-61.925
X202.0Y-2.0
T5
X4.445Y-9.525
X4.445Y-28.575
X13.97Y-47.625
X14.605Y-9.525
X14.605Y-28.575
X18.732Y-71.438
X23.495Y-9.525
X23.495Y-28.575
X23.495Y-71.399
X24.13Y-47.625
X28.892Y-71.438
X33.02Y-47.625
X33.655Y-9.525
X33.655Y-28.575
X33.655Y-71.399
X42.545Y-9.525
X42.545Y-28.575
X43.18Y-47.625
X52.07Y-47.625
X52.705Y-9.525
X52.705Y-28.575
X61.595Y-9.525
X61.595Y-28.575
X62.23Y-47.625
X66.319Y-71.399
X71.12Y-47.625
X71.755Y-9.525
X71.755Y-28.575
X76.479Y-71.399
X80.645Y-9.525
X80.645Y-28.575
X81.28Y-47.625
X90.17Y-47.625
X90.805Y-9.525
X90.805Y-28.575
X94.932Y-71.438
X99.695Y-9.525
X99.695Y-28.575
X100.33Y-47.625
X105.093Y-71.438
X109.22Y-47.625
X109.855Y-9.525
X109.855Y-28.575
X118.745Y-9.525
X118.745Y-28.575
X119.38Y-47.625
X123.469Y-71.399
X128.27Y-47.625
X128.905Y-9.525
X128.905Y-28.575
X133.629Y-71.399
X137.795Y-9.525
X137.795Y-28.575
X138.43Y-47.625
X147.32Y-47.625
X147.955Y-9.525
X147.955Y-28.575
X156.845Y-9.525
X157.48Y-47.625
X159.226Y-28.575
X166.37Y-47.625
X166.37Y-71.45
X167.005Y-9.525
X169.386Y-28.575
X171.132Y-71.438
X176.53Y-47.625
X176.53Y-71.45
X181.292Y-71.438
X183.039Y-9.525
X192.888Y-33.02
X192.888Y-43.18
X193.199Y-9.525
T6
X42.862Y-78.422
X52.349Y-78.384
X90.449Y-78.384
X109.499Y-78.384
X147.599Y-78.384
X157.162Y-78.422
X199.873Y-26.162
X199.873Y-50.038
T7
X9.525Y-9.525
X9.525Y-28.575
X19.05Y-47.625
X23.812Y-71.438
X28.575Y-9.525
X28.575Y-28.575
X28.575Y-71.399
X38.1Y-47.625
X42.862Y-63.182
X47.625Y-9.525
X47.625Y-28.575
X52.349Y-63.144
X57.15Y-47.625
X66.675Y-9.525
X66.675Y-28.575
X71.399Y-71.399
X76.2Y-47.625
X85.725Y-9.525
X85.725Y-28.575
X90.449Y-63.144
X95.25Y-47.625
X100.012Y-71.438
X104.775Y-9.525
X104.775Y-28.575
X109.499Y-63.144
X114.3Y-47.625
X123.825Y-9.525
X123.825Y-28.575
X128.549Y-71.399
X133.35Y-47.625
X142.875Y-9.525
X142.875Y-28.575
X147.599Y-63.144
X152.4Y-47.625
X157.162Y-63.182
X161.925Y-9.525
X164.306Y-28.575
X171.45Y-47.625
X171.45Y-71.45
X176.213Y-71.438
X184.633Y-26.162
X184.633Y-50.038
X188.119Y-9.525
X192.888Y-38.1
T0
M30
