G04 #@! TF.GenerationSoftware,KiCad,Pcbnew,(5.1.9)-1*
G04 #@! TF.CreationDate,2021-12-01T20:16:17-08:00*
G04 #@! TF.ProjectId,Isola_v2,49736f6c-615f-4763-922e-6b696361645f,rev?*
G04 #@! TF.SameCoordinates,Original*
G04 #@! TF.FileFunction,Legend,Bot*
G04 #@! TF.FilePolarity,Positive*
%FSLAX46Y46*%
G04 Gerber Fmt 4.6, Leading zero omitted, Abs format (unit mm)*
G04 Created by KiCad (PCBNEW (5.1.9)-1) date 2021-12-01 20:16:17*
%MOMM*%
%LPD*%
G01*
G04 APERTURE LIST*
%ADD10C,0.300000*%
%ADD11C,0.200000*%
%ADD12C,0.150000*%
G04 APERTURE END LIST*
D10*
X186950657Y-79642171D02*
X186950657Y-78142171D01*
X186307800Y-79570742D02*
X186164942Y-79642171D01*
X185879228Y-79642171D01*
X185736371Y-79570742D01*
X185664942Y-79427885D01*
X185664942Y-79356457D01*
X185736371Y-79213600D01*
X185879228Y-79142171D01*
X186093514Y-79142171D01*
X186236371Y-79070742D01*
X186307800Y-78927885D01*
X186307800Y-78856457D01*
X186236371Y-78713600D01*
X186093514Y-78642171D01*
X185879228Y-78642171D01*
X185736371Y-78713600D01*
X184807800Y-79642171D02*
X184950657Y-79570742D01*
X185022085Y-79499314D01*
X185093514Y-79356457D01*
X185093514Y-78927885D01*
X185022085Y-78785028D01*
X184950657Y-78713600D01*
X184807800Y-78642171D01*
X184593514Y-78642171D01*
X184450657Y-78713600D01*
X184379228Y-78785028D01*
X184307800Y-78927885D01*
X184307800Y-79356457D01*
X184379228Y-79499314D01*
X184450657Y-79570742D01*
X184593514Y-79642171D01*
X184807800Y-79642171D01*
X183450657Y-79642171D02*
X183593514Y-79570742D01*
X183664942Y-79427885D01*
X183664942Y-78142171D01*
X182236371Y-79642171D02*
X182236371Y-78856457D01*
X182307800Y-78713600D01*
X182450657Y-78642171D01*
X182736371Y-78642171D01*
X182879228Y-78713600D01*
X182236371Y-79570742D02*
X182379228Y-79642171D01*
X182736371Y-79642171D01*
X182879228Y-79570742D01*
X182950657Y-79427885D01*
X182950657Y-79285028D01*
X182879228Y-79142171D01*
X182736371Y-79070742D01*
X182379228Y-79070742D01*
X182236371Y-78999314D01*
X180522085Y-78642171D02*
X180164942Y-79642171D01*
X179807800Y-78642171D01*
X179307800Y-78285028D02*
X179236371Y-78213600D01*
X179093514Y-78142171D01*
X178736371Y-78142171D01*
X178593514Y-78213600D01*
X178522085Y-78285028D01*
X178450657Y-78427885D01*
X178450657Y-78570742D01*
X178522085Y-78785028D01*
X179379228Y-79642171D01*
X178450657Y-79642171D01*
X177807800Y-79499314D02*
X177736371Y-79570742D01*
X177807800Y-79642171D01*
X177879228Y-79570742D01*
X177807800Y-79499314D01*
X177807800Y-79642171D01*
X176807800Y-78142171D02*
X176664942Y-78142171D01*
X176522085Y-78213600D01*
X176450657Y-78285028D01*
X176379228Y-78427885D01*
X176307800Y-78713600D01*
X176307800Y-79070742D01*
X176379228Y-79356457D01*
X176450657Y-79499314D01*
X176522085Y-79570742D01*
X176664942Y-79642171D01*
X176807800Y-79642171D01*
X176950657Y-79570742D01*
X177022085Y-79499314D01*
X177093514Y-79356457D01*
X177164942Y-79070742D01*
X177164942Y-78713600D01*
X177093514Y-78427885D01*
X177022085Y-78285028D01*
X176950657Y-78213600D01*
X176807800Y-78142171D01*
X174522085Y-79642171D02*
X174522085Y-78142171D01*
X174522085Y-78713600D02*
X174379228Y-78642171D01*
X174093514Y-78642171D01*
X173950657Y-78713600D01*
X173879228Y-78785028D01*
X173807800Y-78927885D01*
X173807800Y-79356457D01*
X173879228Y-79499314D01*
X173950657Y-79570742D01*
X174093514Y-79642171D01*
X174379228Y-79642171D01*
X174522085Y-79570742D01*
X173307800Y-78642171D02*
X172950657Y-79642171D01*
X172593514Y-78642171D02*
X172950657Y-79642171D01*
X173093514Y-79999314D01*
X173164942Y-80070742D01*
X173307800Y-80142171D01*
X170593514Y-78142171D02*
X170307800Y-78142171D01*
X170164942Y-78213600D01*
X170022085Y-78356457D01*
X169950657Y-78642171D01*
X169950657Y-79142171D01*
X170022085Y-79427885D01*
X170164942Y-79570742D01*
X170307800Y-79642171D01*
X170593514Y-79642171D01*
X170736371Y-79570742D01*
X170879228Y-79427885D01*
X170950657Y-79142171D01*
X170950657Y-78642171D01*
X170879228Y-78356457D01*
X170736371Y-78213600D01*
X170593514Y-78142171D01*
X169522085Y-78142171D02*
X168664942Y-78142171D01*
X169093514Y-79642171D02*
X169093514Y-78142171D01*
X168379228Y-78142171D02*
X167522085Y-78142171D01*
X167950657Y-79642171D02*
X167950657Y-78142171D01*
X167022085Y-79642171D02*
X167022085Y-78142171D01*
X166307800Y-79642171D02*
X166307800Y-78142171D01*
X165807800Y-79213600D01*
X165307800Y-78142171D01*
X165307800Y-79642171D01*
X164307800Y-78142171D02*
X164022085Y-78142171D01*
X163879228Y-78213600D01*
X163736371Y-78356457D01*
X163664942Y-78642171D01*
X163664942Y-79142171D01*
X163736371Y-79427885D01*
X163879228Y-79570742D01*
X164022085Y-79642171D01*
X164307800Y-79642171D01*
X164450657Y-79570742D01*
X164593514Y-79427885D01*
X164664942Y-79142171D01*
X164664942Y-78642171D01*
X164593514Y-78356457D01*
X164450657Y-78213600D01*
X164307800Y-78142171D01*
X186950657Y-81406457D02*
X186450657Y-81406457D01*
X186236371Y-82192171D02*
X186950657Y-82192171D01*
X186950657Y-80692171D01*
X186236371Y-80692171D01*
X185736371Y-81192171D02*
X185379228Y-82192171D01*
X185022085Y-81192171D01*
X183879228Y-82120742D02*
X184022085Y-82192171D01*
X184307800Y-82192171D01*
X184450657Y-82120742D01*
X184522085Y-81977885D01*
X184522085Y-81406457D01*
X184450657Y-81263600D01*
X184307800Y-81192171D01*
X184022085Y-81192171D01*
X183879228Y-81263600D01*
X183807800Y-81406457D01*
X183807800Y-81549314D01*
X184522085Y-81692171D01*
X183164942Y-82192171D02*
X183164942Y-81192171D01*
X183164942Y-81477885D02*
X183093514Y-81335028D01*
X183022085Y-81263600D01*
X182879228Y-81192171D01*
X182736371Y-81192171D01*
X182379228Y-81192171D02*
X182022085Y-82192171D01*
X181664942Y-81192171D02*
X182022085Y-82192171D01*
X182164942Y-82549314D01*
X182236371Y-82620742D01*
X182379228Y-82692171D01*
X181307800Y-81192171D02*
X180736371Y-81192171D01*
X181093514Y-80692171D02*
X181093514Y-81977885D01*
X181022085Y-82120742D01*
X180879228Y-82192171D01*
X180736371Y-82192171D01*
X180236371Y-82192171D02*
X180236371Y-80692171D01*
X179593514Y-82192171D02*
X179593514Y-81406457D01*
X179664942Y-81263600D01*
X179807800Y-81192171D01*
X180022085Y-81192171D01*
X180164942Y-81263600D01*
X180236371Y-81335028D01*
X178879228Y-82192171D02*
X178879228Y-81192171D01*
X178879228Y-80692171D02*
X178950657Y-80763600D01*
X178879228Y-80835028D01*
X178807800Y-80763600D01*
X178879228Y-80692171D01*
X178879228Y-80835028D01*
X178164942Y-81192171D02*
X178164942Y-82192171D01*
X178164942Y-81335028D02*
X178093514Y-81263600D01*
X177950657Y-81192171D01*
X177736371Y-81192171D01*
X177593514Y-81263600D01*
X177522085Y-81406457D01*
X177522085Y-82192171D01*
X176164942Y-81192171D02*
X176164942Y-82406457D01*
X176236371Y-82549314D01*
X176307800Y-82620742D01*
X176450657Y-82692171D01*
X176664942Y-82692171D01*
X176807800Y-82620742D01*
X176164942Y-82120742D02*
X176307800Y-82192171D01*
X176593514Y-82192171D01*
X176736371Y-82120742D01*
X176807800Y-82049314D01*
X176879228Y-81906457D01*
X176879228Y-81477885D01*
X176807800Y-81335028D01*
X176736371Y-81263600D01*
X176593514Y-81192171D01*
X176307800Y-81192171D01*
X176164942Y-81263600D01*
X174450657Y-81192171D02*
X174093514Y-82192171D01*
X173736371Y-81192171D02*
X174093514Y-82192171D01*
X174236371Y-82549314D01*
X174307800Y-82620742D01*
X174450657Y-82692171D01*
X172950657Y-82192171D02*
X173093514Y-82120742D01*
X173164942Y-82049314D01*
X173236371Y-81906457D01*
X173236371Y-81477885D01*
X173164942Y-81335028D01*
X173093514Y-81263600D01*
X172950657Y-81192171D01*
X172736371Y-81192171D01*
X172593514Y-81263600D01*
X172522085Y-81335028D01*
X172450657Y-81477885D01*
X172450657Y-81906457D01*
X172522085Y-82049314D01*
X172593514Y-82120742D01*
X172736371Y-82192171D01*
X172950657Y-82192171D01*
X171164942Y-81192171D02*
X171164942Y-82192171D01*
X171807800Y-81192171D02*
X171807800Y-81977885D01*
X171736371Y-82120742D01*
X171593514Y-82192171D01*
X171379228Y-82192171D01*
X171236371Y-82120742D01*
X171164942Y-82049314D01*
X169307800Y-81192171D02*
X169307800Y-82192171D01*
X169307800Y-81335028D02*
X169236371Y-81263600D01*
X169093514Y-81192171D01*
X168879228Y-81192171D01*
X168736371Y-81263600D01*
X168664942Y-81406457D01*
X168664942Y-82192171D01*
X167379228Y-82120742D02*
X167522085Y-82192171D01*
X167807800Y-82192171D01*
X167950657Y-82120742D01*
X168022085Y-81977885D01*
X168022085Y-81406457D01*
X167950657Y-81263600D01*
X167807800Y-81192171D01*
X167522085Y-81192171D01*
X167379228Y-81263600D01*
X167307800Y-81406457D01*
X167307800Y-81549314D01*
X168022085Y-81692171D01*
X166093514Y-82120742D02*
X166236371Y-82192171D01*
X166522085Y-82192171D01*
X166664942Y-82120742D01*
X166736371Y-81977885D01*
X166736371Y-81406457D01*
X166664942Y-81263600D01*
X166522085Y-81192171D01*
X166236371Y-81192171D01*
X166093514Y-81263600D01*
X166022085Y-81406457D01*
X166022085Y-81549314D01*
X166736371Y-81692171D01*
X164736371Y-82192171D02*
X164736371Y-80692171D01*
X164736371Y-82120742D02*
X164879228Y-82192171D01*
X165164942Y-82192171D01*
X165307800Y-82120742D01*
X165379228Y-82049314D01*
X165450657Y-81906457D01*
X165450657Y-81477885D01*
X165379228Y-81335028D01*
X165307800Y-81263600D01*
X165164942Y-81192171D01*
X164879228Y-81192171D01*
X164736371Y-81263600D01*
X163093514Y-81192171D02*
X162522085Y-81192171D01*
X162879228Y-80692171D02*
X162879228Y-81977885D01*
X162807800Y-82120742D01*
X162664942Y-82192171D01*
X162522085Y-82192171D01*
X161807800Y-82192171D02*
X161950657Y-82120742D01*
X162022085Y-82049314D01*
X162093514Y-81906457D01*
X162093514Y-81477885D01*
X162022085Y-81335028D01*
X161950657Y-81263600D01*
X161807800Y-81192171D01*
X161593514Y-81192171D01*
X161450657Y-81263600D01*
X161379228Y-81335028D01*
X161307800Y-81477885D01*
X161307800Y-81906457D01*
X161379228Y-82049314D01*
X161450657Y-82120742D01*
X161593514Y-82192171D01*
X161807800Y-82192171D01*
X159522085Y-82192171D02*
X159522085Y-80692171D01*
X159379228Y-81620742D02*
X158950657Y-82192171D01*
X158950657Y-81192171D02*
X159522085Y-81763600D01*
X158307800Y-82192171D02*
X158307800Y-81192171D01*
X158307800Y-80692171D02*
X158379228Y-80763600D01*
X158307800Y-80835028D01*
X158236371Y-80763600D01*
X158307800Y-80692171D01*
X158307800Y-80835028D01*
X156950657Y-82120742D02*
X157093514Y-82192171D01*
X157379228Y-82192171D01*
X157522085Y-82120742D01*
X157593514Y-82049314D01*
X157664942Y-81906457D01*
X157664942Y-81477885D01*
X157593514Y-81335028D01*
X157522085Y-81263600D01*
X157379228Y-81192171D01*
X157093514Y-81192171D01*
X156950657Y-81263600D01*
X156307800Y-82192171D02*
X156307800Y-80692171D01*
X156164942Y-81620742D02*
X155736371Y-82192171D01*
X155736371Y-81192171D02*
X156307800Y-81763600D01*
X153950657Y-82192171D02*
X153950657Y-80692171D01*
X153950657Y-81263600D02*
X153807800Y-81192171D01*
X153522085Y-81192171D01*
X153379228Y-81263600D01*
X153307800Y-81335028D01*
X153236371Y-81477885D01*
X153236371Y-81906457D01*
X153307800Y-82049314D01*
X153379228Y-82120742D01*
X153522085Y-82192171D01*
X153807800Y-82192171D01*
X153950657Y-82120742D01*
X151950657Y-82192171D02*
X151950657Y-81406457D01*
X152022085Y-81263600D01*
X152164942Y-81192171D01*
X152450657Y-81192171D01*
X152593514Y-81263600D01*
X151950657Y-82120742D02*
X152093514Y-82192171D01*
X152450657Y-82192171D01*
X152593514Y-82120742D01*
X152664942Y-81977885D01*
X152664942Y-81835028D01*
X152593514Y-81692171D01*
X152450657Y-81620742D01*
X152093514Y-81620742D01*
X151950657Y-81549314D01*
X150593514Y-82120742D02*
X150736371Y-82192171D01*
X151022085Y-82192171D01*
X151164942Y-82120742D01*
X151236371Y-82049314D01*
X151307800Y-81906457D01*
X151307800Y-81477885D01*
X151236371Y-81335028D01*
X151164942Y-81263600D01*
X151022085Y-81192171D01*
X150736371Y-81192171D01*
X150593514Y-81263600D01*
X149950657Y-82192171D02*
X149950657Y-80692171D01*
X149807800Y-81620742D02*
X149379228Y-82192171D01*
X149379228Y-81192171D02*
X149950657Y-81763600D01*
X146950657Y-82192171D02*
X146950657Y-81406457D01*
X147022085Y-81263600D01*
X147164942Y-81192171D01*
X147450657Y-81192171D01*
X147593514Y-81263600D01*
X146950657Y-82120742D02*
X147093514Y-82192171D01*
X147450657Y-82192171D01*
X147593514Y-82120742D01*
X147664942Y-81977885D01*
X147664942Y-81835028D01*
X147593514Y-81692171D01*
X147450657Y-81620742D01*
X147093514Y-81620742D01*
X146950657Y-81549314D01*
X146236371Y-81192171D02*
X146236371Y-82192171D01*
X146236371Y-81335028D02*
X146164942Y-81263600D01*
X146022085Y-81192171D01*
X145807800Y-81192171D01*
X145664942Y-81263600D01*
X145593514Y-81406457D01*
X145593514Y-82192171D01*
X144236371Y-82192171D02*
X144236371Y-80692171D01*
X144236371Y-82120742D02*
X144379228Y-82192171D01*
X144664942Y-82192171D01*
X144807800Y-82120742D01*
X144879228Y-82049314D01*
X144950657Y-81906457D01*
X144950657Y-81477885D01*
X144879228Y-81335028D01*
X144807800Y-81263600D01*
X144664942Y-81192171D01*
X144379228Y-81192171D01*
X144236371Y-81263600D01*
X141736371Y-82120742D02*
X141879228Y-82192171D01*
X142164942Y-82192171D01*
X142307800Y-82120742D01*
X142379228Y-82049314D01*
X142450657Y-81906457D01*
X142450657Y-81477885D01*
X142379228Y-81335028D01*
X142307800Y-81263600D01*
X142164942Y-81192171D01*
X141879228Y-81192171D01*
X141736371Y-81263600D01*
X141093514Y-82192171D02*
X141093514Y-80692171D01*
X140450657Y-82192171D02*
X140450657Y-81406457D01*
X140522085Y-81263600D01*
X140664942Y-81192171D01*
X140879228Y-81192171D01*
X141022085Y-81263600D01*
X141093514Y-81335028D01*
X139736371Y-82192171D02*
X139736371Y-81192171D01*
X139736371Y-80692171D02*
X139807800Y-80763600D01*
X139736371Y-80835028D01*
X139664942Y-80763600D01*
X139736371Y-80692171D01*
X139736371Y-80835028D01*
X138807800Y-82192171D02*
X138950657Y-82120742D01*
X139022085Y-81977885D01*
X139022085Y-80692171D01*
X138022085Y-82192171D02*
X138164942Y-82120742D01*
X138236371Y-81977885D01*
X138236371Y-80692171D01*
X136093514Y-82192171D02*
X136236371Y-82120742D01*
X136307800Y-82049314D01*
X136379228Y-81906457D01*
X136379228Y-81477885D01*
X136307800Y-81335028D01*
X136236371Y-81263600D01*
X136093514Y-81192171D01*
X135879228Y-81192171D01*
X135736371Y-81263600D01*
X135664942Y-81335028D01*
X135593514Y-81477885D01*
X135593514Y-81906457D01*
X135664942Y-82049314D01*
X135736371Y-82120742D01*
X135879228Y-82192171D01*
X136093514Y-82192171D01*
X134307800Y-81192171D02*
X134307800Y-82192171D01*
X134950657Y-81192171D02*
X134950657Y-81977885D01*
X134879228Y-82120742D01*
X134736371Y-82192171D01*
X134522085Y-82192171D01*
X134379228Y-82120742D01*
X134307800Y-82049314D01*
X133807800Y-81192171D02*
X133236371Y-81192171D01*
X133593514Y-80692171D02*
X133593514Y-81977885D01*
X133522085Y-82120742D01*
X133379228Y-82192171D01*
X133236371Y-82192171D01*
X132736371Y-82049314D02*
X132664942Y-82120742D01*
X132736371Y-82192171D01*
X132807800Y-82120742D01*
X132736371Y-82049314D01*
X132736371Y-82192171D01*
X132736371Y-81263600D02*
X132664942Y-81335028D01*
X132736371Y-81406457D01*
X132807800Y-81335028D01*
X132736371Y-81263600D01*
X132736371Y-81406457D01*
X130236371Y-82192171D02*
X130236371Y-81406457D01*
X130307800Y-81263600D01*
X130450657Y-81192171D01*
X130736371Y-81192171D01*
X130879228Y-81263600D01*
X130236371Y-82120742D02*
X130379228Y-82192171D01*
X130736371Y-82192171D01*
X130879228Y-82120742D01*
X130950657Y-81977885D01*
X130950657Y-81835028D01*
X130879228Y-81692171D01*
X130736371Y-81620742D01*
X130379228Y-81620742D01*
X130236371Y-81549314D01*
X129307800Y-82192171D02*
X129450657Y-82120742D01*
X129522085Y-81977885D01*
X129522085Y-80692171D01*
X128736371Y-81192171D02*
X128736371Y-82692171D01*
X128736371Y-81263600D02*
X128593514Y-81192171D01*
X128307800Y-81192171D01*
X128164942Y-81263600D01*
X128093514Y-81335028D01*
X128022085Y-81477885D01*
X128022085Y-81906457D01*
X128093514Y-82049314D01*
X128164942Y-82120742D01*
X128307800Y-82192171D01*
X128593514Y-82192171D01*
X128736371Y-82120742D01*
X127379228Y-82192171D02*
X127379228Y-80692171D01*
X126736371Y-82192171D02*
X126736371Y-81406457D01*
X126807800Y-81263600D01*
X126950657Y-81192171D01*
X127164942Y-81192171D01*
X127307800Y-81263600D01*
X127379228Y-81335028D01*
X125379228Y-82192171D02*
X125379228Y-81406457D01*
X125450657Y-81263600D01*
X125593514Y-81192171D01*
X125879228Y-81192171D01*
X126022085Y-81263600D01*
X125379228Y-82120742D02*
X125522085Y-82192171D01*
X125879228Y-82192171D01*
X126022085Y-82120742D01*
X126093514Y-81977885D01*
X126093514Y-81835028D01*
X126022085Y-81692171D01*
X125879228Y-81620742D01*
X125522085Y-81620742D01*
X125379228Y-81549314D01*
X123593514Y-82120742D02*
X123450657Y-82192171D01*
X123164942Y-82192171D01*
X123022085Y-82120742D01*
X122950657Y-81977885D01*
X122950657Y-81906457D01*
X123022085Y-81763600D01*
X123164942Y-81692171D01*
X123379228Y-81692171D01*
X123522085Y-81620742D01*
X123593514Y-81477885D01*
X123593514Y-81406457D01*
X123522085Y-81263600D01*
X123379228Y-81192171D01*
X123164942Y-81192171D01*
X123022085Y-81263600D01*
X122522085Y-81192171D02*
X121950657Y-81192171D01*
X122307800Y-80692171D02*
X122307800Y-81977885D01*
X122236371Y-82120742D01*
X122093514Y-82192171D01*
X121950657Y-82192171D01*
X120807800Y-82192171D02*
X120807800Y-81406457D01*
X120879228Y-81263600D01*
X121022085Y-81192171D01*
X121307800Y-81192171D01*
X121450657Y-81263600D01*
X120807800Y-82120742D02*
X120950657Y-82192171D01*
X121307800Y-82192171D01*
X121450657Y-82120742D01*
X121522085Y-81977885D01*
X121522085Y-81835028D01*
X121450657Y-81692171D01*
X121307800Y-81620742D01*
X120950657Y-81620742D01*
X120807800Y-81549314D01*
X119450657Y-81192171D02*
X119450657Y-82406457D01*
X119522085Y-82549314D01*
X119593514Y-82620742D01*
X119736371Y-82692171D01*
X119950657Y-82692171D01*
X120093514Y-82620742D01*
X119450657Y-82120742D02*
X119593514Y-82192171D01*
X119879228Y-82192171D01*
X120022085Y-82120742D01*
X120093514Y-82049314D01*
X120164942Y-81906457D01*
X120164942Y-81477885D01*
X120093514Y-81335028D01*
X120022085Y-81263600D01*
X119879228Y-81192171D01*
X119593514Y-81192171D01*
X119450657Y-81263600D01*
X118093514Y-81192171D02*
X118093514Y-82406457D01*
X118164942Y-82549314D01*
X118236371Y-82620742D01*
X118379228Y-82692171D01*
X118593514Y-82692171D01*
X118736371Y-82620742D01*
X118093514Y-82120742D02*
X118236371Y-82192171D01*
X118522085Y-82192171D01*
X118664942Y-82120742D01*
X118736371Y-82049314D01*
X118807800Y-81906457D01*
X118807800Y-81477885D01*
X118736371Y-81335028D01*
X118664942Y-81263600D01*
X118522085Y-81192171D01*
X118236371Y-81192171D01*
X118093514Y-81263600D01*
X116807800Y-82120742D02*
X116950657Y-82192171D01*
X117236371Y-82192171D01*
X117379228Y-82120742D01*
X117450657Y-81977885D01*
X117450657Y-81406457D01*
X117379228Y-81263600D01*
X117236371Y-81192171D01*
X116950657Y-81192171D01*
X116807800Y-81263600D01*
X116736371Y-81406457D01*
X116736371Y-81549314D01*
X117450657Y-81692171D01*
X116093514Y-82192171D02*
X116093514Y-81192171D01*
X116093514Y-81477885D02*
X116022085Y-81335028D01*
X115950657Y-81263600D01*
X115807800Y-81192171D01*
X115664942Y-81192171D01*
X115093514Y-82120742D02*
X115093514Y-82192171D01*
X115164942Y-82335028D01*
X115236371Y-82406457D01*
X113307800Y-82192171D02*
X113307800Y-80692171D01*
X112664942Y-82120742D02*
X112450657Y-82192171D01*
X112093514Y-82192171D01*
X111950657Y-82120742D01*
X111879228Y-82049314D01*
X111807800Y-81906457D01*
X111807800Y-81763600D01*
X111879228Y-81620742D01*
X111950657Y-81549314D01*
X112093514Y-81477885D01*
X112379228Y-81406457D01*
X112522085Y-81335028D01*
X112593514Y-81263600D01*
X112664942Y-81120742D01*
X112664942Y-80977885D01*
X112593514Y-80835028D01*
X112522085Y-80763600D01*
X112379228Y-80692171D01*
X112022085Y-80692171D01*
X111807800Y-80763600D01*
X110879228Y-80692171D02*
X110593514Y-80692171D01*
X110450657Y-80763600D01*
X110307800Y-80906457D01*
X110236371Y-81192171D01*
X110236371Y-81692171D01*
X110307800Y-81977885D01*
X110450657Y-82120742D01*
X110593514Y-82192171D01*
X110879228Y-82192171D01*
X111022085Y-82120742D01*
X111164942Y-81977885D01*
X111236371Y-81692171D01*
X111236371Y-81192171D01*
X111164942Y-80906457D01*
X111022085Y-80763600D01*
X110879228Y-80692171D01*
X109522085Y-82120742D02*
X109522085Y-82192171D01*
X109593514Y-82335028D01*
X109664942Y-82406457D01*
X107736371Y-81192171D02*
X107736371Y-82192171D01*
X107736371Y-81335028D02*
X107664942Y-81263600D01*
X107522085Y-81192171D01*
X107307800Y-81192171D01*
X107164942Y-81263600D01*
X107093514Y-81406457D01*
X107093514Y-82192171D01*
X106164942Y-82192171D02*
X106307800Y-82120742D01*
X106379228Y-82049314D01*
X106450657Y-81906457D01*
X106450657Y-81477885D01*
X106379228Y-81335028D01*
X106307800Y-81263600D01*
X106164942Y-81192171D01*
X105950657Y-81192171D01*
X105807800Y-81263600D01*
X105736371Y-81335028D01*
X105664942Y-81477885D01*
X105664942Y-81906457D01*
X105736371Y-82049314D01*
X105807800Y-82120742D01*
X105950657Y-82192171D01*
X106164942Y-82192171D01*
X105022085Y-81192171D02*
X105022085Y-82192171D01*
X105022085Y-81335028D02*
X104950657Y-81263600D01*
X104807800Y-81192171D01*
X104593514Y-81192171D01*
X104450657Y-81263600D01*
X104379228Y-81406457D01*
X104379228Y-82192171D01*
X103450657Y-82192171D02*
X103593514Y-82120742D01*
X103664942Y-82049314D01*
X103736371Y-81906457D01*
X103736371Y-81477885D01*
X103664942Y-81335028D01*
X103593514Y-81263600D01*
X103450657Y-81192171D01*
X103236371Y-81192171D01*
X103093514Y-81263600D01*
X103022085Y-81335028D01*
X102950657Y-81477885D01*
X102950657Y-81906457D01*
X103022085Y-82049314D01*
X103093514Y-82120742D01*
X103236371Y-82192171D01*
X103450657Y-82192171D01*
X101164942Y-82192171D02*
X101164942Y-80692171D01*
X101022085Y-81620742D02*
X100593514Y-82192171D01*
X100593514Y-81192171D02*
X101164942Y-81763600D01*
X99379228Y-82120742D02*
X99522085Y-82192171D01*
X99807800Y-82192171D01*
X99950657Y-82120742D01*
X100022085Y-81977885D01*
X100022085Y-81406457D01*
X99950657Y-81263600D01*
X99807800Y-81192171D01*
X99522085Y-81192171D01*
X99379228Y-81263600D01*
X99307800Y-81406457D01*
X99307800Y-81549314D01*
X100022085Y-81692171D01*
X98807800Y-81192171D02*
X98450657Y-82192171D01*
X98093514Y-81192171D02*
X98450657Y-82192171D01*
X98593514Y-82549314D01*
X98664942Y-82620742D01*
X98807800Y-82692171D01*
X97450657Y-82120742D02*
X97450657Y-82192171D01*
X97522085Y-82335028D01*
X97593514Y-82406457D01*
X95450657Y-82192171D02*
X95593514Y-82120742D01*
X95664942Y-82049314D01*
X95736371Y-81906457D01*
X95736371Y-81477885D01*
X95664942Y-81335028D01*
X95593514Y-81263600D01*
X95450657Y-81192171D01*
X95236371Y-81192171D01*
X95093514Y-81263600D01*
X95022085Y-81335028D01*
X94950657Y-81477885D01*
X94950657Y-81906457D01*
X95022085Y-82049314D01*
X95093514Y-82120742D01*
X95236371Y-82192171D01*
X95450657Y-82192171D01*
X94522085Y-81192171D02*
X93950657Y-81192171D01*
X94307800Y-82192171D02*
X94307800Y-80906457D01*
X94236371Y-80763600D01*
X94093514Y-80692171D01*
X93950657Y-80692171D01*
X93664942Y-81192171D02*
X93093514Y-81192171D01*
X93450657Y-82192171D02*
X93450657Y-80906457D01*
X93379228Y-80763600D01*
X93236371Y-80692171D01*
X93093514Y-80692171D01*
X92664942Y-82120742D02*
X92522085Y-82192171D01*
X92236371Y-82192171D01*
X92093514Y-82120742D01*
X92022085Y-81977885D01*
X92022085Y-81906457D01*
X92093514Y-81763600D01*
X92236371Y-81692171D01*
X92450657Y-81692171D01*
X92593514Y-81620742D01*
X92664942Y-81477885D01*
X92664942Y-81406457D01*
X92593514Y-81263600D01*
X92450657Y-81192171D01*
X92236371Y-81192171D01*
X92093514Y-81263600D01*
X90807800Y-82120742D02*
X90950657Y-82192171D01*
X91236371Y-82192171D01*
X91379228Y-82120742D01*
X91450657Y-81977885D01*
X91450657Y-81406457D01*
X91379228Y-81263600D01*
X91236371Y-81192171D01*
X90950657Y-81192171D01*
X90807800Y-81263600D01*
X90736371Y-81406457D01*
X90736371Y-81549314D01*
X91450657Y-81692171D01*
X90307800Y-81192171D02*
X89736371Y-81192171D01*
X90093514Y-80692171D02*
X90093514Y-81977885D01*
X90022085Y-82120742D01*
X89879228Y-82192171D01*
X89736371Y-82192171D01*
X88164942Y-82120742D02*
X88022085Y-82192171D01*
X87736371Y-82192171D01*
X87593514Y-82120742D01*
X87522085Y-81977885D01*
X87522085Y-81906457D01*
X87593514Y-81763600D01*
X87736371Y-81692171D01*
X87950657Y-81692171D01*
X88093514Y-81620742D01*
X88164942Y-81477885D01*
X88164942Y-81406457D01*
X88093514Y-81263600D01*
X87950657Y-81192171D01*
X87736371Y-81192171D01*
X87593514Y-81263600D01*
X86879228Y-82192171D02*
X86879228Y-80692171D01*
X86879228Y-81263600D02*
X86736371Y-81192171D01*
X86450657Y-81192171D01*
X86307800Y-81263600D01*
X86236371Y-81335028D01*
X86164942Y-81477885D01*
X86164942Y-81906457D01*
X86236371Y-82049314D01*
X86307800Y-82120742D01*
X86450657Y-82192171D01*
X86736371Y-82192171D01*
X86879228Y-82120742D01*
X85450657Y-82120742D02*
X85450657Y-82192171D01*
X85522085Y-82335028D01*
X85593514Y-82406457D01*
X83022085Y-82192171D02*
X83022085Y-81406457D01*
X83093514Y-81263600D01*
X83236371Y-81192171D01*
X83522085Y-81192171D01*
X83664942Y-81263600D01*
X83022085Y-82120742D02*
X83164942Y-82192171D01*
X83522085Y-82192171D01*
X83664942Y-82120742D01*
X83736371Y-81977885D01*
X83736371Y-81835028D01*
X83664942Y-81692171D01*
X83522085Y-81620742D01*
X83164942Y-81620742D01*
X83022085Y-81549314D01*
X82307800Y-81192171D02*
X82307800Y-82192171D01*
X82307800Y-81335028D02*
X82236371Y-81263600D01*
X82093514Y-81192171D01*
X81879228Y-81192171D01*
X81736371Y-81263600D01*
X81664942Y-81406457D01*
X81664942Y-82192171D01*
X80307800Y-82192171D02*
X80307800Y-80692171D01*
X80307800Y-82120742D02*
X80450657Y-82192171D01*
X80736371Y-82192171D01*
X80879228Y-82120742D01*
X80950657Y-82049314D01*
X81022085Y-81906457D01*
X81022085Y-81477885D01*
X80950657Y-81335028D01*
X80879228Y-81263600D01*
X80736371Y-81192171D01*
X80450657Y-81192171D01*
X80307800Y-81263600D01*
X78522085Y-80835028D02*
X78450657Y-80763600D01*
X78307800Y-80692171D01*
X77950657Y-80692171D01*
X77807800Y-80763600D01*
X77736371Y-80835028D01*
X77664942Y-80977885D01*
X77664942Y-81120742D01*
X77736371Y-81335028D01*
X78593514Y-82192171D01*
X77664942Y-82192171D01*
X77164942Y-82192171D02*
X76379228Y-81192171D01*
X77164942Y-81192171D02*
X76379228Y-82192171D01*
X75950657Y-80692171D02*
X75022085Y-80692171D01*
X75522085Y-81263600D01*
X75307800Y-81263600D01*
X75164942Y-81335028D01*
X75093514Y-81406457D01*
X75022085Y-81549314D01*
X75022085Y-81906457D01*
X75093514Y-82049314D01*
X75164942Y-82120742D01*
X75307800Y-82192171D01*
X75736371Y-82192171D01*
X75879228Y-82120742D01*
X75950657Y-82049314D01*
X73736371Y-81192171D02*
X73736371Y-82192171D01*
X74379228Y-81192171D02*
X74379228Y-81977885D01*
X74307800Y-82120742D01*
X74164942Y-82192171D01*
X73950657Y-82192171D01*
X73807800Y-82120742D01*
X73736371Y-82049314D01*
X71236371Y-82192171D02*
X71236371Y-81406457D01*
X71307800Y-81263600D01*
X71450657Y-81192171D01*
X71736371Y-81192171D01*
X71879228Y-81263600D01*
X71236371Y-82120742D02*
X71379228Y-82192171D01*
X71736371Y-82192171D01*
X71879228Y-82120742D01*
X71950657Y-81977885D01*
X71950657Y-81835028D01*
X71879228Y-81692171D01*
X71736371Y-81620742D01*
X71379228Y-81620742D01*
X71236371Y-81549314D01*
X70664942Y-81192171D02*
X70307800Y-82192171D01*
X69950657Y-81192171D01*
X68736371Y-82192171D02*
X68736371Y-81406457D01*
X68807800Y-81263600D01*
X68950657Y-81192171D01*
X69236371Y-81192171D01*
X69379228Y-81263600D01*
X68736371Y-82120742D02*
X68879228Y-82192171D01*
X69236371Y-82192171D01*
X69379228Y-82120742D01*
X69450657Y-81977885D01*
X69450657Y-81835028D01*
X69379228Y-81692171D01*
X69236371Y-81620742D01*
X68879228Y-81620742D01*
X68736371Y-81549314D01*
X68022085Y-82192171D02*
X68022085Y-81192171D01*
X68022085Y-80692171D02*
X68093514Y-80763600D01*
X68022085Y-80835028D01*
X67950657Y-80763600D01*
X68022085Y-80692171D01*
X68022085Y-80835028D01*
X67093514Y-82192171D02*
X67236371Y-82120742D01*
X67307800Y-81977885D01*
X67307800Y-80692171D01*
D11*
X184683400Y-73063100D02*
X185064400Y-73444100D01*
X184302400Y-73444100D02*
X184683400Y-73063100D01*
X185064400Y-73444100D02*
X184302400Y-73444100D01*
X185064400Y-72999600D02*
X184302400Y-72999600D01*
D10*
X183667400Y-75634848D02*
X183667400Y-73807600D01*
X185699400Y-75634848D02*
X183667400Y-75634848D01*
X185699400Y-73807600D02*
X185699400Y-75634848D01*
X183667400Y-70872352D02*
X183667400Y-72726600D01*
X185699400Y-70872352D02*
X183667400Y-70872352D01*
X185699400Y-72726600D02*
X185699400Y-70872352D01*
D11*
X114071400Y-73067800D02*
X114452400Y-73448800D01*
X113690400Y-73448800D02*
X114071400Y-73067800D01*
X114452400Y-73448800D02*
X113690400Y-73448800D01*
X114452400Y-73004300D02*
X113690400Y-73004300D01*
D10*
X113055400Y-75639548D02*
X113055400Y-73812300D01*
X115087400Y-75639548D02*
X113055400Y-75639548D01*
X115087400Y-73812300D02*
X115087400Y-75639548D01*
X113055400Y-70877052D02*
X113055400Y-72731300D01*
X115087400Y-70877052D02*
X113055400Y-70877052D01*
X115087400Y-72731300D02*
X115087400Y-70877052D01*
D11*
X140589000Y-73063100D02*
X140970000Y-73444100D01*
X140208000Y-73444100D02*
X140589000Y-73063100D01*
X140970000Y-73444100D02*
X140208000Y-73444100D01*
X140970000Y-72999600D02*
X140208000Y-72999600D01*
D10*
X139573000Y-75634848D02*
X139573000Y-73807600D01*
X141605000Y-75634848D02*
X139573000Y-75634848D01*
X141605000Y-73807600D02*
X141605000Y-75634848D01*
X139573000Y-70872352D02*
X139573000Y-72726600D01*
X141605000Y-70872352D02*
X139573000Y-70872352D01*
X141605000Y-72726600D02*
X141605000Y-70872352D01*
D11*
X58420000Y-15930500D02*
X58801000Y-16311500D01*
X58039000Y-16311500D02*
X58420000Y-15930500D01*
X58801000Y-16311500D02*
X58039000Y-16311500D01*
X58801000Y-15867000D02*
X58039000Y-15867000D01*
D10*
X57404000Y-18502248D02*
X57404000Y-16675000D01*
X59436000Y-18502248D02*
X57404000Y-18502248D01*
X59436000Y-16675000D02*
X59436000Y-18502248D01*
X57404000Y-13739752D02*
X57404000Y-15594000D01*
X59436000Y-13739752D02*
X57404000Y-13739752D01*
X59436000Y-15594000D02*
X59436000Y-13739752D01*
D11*
X19015200Y-15930500D02*
X19396200Y-16311500D01*
X18634200Y-16311500D02*
X19015200Y-15930500D01*
X19396200Y-16311500D02*
X18634200Y-16311500D01*
X19396200Y-15867000D02*
X18634200Y-15867000D01*
D10*
X17999200Y-18502248D02*
X17999200Y-16675000D01*
X20031200Y-18502248D02*
X17999200Y-18502248D01*
X20031200Y-16675000D02*
X20031200Y-18502248D01*
X17999200Y-13739752D02*
X17999200Y-15594000D01*
X20031200Y-13739752D02*
X17999200Y-13739752D01*
X20031200Y-15594000D02*
X20031200Y-13739752D01*
D11*
X36642800Y-15930500D02*
X37023800Y-16311500D01*
X36261800Y-16311500D02*
X36642800Y-15930500D01*
X37023800Y-16311500D02*
X36261800Y-16311500D01*
X37023800Y-15867000D02*
X36261800Y-15867000D01*
D10*
X35626800Y-18502248D02*
X35626800Y-16675000D01*
X37658800Y-18502248D02*
X35626800Y-18502248D01*
X37658800Y-16675000D02*
X37658800Y-18502248D01*
X35626800Y-13739752D02*
X35626800Y-15594000D01*
X37658800Y-13739752D02*
X35626800Y-13739752D01*
X37658800Y-15594000D02*
X37658800Y-13739752D01*
D11*
X39542800Y-15930500D02*
X39923800Y-16311500D01*
X39161800Y-16311500D02*
X39542800Y-15930500D01*
X39923800Y-16311500D02*
X39161800Y-16311500D01*
X39923800Y-15867000D02*
X39161800Y-15867000D01*
D10*
X38526800Y-18502248D02*
X38526800Y-16675000D01*
X40558800Y-18502248D02*
X38526800Y-18502248D01*
X40558800Y-16675000D02*
X40558800Y-18502248D01*
X38526800Y-13739752D02*
X38526800Y-15594000D01*
X40558800Y-13739752D02*
X38526800Y-13739752D01*
X40558800Y-15594000D02*
X40558800Y-13739752D01*
D11*
X112852200Y-15930500D02*
X113233200Y-16311500D01*
X112471200Y-16311500D02*
X112852200Y-15930500D01*
X113233200Y-16311500D02*
X112471200Y-16311500D01*
X113233200Y-15867000D02*
X112471200Y-15867000D01*
D10*
X111836200Y-18502248D02*
X111836200Y-16675000D01*
X113868200Y-18502248D02*
X111836200Y-18502248D01*
X113868200Y-16675000D02*
X113868200Y-18502248D01*
X111836200Y-13739752D02*
X111836200Y-15594000D01*
X113868200Y-13739752D02*
X111836200Y-13739752D01*
X113868200Y-15594000D02*
X113868200Y-13739752D01*
D11*
X115773200Y-15930500D02*
X116154200Y-16311500D01*
X115392200Y-16311500D02*
X115773200Y-15930500D01*
X116154200Y-16311500D02*
X115392200Y-16311500D01*
X116154200Y-15867000D02*
X115392200Y-15867000D01*
D10*
X114757200Y-18502248D02*
X114757200Y-16675000D01*
X116789200Y-18502248D02*
X114757200Y-18502248D01*
X116789200Y-16675000D02*
X116789200Y-18502248D01*
X114757200Y-13739752D02*
X114757200Y-15594000D01*
X116789200Y-13739752D02*
X114757200Y-13739752D01*
X116789200Y-15594000D02*
X116789200Y-13739752D01*
D11*
X133315200Y-15930500D02*
X133696200Y-16311500D01*
X132934200Y-16311500D02*
X133315200Y-15930500D01*
X133696200Y-16311500D02*
X132934200Y-16311500D01*
X133696200Y-15867000D02*
X132934200Y-15867000D01*
D10*
X132299200Y-18502248D02*
X132299200Y-16675000D01*
X134331200Y-18502248D02*
X132299200Y-18502248D01*
X134331200Y-16675000D02*
X134331200Y-18502248D01*
X132299200Y-13739752D02*
X132299200Y-15594000D01*
X134331200Y-13739752D02*
X132299200Y-13739752D01*
X134331200Y-15594000D02*
X134331200Y-13739752D01*
D11*
X152365200Y-15930500D02*
X152746200Y-16311500D01*
X151984200Y-16311500D02*
X152365200Y-15930500D01*
X152746200Y-16311500D02*
X151984200Y-16311500D01*
X152746200Y-15867000D02*
X151984200Y-15867000D01*
D10*
X151349200Y-18502248D02*
X151349200Y-16675000D01*
X153381200Y-18502248D02*
X151349200Y-18502248D01*
X153381200Y-16675000D02*
X153381200Y-18502248D01*
X151349200Y-13739752D02*
X151349200Y-15594000D01*
X153381200Y-13739752D02*
X151349200Y-13739752D01*
X153381200Y-15594000D02*
X153381200Y-13739752D01*
D11*
X171415200Y-15930500D02*
X171796200Y-16311500D01*
X171034200Y-16311500D02*
X171415200Y-15930500D01*
X171796200Y-16311500D02*
X171034200Y-16311500D01*
X171796200Y-15867000D02*
X171034200Y-15867000D01*
D10*
X170399200Y-18502248D02*
X170399200Y-16675000D01*
X172431200Y-18502248D02*
X170399200Y-18502248D01*
X172431200Y-16675000D02*
X172431200Y-18502248D01*
X170399200Y-13739752D02*
X170399200Y-15594000D01*
X172431200Y-13739752D02*
X170399200Y-13739752D01*
X172431200Y-15594000D02*
X172431200Y-13739752D01*
D11*
X202000000Y-15930500D02*
X202381000Y-16311500D01*
X201619000Y-16311500D02*
X202000000Y-15930500D01*
X202381000Y-16311500D02*
X201619000Y-16311500D01*
X202381000Y-15867000D02*
X201619000Y-15867000D01*
D10*
X200984000Y-18502248D02*
X200984000Y-16675000D01*
X203016000Y-18502248D02*
X200984000Y-18502248D01*
X203016000Y-16675000D02*
X203016000Y-18502248D01*
X200984000Y-13739752D02*
X200984000Y-15594000D01*
X203016000Y-13739752D02*
X200984000Y-13739752D01*
X203016000Y-15594000D02*
X203016000Y-13739752D01*
D11*
X19015200Y-34828100D02*
X19396200Y-35209100D01*
X18634200Y-35209100D02*
X19015200Y-34828100D01*
X19396200Y-35209100D02*
X18634200Y-35209100D01*
X19396200Y-34764600D02*
X18634200Y-34764600D01*
D10*
X17999200Y-37399848D02*
X17999200Y-35572600D01*
X20031200Y-37399848D02*
X17999200Y-37399848D01*
X20031200Y-35572600D02*
X20031200Y-37399848D01*
X17999200Y-32637352D02*
X17999200Y-34491600D01*
X20031200Y-32637352D02*
X17999200Y-32637352D01*
X20031200Y-34491600D02*
X20031200Y-32637352D01*
D11*
X38065200Y-34828100D02*
X38446200Y-35209100D01*
X37684200Y-35209100D02*
X38065200Y-34828100D01*
X38446200Y-35209100D02*
X37684200Y-35209100D01*
X38446200Y-34764600D02*
X37684200Y-34764600D01*
D10*
X37049200Y-37399848D02*
X37049200Y-35572600D01*
X39081200Y-37399848D02*
X37049200Y-37399848D01*
X39081200Y-35572600D02*
X39081200Y-37399848D01*
X37049200Y-32637352D02*
X37049200Y-34491600D01*
X39081200Y-32637352D02*
X37049200Y-32637352D01*
X39081200Y-34491600D02*
X39081200Y-32637352D01*
D11*
X57200800Y-34828100D02*
X57581800Y-35209100D01*
X56819800Y-35209100D02*
X57200800Y-34828100D01*
X57581800Y-35209100D02*
X56819800Y-35209100D01*
X57581800Y-34764600D02*
X56819800Y-34764600D01*
D10*
X56184800Y-37399848D02*
X56184800Y-35572600D01*
X58216800Y-37399848D02*
X56184800Y-37399848D01*
X58216800Y-35572600D02*
X58216800Y-37399848D01*
X56184800Y-32637352D02*
X56184800Y-34491600D01*
X58216800Y-32637352D02*
X56184800Y-32637352D01*
X58216800Y-34491600D02*
X58216800Y-32637352D01*
D11*
X76250800Y-34828100D02*
X76631800Y-35209100D01*
X75869800Y-35209100D02*
X76250800Y-34828100D01*
X76631800Y-35209100D02*
X75869800Y-35209100D01*
X76631800Y-34764600D02*
X75869800Y-34764600D01*
D10*
X75234800Y-37399848D02*
X75234800Y-35572600D01*
X77266800Y-37399848D02*
X75234800Y-37399848D01*
X77266800Y-35572600D02*
X77266800Y-37399848D01*
X75234800Y-32637352D02*
X75234800Y-34491600D01*
X77266800Y-32637352D02*
X75234800Y-32637352D01*
X77266800Y-34491600D02*
X77266800Y-32637352D01*
D11*
X95173800Y-34828100D02*
X95554800Y-35209100D01*
X94792800Y-35209100D02*
X95173800Y-34828100D01*
X95554800Y-35209100D02*
X94792800Y-35209100D01*
X95554800Y-34764600D02*
X94792800Y-34764600D01*
D10*
X94157800Y-37399848D02*
X94157800Y-35572600D01*
X96189800Y-37399848D02*
X94157800Y-37399848D01*
X96189800Y-35572600D02*
X96189800Y-37399848D01*
X94157800Y-32637352D02*
X94157800Y-34491600D01*
X96189800Y-32637352D02*
X94157800Y-32637352D01*
X96189800Y-34491600D02*
X96189800Y-32637352D01*
D11*
X114265200Y-34828100D02*
X114646200Y-35209100D01*
X113884200Y-35209100D02*
X114265200Y-34828100D01*
X114646200Y-35209100D02*
X113884200Y-35209100D01*
X114646200Y-34764600D02*
X113884200Y-34764600D01*
D10*
X113249200Y-37399848D02*
X113249200Y-35572600D01*
X115281200Y-37399848D02*
X113249200Y-37399848D01*
X115281200Y-35572600D02*
X115281200Y-37399848D01*
X113249200Y-32637352D02*
X113249200Y-34491600D01*
X115281200Y-32637352D02*
X113249200Y-32637352D01*
X115281200Y-34491600D02*
X115281200Y-32637352D01*
D11*
X133315200Y-34828100D02*
X133696200Y-35209100D01*
X132934200Y-35209100D02*
X133315200Y-34828100D01*
X133696200Y-35209100D02*
X132934200Y-35209100D01*
X133696200Y-34764600D02*
X132934200Y-34764600D01*
D10*
X132299200Y-37399848D02*
X132299200Y-35572600D01*
X134331200Y-37399848D02*
X132299200Y-37399848D01*
X134331200Y-35572600D02*
X134331200Y-37399848D01*
X132299200Y-32637352D02*
X132299200Y-34491600D01*
X134331200Y-32637352D02*
X132299200Y-32637352D01*
X134331200Y-34491600D02*
X134331200Y-32637352D01*
D11*
X152365200Y-34828100D02*
X152746200Y-35209100D01*
X151984200Y-35209100D02*
X152365200Y-34828100D01*
X152746200Y-35209100D02*
X151984200Y-35209100D01*
X152746200Y-34764600D02*
X151984200Y-34764600D01*
D10*
X151349200Y-37399848D02*
X151349200Y-35572600D01*
X153381200Y-37399848D02*
X151349200Y-37399848D01*
X153381200Y-35572600D02*
X153381200Y-37399848D01*
X151349200Y-32637352D02*
X151349200Y-34491600D01*
X153381200Y-32637352D02*
X151349200Y-32637352D01*
X153381200Y-34491600D02*
X153381200Y-32637352D01*
D11*
X176177700Y-34828100D02*
X176558700Y-35209100D01*
X175796700Y-35209100D02*
X176177700Y-34828100D01*
X176558700Y-35209100D02*
X175796700Y-35209100D01*
X176558700Y-34764600D02*
X175796700Y-34764600D01*
D10*
X175161700Y-37399848D02*
X175161700Y-35572600D01*
X177193700Y-37399848D02*
X175161700Y-37399848D01*
X177193700Y-35572600D02*
X177193700Y-37399848D01*
X175161700Y-32637352D02*
X175161700Y-34491600D01*
X177193700Y-32637352D02*
X175161700Y-32637352D01*
X177193700Y-34491600D02*
X177193700Y-32637352D01*
D11*
X202000000Y-34828100D02*
X202381000Y-35209100D01*
X201619000Y-35209100D02*
X202000000Y-34828100D01*
X202381000Y-35209100D02*
X201619000Y-35209100D01*
X202381000Y-34764600D02*
X201619000Y-34764600D01*
D10*
X200984000Y-37399848D02*
X200984000Y-35572600D01*
X203016000Y-37399848D02*
X200984000Y-37399848D01*
X203016000Y-35572600D02*
X203016000Y-37399848D01*
X200984000Y-32637352D02*
X200984000Y-34491600D01*
X203016000Y-32637352D02*
X200984000Y-32637352D01*
X203016000Y-34491600D02*
X203016000Y-32637352D01*
D11*
X28540200Y-52633500D02*
X28921200Y-53014500D01*
X28159200Y-53014500D02*
X28540200Y-52633500D01*
X28921200Y-53014500D02*
X28159200Y-53014500D01*
X28921200Y-52570000D02*
X28159200Y-52570000D01*
D10*
X27524200Y-55205248D02*
X27524200Y-53378000D01*
X29556200Y-55205248D02*
X27524200Y-55205248D01*
X29556200Y-53378000D02*
X29556200Y-55205248D01*
X27524200Y-50442752D02*
X27524200Y-52297000D01*
X29556200Y-50442752D02*
X27524200Y-50442752D01*
X29556200Y-52297000D02*
X29556200Y-50442752D01*
D11*
X47590200Y-52633500D02*
X47971200Y-53014500D01*
X47209200Y-53014500D02*
X47590200Y-52633500D01*
X47971200Y-53014500D02*
X47209200Y-53014500D01*
X47971200Y-52570000D02*
X47209200Y-52570000D01*
D10*
X46574200Y-55205248D02*
X46574200Y-53378000D01*
X48606200Y-55205248D02*
X46574200Y-55205248D01*
X48606200Y-53378000D02*
X48606200Y-55205248D01*
X46574200Y-50442752D02*
X46574200Y-52297000D01*
X48606200Y-50442752D02*
X46574200Y-50442752D01*
X48606200Y-52297000D02*
X48606200Y-50442752D01*
D11*
X66640200Y-52633500D02*
X67021200Y-53014500D01*
X66259200Y-53014500D02*
X66640200Y-52633500D01*
X67021200Y-53014500D02*
X66259200Y-53014500D01*
X67021200Y-52570000D02*
X66259200Y-52570000D01*
D10*
X65624200Y-55205248D02*
X65624200Y-53378000D01*
X67656200Y-55205248D02*
X65624200Y-55205248D01*
X67656200Y-53378000D02*
X67656200Y-55205248D01*
X65624200Y-50442752D02*
X65624200Y-52297000D01*
X67656200Y-50442752D02*
X65624200Y-50442752D01*
X67656200Y-52297000D02*
X67656200Y-50442752D01*
D11*
X85690200Y-52633500D02*
X86071200Y-53014500D01*
X85309200Y-53014500D02*
X85690200Y-52633500D01*
X86071200Y-53014500D02*
X85309200Y-53014500D01*
X86071200Y-52570000D02*
X85309200Y-52570000D01*
D10*
X84674200Y-55205248D02*
X84674200Y-53378000D01*
X86706200Y-55205248D02*
X84674200Y-55205248D01*
X86706200Y-53378000D02*
X86706200Y-55205248D01*
X84674200Y-50442752D02*
X84674200Y-52297000D01*
X86706200Y-50442752D02*
X84674200Y-50442752D01*
X86706200Y-52297000D02*
X86706200Y-50442752D01*
D11*
X104740200Y-52633500D02*
X105121200Y-53014500D01*
X104359200Y-53014500D02*
X104740200Y-52633500D01*
X105121200Y-53014500D02*
X104359200Y-53014500D01*
X105121200Y-52570000D02*
X104359200Y-52570000D01*
D10*
X103724200Y-55205248D02*
X103724200Y-53378000D01*
X105756200Y-55205248D02*
X103724200Y-55205248D01*
X105756200Y-53378000D02*
X105756200Y-55205248D01*
X103724200Y-50442752D02*
X103724200Y-52297000D01*
X105756200Y-50442752D02*
X103724200Y-50442752D01*
X105756200Y-52297000D02*
X105756200Y-50442752D01*
D11*
X123790200Y-52633500D02*
X124171200Y-53014500D01*
X123409200Y-53014500D02*
X123790200Y-52633500D01*
X124171200Y-53014500D02*
X123409200Y-53014500D01*
X124171200Y-52570000D02*
X123409200Y-52570000D01*
D10*
X122774200Y-55205248D02*
X122774200Y-53378000D01*
X124806200Y-55205248D02*
X122774200Y-55205248D01*
X124806200Y-53378000D02*
X124806200Y-55205248D01*
X122774200Y-50442752D02*
X122774200Y-52297000D01*
X124806200Y-50442752D02*
X122774200Y-50442752D01*
X124806200Y-52297000D02*
X124806200Y-50442752D01*
D11*
X142840200Y-52633500D02*
X143221200Y-53014500D01*
X142459200Y-53014500D02*
X142840200Y-52633500D01*
X143221200Y-53014500D02*
X142459200Y-53014500D01*
X143221200Y-52570000D02*
X142459200Y-52570000D01*
D10*
X141824200Y-55205248D02*
X141824200Y-53378000D01*
X143856200Y-55205248D02*
X141824200Y-55205248D01*
X143856200Y-53378000D02*
X143856200Y-55205248D01*
X141824200Y-50442752D02*
X141824200Y-52297000D01*
X143856200Y-50442752D02*
X141824200Y-50442752D01*
X143856200Y-52297000D02*
X143856200Y-50442752D01*
D11*
X161890200Y-52633500D02*
X162271200Y-53014500D01*
X161509200Y-53014500D02*
X161890200Y-52633500D01*
X162271200Y-53014500D02*
X161509200Y-53014500D01*
X162271200Y-52570000D02*
X161509200Y-52570000D01*
D10*
X160874200Y-55205248D02*
X160874200Y-53378000D01*
X162906200Y-55205248D02*
X160874200Y-55205248D01*
X162906200Y-53378000D02*
X162906200Y-55205248D01*
X160874200Y-50442752D02*
X160874200Y-52297000D01*
X162906200Y-50442752D02*
X160874200Y-50442752D01*
X162906200Y-52297000D02*
X162906200Y-50442752D01*
D11*
X179781200Y-52616100D02*
X180162200Y-52997100D01*
X179400200Y-52997100D02*
X179781200Y-52616100D01*
X180162200Y-52997100D02*
X179400200Y-52997100D01*
X180162200Y-52552600D02*
X179400200Y-52552600D01*
D10*
X178765200Y-55187848D02*
X178765200Y-53360600D01*
X180797200Y-55187848D02*
X178765200Y-55187848D01*
X180797200Y-53360600D02*
X180797200Y-55187848D01*
X178765200Y-50425352D02*
X178765200Y-52279600D01*
X180797200Y-50425352D02*
X178765200Y-50425352D01*
X180797200Y-52279600D02*
X180797200Y-50425352D01*
D11*
X37109400Y-73063100D02*
X37490400Y-73444100D01*
X36728400Y-73444100D02*
X37109400Y-73063100D01*
X37490400Y-73444100D02*
X36728400Y-73444100D01*
X37490400Y-72999600D02*
X36728400Y-72999600D01*
D10*
X36093400Y-75634848D02*
X36093400Y-73807600D01*
X38125400Y-75634848D02*
X36093400Y-75634848D01*
X38125400Y-73807600D02*
X38125400Y-75634848D01*
X36093400Y-70872352D02*
X36093400Y-72726600D01*
X38125400Y-70872352D02*
X36093400Y-70872352D01*
X38125400Y-72726600D02*
X38125400Y-70872352D01*
D11*
X59486800Y-73063100D02*
X59867800Y-73444100D01*
X59105800Y-73444100D02*
X59486800Y-73063100D01*
X59867800Y-73444100D02*
X59105800Y-73444100D01*
X59867800Y-72999600D02*
X59105800Y-72999600D01*
D10*
X58470800Y-75634848D02*
X58470800Y-73807600D01*
X60502800Y-75634848D02*
X58470800Y-75634848D01*
X60502800Y-73807600D02*
X60502800Y-75634848D01*
X58470800Y-70872352D02*
X58470800Y-72726600D01*
X60502800Y-70872352D02*
X58470800Y-70872352D01*
X60502800Y-72726600D02*
X60502800Y-70872352D01*
D12*
X91115476Y-65180D02*
X91448809Y411009D01*
X91686904Y-65180D02*
X91686904Y934819D01*
X91305952Y934819D01*
X91210714Y887200D01*
X91163095Y839580D01*
X91115476Y744342D01*
X91115476Y601485D01*
X91163095Y506247D01*
X91210714Y458628D01*
X91305952Y411009D01*
X91686904Y411009D01*
X90734523Y220533D02*
X90258333Y220533D01*
X90829761Y-65180D02*
X90496428Y934819D01*
X90163095Y-65180D01*
X89925000Y934819D02*
X89686904Y-65180D01*
X89496428Y649104D01*
X89305952Y-65180D01*
X89067857Y934819D01*
X82363095Y934819D02*
X81791666Y934819D01*
X82077380Y-65180D02*
X82077380Y934819D01*
X81553571Y934819D02*
X80886904Y-65180D01*
X80886904Y934819D02*
X81553571Y-65180D01*
X80315476Y934819D02*
X80220238Y934819D01*
X80125000Y887200D01*
X80077380Y839580D01*
X80029761Y744342D01*
X79982142Y553866D01*
X79982142Y315771D01*
X80029761Y125295D01*
X80077380Y30057D01*
X80125000Y-17561D01*
X80220238Y-65180D01*
X80315476Y-65180D01*
X80410714Y-17561D01*
X80458333Y30057D01*
X80505952Y125295D01*
X80553571Y315771D01*
X80553571Y553866D01*
X80505952Y744342D01*
X80458333Y839580D01*
X80410714Y887200D01*
X80315476Y934819D01*
X176379166Y-63952380D02*
X176950595Y-63952380D01*
X176664880Y-63952380D02*
X176664880Y-62952380D01*
X176760119Y-63095238D01*
X176855357Y-63190476D01*
X176950595Y-63238095D01*
X175522023Y-63285714D02*
X175522023Y-63952380D01*
X175950595Y-63285714D02*
X175950595Y-63809523D01*
X175902976Y-63904761D01*
X175807738Y-63952380D01*
X175664880Y-63952380D01*
X175569642Y-63904761D01*
X175522023Y-63857142D01*
X23979166Y-63952380D02*
X24550595Y-63952380D01*
X24264880Y-63952380D02*
X24264880Y-62952380D01*
X24360119Y-63095238D01*
X24455357Y-63190476D01*
X24550595Y-63238095D01*
X23122023Y-63285714D02*
X23122023Y-63952380D01*
X23550595Y-63285714D02*
X23550595Y-63809523D01*
X23502976Y-63904761D01*
X23407738Y-63952380D01*
X23264880Y-63952380D01*
X23169642Y-63904761D01*
X23122023Y-63857142D01*
X172330952Y-63965080D02*
X172902380Y-63965080D01*
X172616666Y-63965080D02*
X172616666Y-62965080D01*
X172711904Y-63107938D01*
X172807142Y-63203176D01*
X172902380Y-63250795D01*
X171902380Y-63869842D02*
X171854761Y-63917461D01*
X171902380Y-63965080D01*
X171950000Y-63917461D01*
X171902380Y-63869842D01*
X171902380Y-63965080D01*
X170950000Y-62965080D02*
X171426190Y-62965080D01*
X171473809Y-63441271D01*
X171426190Y-63393652D01*
X171330952Y-63346033D01*
X171092857Y-63346033D01*
X170997619Y-63393652D01*
X170950000Y-63441271D01*
X170902380Y-63536509D01*
X170902380Y-63774604D01*
X170950000Y-63869842D01*
X170997619Y-63917461D01*
X171092857Y-63965080D01*
X171330952Y-63965080D01*
X171426190Y-63917461D01*
X171473809Y-63869842D01*
X170045238Y-63298414D02*
X170045238Y-63965080D01*
X170473809Y-63298414D02*
X170473809Y-63822223D01*
X170426190Y-63917461D01*
X170330952Y-63965080D01*
X170188095Y-63965080D01*
X170092857Y-63917461D01*
X170045238Y-63869842D01*
X29455952Y-63914280D02*
X30027380Y-63914280D01*
X29741666Y-63914280D02*
X29741666Y-62914280D01*
X29836904Y-63057138D01*
X29932142Y-63152376D01*
X30027380Y-63199995D01*
X29027380Y-63819042D02*
X28979761Y-63866661D01*
X29027380Y-63914280D01*
X29075000Y-63866661D01*
X29027380Y-63819042D01*
X29027380Y-63914280D01*
X28075000Y-62914280D02*
X28551190Y-62914280D01*
X28598809Y-63390471D01*
X28551190Y-63342852D01*
X28455952Y-63295233D01*
X28217857Y-63295233D01*
X28122619Y-63342852D01*
X28075000Y-63390471D01*
X28027380Y-63485709D01*
X28027380Y-63723804D01*
X28075000Y-63819042D01*
X28122619Y-63866661D01*
X28217857Y-63914280D01*
X28455952Y-63914280D01*
X28551190Y-63866661D01*
X28598809Y-63819042D01*
X27170238Y-63247614D02*
X27170238Y-63914280D01*
X27598809Y-63247614D02*
X27598809Y-63771423D01*
X27551190Y-63866661D01*
X27455952Y-63914280D01*
X27313095Y-63914280D01*
X27217857Y-63866661D01*
X27170238Y-63819042D01*
X189475892Y-2039880D02*
X190047321Y-2039880D01*
X189761607Y-2039880D02*
X189761607Y-1039880D01*
X189856845Y-1182738D01*
X189952083Y-1277976D01*
X190047321Y-1325595D01*
X189047321Y-1944642D02*
X188999702Y-1992261D01*
X189047321Y-2039880D01*
X189094940Y-1992261D01*
X189047321Y-1944642D01*
X189047321Y-2039880D01*
X188666369Y-1039880D02*
X187999702Y-1039880D01*
X188428273Y-2039880D01*
X187142559Y-1039880D02*
X187618750Y-1039880D01*
X187666369Y-1516071D01*
X187618750Y-1468452D01*
X187523511Y-1420833D01*
X187285416Y-1420833D01*
X187190178Y-1468452D01*
X187142559Y-1516071D01*
X187094940Y-1611309D01*
X187094940Y-1849404D01*
X187142559Y-1944642D01*
X187190178Y-1992261D01*
X187285416Y-2039880D01*
X187523511Y-2039880D01*
X187618750Y-1992261D01*
X187666369Y-1944642D01*
X186237797Y-1373214D02*
X186237797Y-2039880D01*
X186666369Y-1373214D02*
X186666369Y-1897023D01*
X186618750Y-1992261D01*
X186523511Y-2039880D01*
X186380654Y-2039880D01*
X186285416Y-1992261D01*
X186237797Y-1944642D01*
X165663392Y-21089880D02*
X166234821Y-21089880D01*
X165949107Y-21089880D02*
X165949107Y-20089880D01*
X166044345Y-20232738D01*
X166139583Y-20327976D01*
X166234821Y-20375595D01*
X165234821Y-20994642D02*
X165187202Y-21042261D01*
X165234821Y-21089880D01*
X165282440Y-21042261D01*
X165234821Y-20994642D01*
X165234821Y-21089880D01*
X164806250Y-20185119D02*
X164758630Y-20137500D01*
X164663392Y-20089880D01*
X164425297Y-20089880D01*
X164330059Y-20137500D01*
X164282440Y-20185119D01*
X164234821Y-20280357D01*
X164234821Y-20375595D01*
X164282440Y-20518452D01*
X164853869Y-21089880D01*
X164234821Y-21089880D01*
X163330059Y-20089880D02*
X163806250Y-20089880D01*
X163853869Y-20566071D01*
X163806250Y-20518452D01*
X163711011Y-20470833D01*
X163472916Y-20470833D01*
X163377678Y-20518452D01*
X163330059Y-20566071D01*
X163282440Y-20661309D01*
X163282440Y-20899404D01*
X163330059Y-20994642D01*
X163377678Y-21042261D01*
X163472916Y-21089880D01*
X163711011Y-21089880D01*
X163806250Y-21042261D01*
X163853869Y-20994642D01*
X162425297Y-20423214D02*
X162425297Y-21089880D01*
X162853869Y-20423214D02*
X162853869Y-20947023D01*
X162806250Y-21042261D01*
X162711011Y-21089880D01*
X162568154Y-21089880D01*
X162472916Y-21042261D01*
X162425297Y-20994642D01*
D11*
X180500000Y-27538095D02*
X180452380Y-27442857D01*
X180452380Y-27300000D01*
X180500000Y-27157142D01*
X180595238Y-27061904D01*
X180690476Y-27014285D01*
X180880952Y-26966666D01*
X181023809Y-26966666D01*
X181214285Y-27014285D01*
X181309523Y-27061904D01*
X181404761Y-27157142D01*
X181452380Y-27300000D01*
X181452380Y-27395238D01*
X181404761Y-27538095D01*
X181357142Y-27585714D01*
X181023809Y-27585714D01*
X181023809Y-27395238D01*
X181452380Y-28014285D02*
X180452380Y-28014285D01*
X181452380Y-28585714D01*
X180452380Y-28585714D01*
X181452380Y-29061904D02*
X180452380Y-29061904D01*
X180452380Y-29300000D01*
X180500000Y-29442857D01*
X180595238Y-29538095D01*
X180690476Y-29585714D01*
X180880952Y-29633333D01*
X181023809Y-29633333D01*
X181214285Y-29585714D01*
X181309523Y-29538095D01*
X181404761Y-29442857D01*
X181452380Y-29300000D01*
X181452380Y-29061904D01*
X181452380Y-24276190D02*
X180452380Y-24276190D01*
X180452380Y-24514285D01*
X180500000Y-24657142D01*
X180595238Y-24752380D01*
X180690476Y-24800000D01*
X180880952Y-24847619D01*
X181023809Y-24847619D01*
X181214285Y-24800000D01*
X181309523Y-24752380D01*
X181404761Y-24657142D01*
X181452380Y-24514285D01*
X181452380Y-24276190D01*
X181452380Y-25276190D02*
X180452380Y-25276190D01*
X181452380Y-25752380D02*
X180452380Y-25752380D01*
X181452380Y-26323809D01*
X180452380Y-26323809D01*
X180452380Y-20966666D02*
X181452380Y-21300000D01*
X180452380Y-21633333D01*
X181357142Y-22538095D02*
X181404761Y-22490476D01*
X181452380Y-22347619D01*
X181452380Y-22252380D01*
X181404761Y-22109523D01*
X181309523Y-22014285D01*
X181214285Y-21966666D01*
X181023809Y-21919047D01*
X180880952Y-21919047D01*
X180690476Y-21966666D01*
X180595238Y-22014285D01*
X180500000Y-22109523D01*
X180452380Y-22252380D01*
X180452380Y-22347619D01*
X180500000Y-22490476D01*
X180547619Y-22538095D01*
X181357142Y-23538095D02*
X181404761Y-23490476D01*
X181452380Y-23347619D01*
X181452380Y-23252380D01*
X181404761Y-23109523D01*
X181309523Y-23014285D01*
X181214285Y-22966666D01*
X181023809Y-22919047D01*
X180880952Y-22919047D01*
X180690476Y-22966666D01*
X180595238Y-23014285D01*
X180500000Y-23109523D01*
X180452380Y-23252380D01*
X180452380Y-23347619D01*
X180500000Y-23490476D01*
X180547619Y-23538095D01*
D12*
X129335114Y-62914280D02*
X128716066Y-62914280D01*
X129049400Y-63295233D01*
X128906542Y-63295233D01*
X128811304Y-63342852D01*
X128763685Y-63390471D01*
X128716066Y-63485709D01*
X128716066Y-63723804D01*
X128763685Y-63819042D01*
X128811304Y-63866661D01*
X128906542Y-63914280D01*
X129192257Y-63914280D01*
X129287495Y-63866661D01*
X129335114Y-63819042D01*
X127858923Y-63247614D02*
X127858923Y-63914280D01*
X128287495Y-63247614D02*
X128287495Y-63771423D01*
X128239876Y-63866661D01*
X128144638Y-63914280D01*
X128001780Y-63914280D01*
X127906542Y-63866661D01*
X127858923Y-63819042D01*
X72185114Y-62914280D02*
X71566066Y-62914280D01*
X71899400Y-63295233D01*
X71756542Y-63295233D01*
X71661304Y-63342852D01*
X71613685Y-63390471D01*
X71566066Y-63485709D01*
X71566066Y-63723804D01*
X71613685Y-63819042D01*
X71661304Y-63866661D01*
X71756542Y-63914280D01*
X72042257Y-63914280D01*
X72137495Y-63866661D01*
X72185114Y-63819042D01*
X70708923Y-63247614D02*
X70708923Y-63914280D01*
X71137495Y-63247614D02*
X71137495Y-63771423D01*
X71089876Y-63866661D01*
X70994638Y-63914280D01*
X70851780Y-63914280D01*
X70756542Y-63866661D01*
X70708923Y-63819042D01*
X100798214Y-62952380D02*
X100131547Y-62952380D01*
X100560119Y-63952380D01*
X99322023Y-63285714D02*
X99322023Y-63952380D01*
X99750595Y-63285714D02*
X99750595Y-63809523D01*
X99702976Y-63904761D01*
X99607738Y-63952380D01*
X99464880Y-63952380D01*
X99369642Y-63904761D01*
X99322023Y-63857142D01*
M02*
