  0
SECTION
  2
HEADER
  9
$ACADVER
  1
AC1014
  9
$HANDSEED
  5
FFFF
  9
$MEASUREMENT
 70
     1
  0
ENDSEC
  0
SECTION
  2
TABLES
  0
TABLE
  2
VPORT
  5
8
330
0
100
AcDbSymbolTable
 70
     4
  0
VPORT
  5
2E
330
8
100
AcDbSymbolTableRecord
100
AcDbViewportTableRecord
  2
*ACTIVE
 70
     0
 10
0.0
 20
0.0
 11
1.0
 21
1.0
 12
210.0
 22
148.5
 13
0.0
 23
0.0
 14
10.0
 24
10.0
 15
10.0
 25
10.0
 16
0.0
 26
0.0
 36
1.0
 17
0.0
 27
0.0
 37
0.0
 40
341.0
 41
1.24
 42
50.0
 43
0.0
 44
0.0
 50
0.0
 51
0.0
 71
     0
 72
   100
 73
     1
 74
     3
 75
     0
 76
     0
 77
     0
 78
     0
  0
ENDTAB
  0
TABLE
  2
LTYPE
  5
5
330
0
100
AcDbSymbolTable
 70
     1
  0
LTYPE
  5
14
330
5
100
AcDbSymbolTableRecord
100
AcDbLinetypeTableRecord
  2
BYBLOCK
 70
     0
  3

 72
    65
 73
     0
 40
0.0
  0
LTYPE
  5
15
330
5
100
AcDbSymbolTableRecord
100
AcDbLinetypeTableRecord
  2
BYLAYER
 70
     0
  3

 72
    65
 73
     0
 40
0.0
  0
LTYPE
  5
16
330
5
100
AcDbSymbolTableRecord
100
AcDbLinetypeTableRecord
  2
CONTINUOUS
 70
     0
  3
Solid line
 72
    65
 73
     0
 40
0.0
  0
ENDTAB
  0
TABLE
  2
LAYER
  5
2
100
AcDbSymbolTable
 70
2
  0
LAYER
  5
50
100
AcDbSymbolTableRecord
100
AcDbLayerTableRecord
  2
0
 70
0
  6
CONTINUOUS
  0
LAYER
  5
51
100
AcDbSymbolTableRecord
100
AcDbLayerTableRecord
  2
Plate_Outline
 70
0
  6
CONTINUOUS
  0
ENDTAB
  0
TABLE
  2
STYLE
  5
3
330
0
100
AcDbSymbolTable
 70
     1
  0
STYLE
  5
11
330
3
100
AcDbSymbolTableRecord
100
AcDbTextStyleTableRecord
  2
STANDARD
 70
     0
 40
0.0
 41
1.0
 50
0.0
 71
     0
 42
2.5
  3
txt
  4

  0
ENDTAB
  0
TABLE
  2
VIEW
  5
6
330
0
100
AcDbSymbolTable
 70
     0
  0
ENDTAB
  0
TABLE
  2
UCS
  5
7
330
0
100
AcDbSymbolTable
 70
     0
  0
ENDTAB
  0
TABLE
  2
APPID
  5
9
330
0
100
AcDbSymbolTable
 70
     2
  0
APPID
  5
12
330
9
100
AcDbSymbolTableRecord
100
AcDbRegAppTableRecord
  2
ACAD
 70
     0
  0
ENDTAB
  0
TABLE
  2
DIMSTYLE
  5
A
330
0
100
AcDbSymbolTable
 70
     1
  0
DIMSTYLE
105
27
330
A
100
AcDbSymbolTableRecord
100
AcDbDimStyleTableRecord
  2
ISO-25
 70
     0
  3

  4

  5

  6

  7

 40
1.0
 41
2.5
 42
0.625
 43
3.75
 44
1.25
 45
0.0
 46
0.0
 47
0.0
 48
0.0
140
2.5
141
2.5
142
0.0
143
0.03937007874016
144
1.0
145
0.0
146
1.0
147
0.625
 71
     0
 72
     0
 73
     0
 74
     0
 75
     0
 76
     0
 77
     1
 78
     8
170
     0
171
     3
172
     1
173
     0
174
     0
175
     0
176
     0
177
     0
178
     0
270
     2
271
     2
272
     2
273
     2
274
     3
340
11
275
     0
280
     0
281
     0
282
     0
283
     0
284
     8
285
     0
286
     0
287
     3
288
     0
  0
ENDTAB
  0
TABLE
  2
BLOCK_RECORD
  5
1
330
0
100
AcDbSymbolTable
 70
     1
  0
BLOCK_RECORD
  5
1F
330
1
100
AcDbSymbolTableRecord
100
AcDbBlockTableRecord
  2
*MODEL_SPACE
  0
BLOCK_RECORD
  5
1B
330
1
100
AcDbSymbolTableRecord
100
AcDbBlockTableRecord
  2
*PAPER_SPACE
  0
ENDTAB
  0
ENDSEC
  0
SECTION
  2
BLOCKS
  0
BLOCK
  5
20
330
1F
100
AcDbEntity
  8
0
100
AcDbBlockBegin
  2
*MODEL_SPACE
 70
     0
 10
0.0
 20
0.0
 30
0.0
  3
*MODEL_SPACE
  1

  0
ENDBLK
  5
21
330
1F
100
AcDbEntity
  8
0
100
AcDbBlockEnd
  0
BLOCK
  5
1C
330
1B
100
AcDbEntity
 67
     1
  8
0
100
AcDbBlockBegin
  2
*PAPER_SPACE
  1

  0
ENDBLK
  5
1D
330
1B
100
AcDbEntity
 67
     1
  8
0
100
AcDbBlockEnd
  0
ENDSEC
  0
SECTION
  2
ENTITIES
  0
LWPOLYLINE
  5
100
100
AcDbEntity
  8
Plate_Outline
 62
3
100
AcDbPolyline
 90
4
 70
1
 10
13.539050
 20
87.029975
 30
0.0
 10
27.536989
 20
87.029975
 30
0.0
 10
27.536989
 20
73.032036
 30
0.0
 10
13.539050
 20
73.032036
 30
0.0
  0
LWPOLYLINE
  5
101
100
AcDbEntity
  8
Plate_Outline
 62
3
100
AcDbPolyline
 90
4
 70
1
 10
32.589045
 20
87.029975
 30
0.0
 10
46.586984
 20
87.029975
 30
0.0
 10
46.586984
 20
73.032036
 30
0.0
 10
32.589045
 20
73.032036
 30
0.0
  0
LWPOLYLINE
  5
102
100
AcDbEntity
  8
Plate_Outline
 62
3
100
AcDbPolyline
 90
4
 70
1
 10
51.639041
 20
87.029975
 30
0.0
 10
65.636980
 20
87.029975
 30
0.0
 10
65.636980
 20
73.032036
 30
0.0
 10
51.639041
 20
73.032036
 30
0.0
  0
LWPOLYLINE
  5
103
100
AcDbEntity
  8
Plate_Outline
 62
3
100
AcDbPolyline
 90
4
 70
1
 10
13.539050
 20
67.979976
 30
0.0
 10
27.536989
 20
67.979976
 30
0.0
 10
27.536989
 20
53.982038
 30
0.0
 10
13.539050
 20
53.982038
 30
0.0
  0
LWPOLYLINE
  5
104
100
AcDbEntity
  8
Plate_Outline
 62
3
100
AcDbPolyline
 90
4
 70
1
 10
32.589045
 20
67.979976
 30
0.0
 10
46.586984
 20
67.979976
 30
0.0
 10
46.586984
 20
53.982038
 30
0.0
 10
32.589045
 20
53.982038
 30
0.0
  0
LWPOLYLINE
  5
105
100
AcDbEntity
  8
Plate_Outline
 62
3
100
AcDbPolyline
 90
4
 70
1
 10
51.639041
 20
67.979976
 30
0.0
 10
65.636980
 20
67.979976
 30
0.0
 10
65.636980
 20
53.982038
 30
0.0
 10
51.639041
 20
53.982038
 30
0.0
  0
LWPOLYLINE
  5
106
100
AcDbEntity
  8
Plate_Outline
 62
3
100
AcDbPolyline
 90
4
 70
1
 10
70.689045
 20
87.029975
 30
0.0
 10
84.686983
 20
87.029975
 30
0.0
 10
84.686983
 20
73.032036
 30
0.0
 10
70.689045
 20
73.032036
 30
0.0
  0
LWPOLYLINE
  5
107
100
AcDbEntity
  8
Plate_Outline
 62
3
100
AcDbPolyline
 90
4
 70
1
 10
89.739043
 20
87.029975
 30
0.0
 10
103.736981
 20
87.029975
 30
0.0
 10
103.736981
 20
73.032036
 30
0.0
 10
89.739043
 20
73.032036
 30
0.0
  0
LWPOLYLINE
  5
108
100
AcDbEntity
  8
Plate_Outline
 62
3
100
AcDbPolyline
 90
4
 70
1
 10
70.689045
 20
67.979976
 30
0.0
 10
84.686983
 20
67.979976
 30
0.0
 10
84.686983
 20
53.982038
 30
0.0
 10
70.689045
 20
53.982038
 30
0.0
  0
LWPOLYLINE
  5
109
100
AcDbEntity
  8
Plate_Outline
 62
3
100
AcDbPolyline
 90
4
 70
1
 10
89.739043
 20
67.979976
 30
0.0
 10
103.736981
 20
67.979976
 30
0.0
 10
103.736981
 20
53.982038
 30
0.0
 10
89.739043
 20
53.982038
 30
0.0
  0
LWPOLYLINE
  5
10a
100
AcDbEntity
  8
Plate_Outline
 62
3
100
AcDbPolyline
 90
4
 70
1
 10
108.789052
 20
87.029975
 30
0.0
 10
122.786990
 20
87.029975
 30
0.0
 10
122.786990
 20
73.032036
 30
0.0
 10
108.789052
 20
73.032036
 30
0.0
  0
LWPOLYLINE
  5
10b
100
AcDbEntity
  8
Plate_Outline
 62
3
100
AcDbPolyline
 90
4
 70
1
 10
127.839050
 20
87.029975
 30
0.0
 10
141.836988
 20
87.029975
 30
0.0
 10
141.836988
 20
73.032036
 30
0.0
 10
127.839050
 20
73.032036
 30
0.0
  0
LWPOLYLINE
  5
10c
100
AcDbEntity
  8
Plate_Outline
 62
3
100
AcDbPolyline
 90
4
 70
1
 10
146.889037
 20
87.029975
 30
0.0
 10
160.886976
 20
87.029975
 30
0.0
 10
160.886976
 20
73.032036
 30
0.0
 10
146.889037
 20
73.032036
 30
0.0
  0
LWPOLYLINE
  5
10d
100
AcDbEntity
  8
Plate_Outline
 62
3
100
AcDbPolyline
 90
4
 70
1
 10
108.789052
 20
67.979976
 30
0.0
 10
122.786990
 20
67.979976
 30
0.0
 10
122.786990
 20
53.982038
 30
0.0
 10
108.789052
 20
53.982038
 30
0.0
  0
LWPOLYLINE
  5
10e
100
AcDbEntity
  8
Plate_Outline
 62
3
100
AcDbPolyline
 90
4
 70
1
 10
127.839050
 20
67.979976
 30
0.0
 10
141.836988
 20
67.979976
 30
0.0
 10
141.836988
 20
53.982038
 30
0.0
 10
127.839050
 20
53.982038
 30
0.0
  0
LWPOLYLINE
  5
10f
100
AcDbEntity
  8
Plate_Outline
 62
3
100
AcDbPolyline
 90
4
 70
1
 10
146.889037
 20
67.979976
 30
0.0
 10
160.886976
 20
67.979976
 30
0.0
 10
160.886976
 20
53.982038
 30
0.0
 10
146.889037
 20
53.982038
 30
0.0
  0
LWPOLYLINE
  5
110
100
AcDbEntity
  8
Plate_Outline
 62
3
100
AcDbPolyline
 90
4
 70
1
 10
165.939036
 20
87.029975
 30
0.0
 10
179.936974
 20
87.029975
 30
0.0
 10
179.936974
 20
73.032036
 30
0.0
 10
165.939036
 20
73.032036
 30
0.0
  0
LWPOLYLINE
  5
111
100
AcDbEntity
  8
Plate_Outline
 62
3
100
AcDbPolyline
 90
4
 70
1
 10
168.319007
 20
67.979976
 30
0.0
 10
182.319486
 20
67.979976
 30
0.0
 10
182.319486
 20
53.982038
 30
0.0
 10
168.319007
 20
53.982038
 30
0.0
  0
LWPOLYLINE
  5
112
100
AcDbEntity
  8
Plate_Outline
 62
3
100
AcDbPolyline
 90
4
 70
1
 10
192.131505
 20
87.029975
 30
0.0
 10
206.131984
 20
87.029975
 30
0.0
 10
206.131984
 20
73.032036
 30
0.0
 10
192.131505
 20
73.032036
 30
0.0
  0
LWPOLYLINE
  5
113
100
AcDbEntity
  8
Plate_Outline
 62
3
100
AcDbPolyline
 90
12
 70
1
 10
191.652935
 20
68.386186
 30
0.0
 10
191.652935
 20
56.454188
 30
0.0
 10
196.901873
 20
56.454188
 30
0.0
 10
196.901873
 20
46.456188
 30
0.0
 10
191.652935
 20
46.456188
 30
0.0
 10
191.652935
 20
34.523189
 30
0.0
 10
214.410933
 20
34.523189
 30
0.0
 10
214.410933
 20
46.456188
 30
0.0
 10
210.899468
 20
46.456188
 30
0.0
 10
210.899468
 20
56.454188
 30
0.0
 10
214.410933
 20
56.454188
 30
0.0
 10
214.410933
 20
68.386186
 30
0.0
  0
LWPOLYLINE
  5
114
100
AcDbEntity
  8
Plate_Outline
 62
3
100
AcDbPolyline
 90
4
 70
1
 10
175.464045
 20
48.929981
 30
0.0
 10
189.461984
 20
48.929981
 30
0.0
 10
189.461984
 20
34.932042
 30
0.0
 10
175.464045
 20
34.932042
 30
0.0
  0
LWPOLYLINE
  5
115
100
AcDbEntity
  8
Plate_Outline
 62
3
100
AcDbPolyline
 90
4
 70
1
 10
156.414047
 20
48.929981
 30
0.0
 10
170.411986
 20
48.929981
 30
0.0
 10
170.411986
 20
34.932042
 30
0.0
 10
156.414047
 20
34.932042
 30
0.0
  0
LWPOLYLINE
  5
116
100
AcDbEntity
  8
Plate_Outline
 62
3
100
AcDbPolyline
 90
4
 70
1
 10
175.464045
 20
25.104783
 30
0.0
 10
194.224483
 20
25.104783
 30
0.0
 10
194.224483
 20
11.119544
 30
0.0
 10
175.464045
 20
11.119544
 30
0.0
  0
LWPOLYLINE
  5
117
100
AcDbEntity
  8
Plate_Outline
 62
3
100
AcDbPolyline
 90
4
 70
1
 10
137.364038
 20
48.929981
 30
0.0
 10
151.361977
 20
48.929981
 30
0.0
 10
151.361977
 20
34.932042
 30
0.0
 10
137.364038
 20
34.932042
 30
0.0
  0
LWPOLYLINE
  5
118
100
AcDbEntity
  8
Plate_Outline
 62
3
100
AcDbPolyline
 90
4
 70
1
 10
118.314040
 20
48.929981
 30
0.0
 10
132.311979
 20
48.929981
 30
0.0
 10
132.311979
 20
34.932042
 30
0.0
 10
118.314040
 20
34.932042
 30
0.0
  0
LWPOLYLINE
  5
119
100
AcDbEntity
  8
Plate_Outline
 62
3
100
AcDbPolyline
 90
4
 70
1
 10
99.264042
 20
48.929981
 30
0.0
 10
113.261981
 20
48.929981
 30
0.0
 10
113.261981
 20
34.932042
 30
0.0
 10
99.264042
 20
34.932042
 30
0.0
  0
LWPOLYLINE
  5
11a
100
AcDbEntity
  8
Plate_Outline
 62
3
100
AcDbPolyline
 90
4
 70
1
 10
80.214044
 20
48.929981
 30
0.0
 10
94.211982
 20
48.929981
 30
0.0
 10
94.211982
 20
34.932042
 30
0.0
 10
80.214044
 20
34.932042
 30
0.0
  0
LWPOLYLINE
  5
11b
100
AcDbEntity
  8
Plate_Outline
 62
3
100
AcDbPolyline
 90
12
 70
1
 10
96.469944
 20
30.404191
 30
0.0
 10
96.469944
 20
7.608190
 30
0.0
 10
105.026941
 20
7.608190
 30
0.0
 10
105.026941
 20
11.119478
 30
0.0
 10
117.024943
 20
11.119478
 30
0.0
 10
117.024943
 20
7.608190
 30
0.0
 10
125.507941
 20
7.608190
 30
0.0
 10
125.507941
 20
30.404191
 30
0.0
 10
117.024943
 20
30.404191
 30
0.0
 10
117.024943
 20
25.117586
 30
0.0
 10
105.026941
 20
25.117586
 30
0.0
 10
105.026941
 20
30.404191
 30
0.0
  0
LWPOLYLINE
  5
11c
100
AcDbEntity
  8
Plate_Outline
 62
3
100
AcDbPolyline
 90
4
 70
1
 10
132.563439
 20
25.155580
 30
0.0
 10
146.561377
 20
25.155580
 30
0.0
 10
146.561377
 20
11.157642
 30
0.0
 10
132.563439
 20
11.157642
 30
0.0
  0
LWPOLYLINE
  5
11d
100
AcDbEntity
  8
Plate_Outline
 62
3
100
AcDbPolyline
 90
4
 70
1
 10
75.413447
 20
25.155580
 30
0.0
 10
89.411383
 20
25.155580
 30
0.0
 10
89.411383
 20
11.157642
 30
0.0
 10
75.413447
 20
11.157642
 30
0.0
  0
LWPOLYLINE
  5
11e
100
AcDbEntity
  8
Plate_Outline
 62
3
100
AcDbPolyline
 90
4
 70
1
 10
61.164051
 20
48.929981
 30
0.0
 10
75.161989
 20
48.929981
 30
0.0
 10
75.161989
 20
34.932042
 30
0.0
 10
61.164051
 20
34.932042
 30
0.0
  0
LWPOLYLINE
  5
11f
100
AcDbEntity
  8
Plate_Outline
 62
3
100
AcDbPolyline
 90
4
 70
1
 10
42.114045
 20
48.929981
 30
0.0
 10
56.111983
 20
48.929981
 30
0.0
 10
56.111983
 20
34.932042
 30
0.0
 10
42.114045
 20
34.932042
 30
0.0
  0
LWPOLYLINE
  5
120
100
AcDbEntity
  8
Plate_Outline
 62
3
100
AcDbPolyline
 90
4
 70
1
 10
23.064046
 20
48.929981
 30
0.0
 10
37.061985
 20
48.929981
 30
0.0
 10
37.061985
 20
34.932042
 30
0.0
 10
23.064046
 20
34.932042
 30
0.0
  0
LWPOLYLINE
  5
121
100
AcDbEntity
  8
Plate_Outline
 62
3
100
AcDbPolyline
 90
4
 70
1
 10
27.826549
 20
25.117478
 30
0.0
 10
46.586987
 20
25.117478
 30
0.0
 10
46.586987
 20
11.157639
 30
0.0
 10
27.826549
 20
11.157639
 30
0.0
  0
LWPOLYLINE
  5
122
100
AcDbEntity
  8
Plate_Outline
 62
3
100
AcDbPolyline
 90
4
 70
1
 10
153.619939
 20
30.404191
 30
0.0
 10
173.411937
 20
30.404191
 30
0.0
 10
173.411937
 20
7.608190
 30
0.0
 10
153.619939
 20
7.608190
 30
0.0
  0
LWPOLYLINE
  5
123
100
AcDbEntity
  8
Plate_Outline
 62
3
100
AcDbPolyline
 90
4
 70
1
 10
48.823946
 20
30.404191
 30
0.0
 10
68.615944
 20
30.404191
 30
0.0
 10
68.615944
 20
7.608190
 30
0.0
 10
48.823946
 20
7.608190
 30
0.0
  0
SPLINE
  5
124
100
AcDbEntity
  8
Plate_Outline
 62
3
100
AcDbSpline
 70
8
 71
3
 72
8
 73
4
 74
0
 40
0
 40
0
 40
0
 40
0
 40
1
 40
1
 40
1
 40
1
 10
219.072933
 20
93.134618
 30
0.0
 10
219.072933
 20
93.134618
 30
0.0
 10
216.748934
 20
96.613165
 30
0.0
 10
216.088632
 20
97.861184
 30
0.0
  0
LWPOLYLINE
  5
125
100
AcDbEntity
  8
Plate_Outline
 62
3
100
AcDbPolyline
 90
13
 70
0
 10
3.600004
 20
97.861184
 30
0.0
 10
1.099898
 20
93.165107
 30
0.0
 10
1.099951
 20
31.161145
 30
0.0
 10
22.148895
 20
5.096072
 30
0.0
 10
24.649001
 20
0.400192
 30
0.0
 10
32.648894
 20
0.400251
 30
0.0
 10
35.149000
 20
5.096133
 30
0.0
 10
187.054884
 20
5.096072
 30
0.0
 10
189.554988
 20
0.400192
 30
0.0
 10
197.554884
 20
0.400192
 30
0.0
 10
200.054987
 20
5.096072
 30
0.0
 10
219.072933
 20
31.158563
 30
0.0
 10
219.072933
 20
93.134618
 30
0.0
  0
SPLINE
  5
126
100
AcDbEntity
  8
Plate_Outline
 62
3
100
AcDbSpline
 70
8
 71
3
 72
8
 73
4
 74
0
 40
0
 40
0
 40
0
 40
0
 40
1
 40
1
 40
1
 40
1
 10
193.555174
 20
4.488166
 30
0.0
 10
194.162604
 20
4.488129
 30
0.0
 10
194.655014
 20
3.995664
 30
0.0
 10
194.655044
 20
3.388166
 30
0.0
  0
SPLINE
  5
127
100
AcDbEntity
  8
Plate_Outline
 62
3
100
AcDbSpline
 70
8
 71
3
 72
8
 73
4
 74
0
 40
0
 40
0
 40
0
 40
0
 40
1
 40
1
 40
1
 40
1
 10
194.655044
 20
3.388166
 30
0.0
 10
194.655014
 20
2.780668
 30
0.0
 10
194.162604
 20
2.288204
 30
0.0
 10
193.555174
 20
2.288166
 30
0.0
  0
SPLINE
  5
128
100
AcDbEntity
  8
Plate_Outline
 62
3
100
AcDbSpline
 70
8
 71
3
 72
8
 73
4
 74
0
 40
0
 40
0
 40
0
 40
0
 40
1
 40
1
 40
1
 40
1
 10
193.555174
 20
2.288166
 30
0.0
 10
192.947654
 20
2.288061
 30
0.0
 10
192.455094
 20
2.780568
 30
0.0
 10
192.455054
 20
3.388166
 30
0.0
  0
SPLINE
  5
129
100
AcDbEntity
  8
Plate_Outline
 62
3
100
AcDbSpline
 70
8
 71
3
 72
8
 73
4
 74
0
 40
0
 40
0
 40
0
 40
0
 40
1
 40
1
 40
1
 40
1
 10
192.455054
 20
3.388166
 30
0.0
 10
192.455094
 20
3.995765
 30
0.0
 10
192.947654
 20
4.488272
 30
0.0
 10
193.555174
 20
4.488166
 30
0.0
  0
LWPOLYLINE
  5
12a
100
AcDbEntity
  8
Plate_Outline
 62
3
100
AcDbPolyline
 90
6
 70
0
 10
216.088632
 20
97.861184
 30
0.0
 10
208.073237
 20
97.861184
 30
0.0
 10
205.588633
 20
93.165107
 30
0.0
 10
14.100004
 20
93.165107
 30
0.0
 10
11.599898
 20
97.861184
 30
0.0
 10
3.600004
 20
97.861184
 30
0.0
  0
SPLINE
  5
12b
100
AcDbEntity
  8
Plate_Outline
 62
3
100
AcDbSpline
 70
8
 71
3
 72
8
 73
4
 74
0
 40
0
 40
0
 40
0
 40
0
 40
1
 40
1
 40
1
 40
1
 10
28.649498
 20
4.488166
 30
0.0
 10
29.256925
 20
4.488129
 30
0.0
 10
29.749331
 20
3.995664
 30
0.0
 10
29.749368
 20
3.388166
 30
0.0
  0
SPLINE
  5
12c
100
AcDbEntity
  8
Plate_Outline
 62
3
100
AcDbSpline
 70
8
 71
3
 72
8
 73
4
 74
0
 40
0
 40
0
 40
0
 40
0
 40
1
 40
1
 40
1
 40
1
 10
29.749368
 20
3.388166
 30
0.0
 10
29.749331
 20
2.780668
 30
0.0
 10
29.256925
 20
2.288204
 30
0.0
 10
28.649498
 20
2.288166
 30
0.0
  0
SPLINE
  5
12d
100
AcDbEntity
  8
Plate_Outline
 62
3
100
AcDbSpline
 70
8
 71
3
 72
8
 73
4
 74
0
 40
0
 40
0
 40
0
 40
0
 40
1
 40
1
 40
1
 40
1
 10
28.649498
 20
2.288166
 30
0.0
 10
28.041971
 20
2.288061
 30
0.0
 10
27.549406
 20
2.780568
 30
0.0
 10
27.549369
 20
3.388166
 30
0.0
  0
SPLINE
  5
12e
100
AcDbEntity
  8
Plate_Outline
 62
3
100
AcDbSpline
 70
8
 71
3
 72
8
 73
4
 74
0
 40
0
 40
0
 40
0
 40
0
 40
1
 40
1
 40
1
 40
1
 10
27.549369
 20
3.388166
 30
0.0
 10
27.549406
 20
3.995765
 30
0.0
 10
28.041971
 20
4.488272
 30
0.0
 10
28.649498
 20
4.488166
 30
0.0
  0
LWPOLYLINE
  5
12f
100
AcDbEntity
  8
Plate_Outline
 62
3
100
AcDbPolyline
 90
1
 70
1
 10
193.555174
 20
4.488166
 30
0.0
  0
SPLINE
  5
130
100
AcDbEntity
  8
Plate_Outline
 62
3
100
AcDbSpline
 70
8
 71
3
 72
8
 73
4
 74
0
 40
0
 40
0
 40
0
 40
0
 40
1
 40
1
 40
1
 40
1
 10
212.088413
 20
95.942524
 30
0.0
 10
212.695843
 20
95.942486
 30
0.0
 10
213.188243
 20
95.450022
 30
0.0
 10
213.188283
 20
94.842524
 30
0.0
  0
SPLINE
  5
131
100
AcDbEntity
  8
Plate_Outline
 62
3
100
AcDbSpline
 70
8
 71
3
 72
8
 73
4
 74
0
 40
0
 40
0
 40
0
 40
0
 40
1
 40
1
 40
1
 40
1
 10
213.188283
 20
94.842524
 30
0.0
 10
213.188243
 20
94.235027
 30
0.0
 10
212.695843
 20
93.742562
 30
0.0
 10
212.088413
 20
93.742524
 30
0.0
  0
SPLINE
  5
132
100
AcDbEntity
  8
Plate_Outline
 62
3
100
AcDbSpline
 70
8
 71
3
 72
8
 73
4
 74
0
 40
0
 40
0
 40
0
 40
0
 40
1
 40
1
 40
1
 40
1
 10
212.088413
 20
93.742524
 30
0.0
 10
211.480883
 20
93.742418
 30
0.0
 10
210.988323
 20
94.234925
 30
0.0
 10
210.988283
 20
94.842524
 30
0.0
  0
SPLINE
  5
133
100
AcDbEntity
  8
Plate_Outline
 62
3
100
AcDbSpline
 70
8
 71
3
 72
8
 73
4
 74
0
 40
0
 40
0
 40
0
 40
0
 40
1
 40
1
 40
1
 40
1
 10
210.988283
 20
94.842524
 30
0.0
 10
210.988323
 20
95.450123
 30
0.0
 10
211.480883
 20
95.942630
 30
0.0
 10
212.088413
 20
95.942524
 30
0.0
  0
LWPOLYLINE
  5
134
100
AcDbEntity
  8
Plate_Outline
 62
3
100
AcDbPolyline
 90
1
 70
1
 10
28.649498
 20
4.488166
 30
0.0
  0
SPLINE
  5
135
100
AcDbEntity
  8
Plate_Outline
 62
3
100
AcDbSpline
 70
8
 71
3
 72
8
 73
4
 74
0
 40
0
 40
0
 40
0
 40
0
 40
1
 40
1
 40
1
 40
1
 10
7.599880
 20
95.973013
 30
0.0
 10
8.207407
 20
95.973118
 30
0.0
 10
8.699972
 20
95.480612
 30
0.0
 10
8.700009
 20
94.873013
 30
0.0
  0
SPLINE
  5
136
100
AcDbEntity
  8
Plate_Outline
 62
3
100
AcDbSpline
 70
8
 71
3
 72
8
 73
4
 74
0
 40
0
 40
0
 40
0
 40
0
 40
1
 40
1
 40
1
 40
1
 10
8.700009
 20
94.873013
 30
0.0
 10
8.699972
 20
94.265414
 30
0.0
 10
8.207407
 20
93.772908
 30
0.0
 10
7.599880
 20
93.773013
 30
0.0
  0
SPLINE
  5
137
100
AcDbEntity
  8
Plate_Outline
 62
3
100
AcDbSpline
 70
8
 71
3
 72
8
 73
4
 74
0
 40
0
 40
0
 40
0
 40
0
 40
1
 40
1
 40
1
 40
1
 10
7.599880
 20
93.773013
 30
0.0
 10
6.992453
 20
93.773050
 30
0.0
 10
6.500046
 20
94.265515
 30
0.0
 10
6.500009
 20
94.873013
 30
0.0
  0
SPLINE
  5
138
100
AcDbEntity
  8
Plate_Outline
 62
3
100
AcDbSpline
 70
8
 71
3
 72
8
 73
4
 74
0
 40
0
 40
0
 40
0
 40
0
 40
1
 40
1
 40
1
 40
1
 10
6.500009
 20
94.873013
 30
0.0
 10
6.500046
 20
95.480511
 30
0.0
 10
6.992453
 20
95.972976
 30
0.0
 10
7.599880
 20
95.973013
 30
0.0
  0
LWPOLYLINE
  5
139
100
AcDbEntity
  8
Plate_Outline
 62
3
100
AcDbPolyline
 90
1
 70
1
 10
212.088413
 20
95.942524
 30
0.0
  0
LWPOLYLINE
  5
13a
100
AcDbEntity
  8
Plate_Outline
 62
3
100
AcDbPolyline
 90
1
 70
1
 10
7.599880
 20
95.973013
 30
0.0
  0
ENDSEC
  0
SECTION
  2
OBJECTS
  0
DICTIONARY
  5
C
330
0
100
AcDbDictionary
  3
ACAD_GROUP
350
D
  3
ACAD_MLINESTYLE
350
17
  0
DICTIONARY
  5
D
330
C
100
AcDbDictionary
  0
DICTIONARY
  5
1A
330
C
100
AcDbDictionary
  0
DICTIONARY
  5
17
330
C
100
AcDbDictionary
  3
STANDARD
350
18
  0
DICTIONARY
  5
19
330
C
100
AcDbDictionary
  0
ENDSEC
  0
EOF
