  0
SECTION
  2
HEADER
  9
$ACADVER
  1
AC1014
  9
$HANDSEED
  5
FFFF
  9
$MEASUREMENT
 70
     1
  0
ENDSEC
  0
SECTION
  2
TABLES
  0
TABLE
  2
VPORT
  5
8
330
0
100
AcDbSymbolTable
 70
     4
  0
VPORT
  5
2E
330
8
100
AcDbSymbolTableRecord
100
AcDbViewportTableRecord
  2
*ACTIVE
 70
     0
 10
0.0
 20
0.0
 11
1.0
 21
1.0
 12
210.0
 22
148.5
 13
0.0
 23
0.0
 14
10.0
 24
10.0
 15
10.0
 25
10.0
 16
0.0
 26
0.0
 36
1.0
 17
0.0
 27
0.0
 37
0.0
 40
341.0
 41
1.24
 42
50.0
 43
0.0
 44
0.0
 50
0.0
 51
0.0
 71
     0
 72
   100
 73
     1
 74
     3
 75
     0
 76
     0
 77
     0
 78
     0
  0
ENDTAB
  0
TABLE
  2
LTYPE
  5
5
330
0
100
AcDbSymbolTable
 70
     1
  0
LTYPE
  5
14
330
5
100
AcDbSymbolTableRecord
100
AcDbLinetypeTableRecord
  2
BYBLOCK
 70
     0
  3

 72
    65
 73
     0
 40
0.0
  0
LTYPE
  5
15
330
5
100
AcDbSymbolTableRecord
100
AcDbLinetypeTableRecord
  2
BYLAYER
 70
     0
  3

 72
    65
 73
     0
 40
0.0
  0
LTYPE
  5
16
330
5
100
AcDbSymbolTableRecord
100
AcDbLinetypeTableRecord
  2
CONTINUOUS
 70
     0
  3
Solid line
 72
    65
 73
     0
 40
0.0
  0
ENDTAB
  0
TABLE
  2
LAYER
  5
2
100
AcDbSymbolTable
 70
2
  0
LAYER
  5
50
100
AcDbSymbolTableRecord
100
AcDbLayerTableRecord
  2
0
 70
0
  6
CONTINUOUS
  0
LAYER
  5
51
100
AcDbSymbolTableRecord
100
AcDbLayerTableRecord
  2
Plate_Outline
 70
0
  6
CONTINUOUS
  0
ENDTAB
  0
TABLE
  2
STYLE
  5
3
330
0
100
AcDbSymbolTable
 70
     1
  0
STYLE
  5
11
330
3
100
AcDbSymbolTableRecord
100
AcDbTextStyleTableRecord
  2
STANDARD
 70
     0
 40
0.0
 41
1.0
 50
0.0
 71
     0
 42
2.5
  3
txt
  4

  0
ENDTAB
  0
TABLE
  2
VIEW
  5
6
330
0
100
AcDbSymbolTable
 70
     0
  0
ENDTAB
  0
TABLE
  2
UCS
  5
7
330
0
100
AcDbSymbolTable
 70
     0
  0
ENDTAB
  0
TABLE
  2
APPID
  5
9
330
0
100
AcDbSymbolTable
 70
     2
  0
APPID
  5
12
330
9
100
AcDbSymbolTableRecord
100
AcDbRegAppTableRecord
  2
ACAD
 70
     0
  0
ENDTAB
  0
TABLE
  2
DIMSTYLE
  5
A
330
0
100
AcDbSymbolTable
 70
     1
  0
DIMSTYLE
105
27
330
A
100
AcDbSymbolTableRecord
100
AcDbDimStyleTableRecord
  2
ISO-25
 70
     0
  3

  4

  5

  6

  7

 40
1.0
 41
2.5
 42
0.625
 43
3.75
 44
1.25
 45
0.0
 46
0.0
 47
0.0
 48
0.0
140
2.5
141
2.5
142
0.0
143
0.03937007874016
144
1.0
145
0.0
146
1.0
147
0.625
 71
     0
 72
     0
 73
     0
 74
     0
 75
     0
 76
     0
 77
     1
 78
     8
170
     0
171
     3
172
     1
173
     0
174
     0
175
     0
176
     0
177
     0
178
     0
270
     2
271
     2
272
     2
273
     2
274
     3
340
11
275
     0
280
     0
281
     0
282
     0
283
     0
284
     8
285
     0
286
     0
287
     3
288
     0
  0
ENDTAB
  0
TABLE
  2
BLOCK_RECORD
  5
1
330
0
100
AcDbSymbolTable
 70
     1
  0
BLOCK_RECORD
  5
1F
330
1
100
AcDbSymbolTableRecord
100
AcDbBlockTableRecord
  2
*MODEL_SPACE
  0
BLOCK_RECORD
  5
1B
330
1
100
AcDbSymbolTableRecord
100
AcDbBlockTableRecord
  2
*PAPER_SPACE
  0
ENDTAB
  0
ENDSEC
  0
SECTION
  2
BLOCKS
  0
BLOCK
  5
20
330
1F
100
AcDbEntity
  8
0
100
AcDbBlockBegin
  2
*MODEL_SPACE
 70
     0
 10
0.0
 20
0.0
 30
0.0
  3
*MODEL_SPACE
  1

  0
ENDBLK
  5
21
330
1F
100
AcDbEntity
  8
0
100
AcDbBlockEnd
  0
BLOCK
  5
1C
330
1B
100
AcDbEntity
 67
     1
  8
0
100
AcDbBlockBegin
  2
*PAPER_SPACE
  1

  0
ENDBLK
  5
1D
330
1B
100
AcDbEntity
 67
     1
  8
0
100
AcDbBlockEnd
  0
ENDSEC
  0
SECTION
  2
ENTITIES
  0
SPLINE
  5
100
100
AcDbEntity
  8
Plate_Outline
 62
1
100
AcDbSpline
 70
8
 71
3
 72
8
 73
4
 74
0
 40
0
 40
0
 40
0
 40
0
 40
1
 40
1
 40
1
 40
1
 10
7.632050
 20
97.105169
 30
0.0
 10
8.215569
 20
97.105270
 30
0.0
 10
8.775226
 20
96.873548
 30
0.0
 10
9.187884
 20
96.460986
 30
0.0
  0
SPLINE
  5
101
100
AcDbEntity
  8
Plate_Outline
 62
1
100
AcDbSpline
 70
8
 71
3
 72
8
 73
4
 74
0
 40
0
 40
0
 40
0
 40
0
 40
1
 40
1
 40
1
 40
1
 10
9.187884
 20
96.460986
 30
0.0
 10
9.600543
 20
96.048425
 30
0.0
 10
9.832396
 20
95.488823
 30
0.0
 10
9.832432
 20
94.905303
 30
0.0
  0
SPLINE
  5
102
100
AcDbEntity
  8
Plate_Outline
 62
1
100
AcDbSpline
 70
8
 71
3
 72
8
 73
4
 74
0
 40
0
 40
0
 40
0
 40
0
 40
1
 40
1
 40
1
 40
1
 10
9.832432
 20
94.905303
 30
0.0
 10
9.832396
 20
94.321784
 30
0.0
 10
9.600543
 20
93.762182
 30
0.0
 10
9.187884
 20
93.349620
 30
0.0
  0
SPLINE
  5
103
100
AcDbEntity
  8
Plate_Outline
 62
1
100
AcDbSpline
 70
8
 71
3
 72
8
 73
4
 74
0
 40
0
 40
0
 40
0
 40
0
 40
1
 40
1
 40
1
 40
1
 10
9.187884
 20
93.349620
 30
0.0
 10
8.775226
 20
92.937058
 30
0.0
 10
8.215569
 20
92.705337
 30
0.0
 10
7.632050
 20
92.705438
 30
0.0
  0
SPLINE
  5
104
100
AcDbEntity
  8
Plate_Outline
 62
1
100
AcDbSpline
 70
8
 71
3
 72
8
 73
4
 74
0
 40
0
 40
0
 40
0
 40
0
 40
1
 40
1
 40
1
 40
1
 10
7.632050
 20
92.705438
 30
0.0
 10
6.417129
 20
92.705512
 30
0.0
 10
5.432259
 20
93.690382
 30
0.0
 10
5.432185
 20
94.905303
 30
0.0
  0
SPLINE
  5
105
100
AcDbEntity
  8
Plate_Outline
 62
1
100
AcDbSpline
 70
8
 71
3
 72
8
 73
4
 74
0
 40
0
 40
0
 40
0
 40
0
 40
1
 40
1
 40
1
 40
1
 10
5.432185
 20
94.905303
 30
0.0
 10
5.432259
 20
96.120225
 30
0.0
 10
6.417129
 20
97.105095
 30
0.0
 10
7.632050
 20
97.105169
 30
0.0
  0
LWPOLYLINE
  5
106
100
AcDbEntity
  8
Plate_Outline
 62
1
100
AcDbPolyline
 90
19
 70
1
 10
2.632356
 20
98.193474
 30
0.0
 10
0.132251
 20
93.197398
 30
0.0
 10
0.132251
 20
31.193441
 30
0.0
 10
21.181608
 20
5.128371
 30
0.0
 10
23.681714
 20
0.132295
 30
0.0
 10
33.681618
 20
0.132295
 30
0.0
 10
36.181723
 20
5.128371
 30
0.0
 10
186.087275
 20
5.128371
 30
0.0
 10
188.587378
 20
0.132295
 30
0.0
 10
198.587285
 20
0.132295
 30
0.0
 10
201.087388
 20
5.128371
 30
0.0
 10
219.605120
 20
31.190859
 30
0.0
 10
219.605120
 20
93.166909
 30
0.0
 10
219.605120
 20
93.197398
 30
0.0
 10
217.120516
 20
98.162985
 30
0.0
 10
207.105110
 20
98.162985
 30
0.0
 10
204.620506
 20
93.197398
 30
0.0
 10
15.132366
 20
93.197398
 30
0.0
 10
12.632261
 20
98.193474
 30
0.0
  0
SPLINE
  5
107
100
AcDbEntity
  8
Plate_Outline
 62
1
100
AcDbSpline
 70
8
 71
3
 72
8
 73
4
 74
0
 40
0
 40
0
 40
0
 40
0
 40
1
 40
1
 40
1
 40
1
 10
212.120823
 20
97.074680
 30
0.0
 10
213.335744
 20
97.074605
 30
0.0
 10
214.320614
 20
96.089735
 30
0.0
 10
214.320688
 20
94.874814
 30
0.0
  0
SPLINE
  5
108
100
AcDbEntity
  8
Plate_Outline
 62
1
100
AcDbSpline
 70
8
 71
3
 72
8
 73
4
 74
0
 40
0
 40
0
 40
0
 40
0
 40
1
 40
1
 40
1
 40
1
 10
214.320688
 20
94.874814
 30
0.0
 10
214.320614
 20
93.659893
 30
0.0
 10
213.335744
 20
92.675024
 30
0.0
 10
212.120823
 20
92.674949
 30
0.0
  0
SPLINE
  5
109
100
AcDbEntity
  8
Plate_Outline
 62
1
100
AcDbSpline
 70
8
 71
3
 72
8
 73
4
 74
0
 40
0
 40
0
 40
0
 40
0
 40
1
 40
1
 40
1
 40
1
 10
212.120823
 20
92.674949
 30
0.0
 10
211.537304
 20
92.674847
 30
0.0
 10
210.977647
 20
92.906569
 30
0.0
 10
210.564988
 20
93.319131
 30
0.0
  0
SPLINE
  5
10a
100
AcDbEntity
  8
Plate_Outline
 62
1
100
AcDbSpline
 70
8
 71
3
 72
8
 73
4
 74
0
 40
0
 40
0
 40
0
 40
0
 40
1
 40
1
 40
1
 40
1
 10
210.564988
 20
93.319131
 30
0.0
 10
210.152329
 20
93.731693
 30
0.0
 10
209.920476
 20
94.291295
 30
0.0
 10
209.920440
 20
94.874814
 30
0.0
  0
SPLINE
  5
10b
100
AcDbEntity
  8
Plate_Outline
 62
1
100
AcDbSpline
 70
8
 71
3
 72
8
 73
4
 74
0
 40
0
 40
0
 40
0
 40
0
 40
1
 40
1
 40
1
 40
1
 10
209.920440
 20
94.874814
 30
0.0
 10
209.920476
 20
95.458334
 30
0.0
 10
210.152329
 20
96.017936
 30
0.0
 10
210.564988
 20
96.430498
 30
0.0
  0
SPLINE
  5
10c
100
AcDbEntity
  8
Plate_Outline
 62
1
100
AcDbSpline
 70
8
 71
3
 72
8
 73
4
 74
0
 40
0
 40
0
 40
0
 40
0
 40
1
 40
1
 40
1
 40
1
 10
210.564988
 20
96.430498
 30
0.0
 10
210.977647
 20
96.843060
 30
0.0
 10
211.537304
 20
97.074781
 30
0.0
 10
212.120823
 20
97.074680
 30
0.0
  0
LWPOLYLINE
  5
10d
100
AcDbEntity
  8
Plate_Outline
 62
1
100
AcDbPolyline
 90
1
 70
1
 10
7.632050
 20
97.105169
 30
0.0
  0
SPLINE
  5
10e
100
AcDbEntity
  8
Plate_Outline
 62
1
100
AcDbSpline
 70
8
 71
3
 72
8
 73
4
 74
0
 40
0
 40
0
 40
0
 40
0
 40
1
 40
1
 40
1
 40
1
 10
28.681925
 20
5.620329
 30
0.0
 10
29.896846
 20
5.620255
 30
0.0
 10
30.881715
 20
4.635385
 30
0.0
 10
30.881789
 20
3.420465
 30
0.0
  0
SPLINE
  5
10f
100
AcDbEntity
  8
Plate_Outline
 62
1
100
AcDbSpline
 70
8
 71
3
 72
8
 73
4
 74
0
 40
0
 40
0
 40
0
 40
0
 40
1
 40
1
 40
1
 40
1
 10
30.881789
 20
3.420465
 30
0.0
 10
30.881715
 20
2.205544
 30
0.0
 10
29.896846
 20
1.220675
 30
0.0
 10
28.681925
 20
1.220600
 30
0.0
  0
SPLINE
  5
110
100
AcDbEntity
  8
Plate_Outline
 62
1
100
AcDbSpline
 70
8
 71
3
 72
8
 73
4
 74
0
 40
0
 40
0
 40
0
 40
0
 40
1
 40
1
 40
1
 40
1
 10
28.681925
 20
1.220600
 30
0.0
 10
28.098406
 20
1.220499
 30
0.0
 10
27.538749
 20
1.452220
 30
0.0
 10
27.126090
 20
1.864782
 30
0.0
  0
SPLINE
  5
111
100
AcDbEntity
  8
Plate_Outline
 62
1
100
AcDbSpline
 70
8
 71
3
 72
8
 73
4
 74
0
 40
0
 40
0
 40
0
 40
0
 40
1
 40
1
 40
1
 40
1
 10
27.126090
 20
1.864782
 30
0.0
 10
26.713431
 20
2.277344
 30
0.0
 10
26.481578
 20
2.836946
 30
0.0
 10
26.481542
 20
3.420465
 30
0.0
  0
SPLINE
  5
112
100
AcDbEntity
  8
Plate_Outline
 62
1
100
AcDbSpline
 70
8
 71
3
 72
8
 73
4
 74
0
 40
0
 40
0
 40
0
 40
0
 40
1
 40
1
 40
1
 40
1
 10
26.481542
 20
3.420465
 30
0.0
 10
26.481578
 20
4.003984
 30
0.0
 10
26.713431
 20
4.563586
 30
0.0
 10
27.126090
 20
4.976148
 30
0.0
  0
SPLINE
  5
113
100
AcDbEntity
  8
Plate_Outline
 62
1
100
AcDbSpline
 70
8
 71
3
 72
8
 73
4
 74
0
 40
0
 40
0
 40
0
 40
0
 40
1
 40
1
 40
1
 40
1
 10
27.126090
 20
4.976148
 30
0.0
 10
27.538749
 20
5.388709
 30
0.0
 10
28.098406
 20
5.620431
 30
0.0
 10
28.681925
 20
5.620329
 30
0.0
  0
LWPOLYLINE
  5
114
100
AcDbEntity
  8
Plate_Outline
 62
1
100
AcDbPolyline
 90
1
 70
1
 10
212.120823
 20
97.074680
 30
0.0
  0
SPLINE
  5
115
100
AcDbEntity
  8
Plate_Outline
 62
1
100
AcDbSpline
 70
8
 71
3
 72
8
 73
4
 74
0
 40
0
 40
0
 40
0
 40
0
 40
1
 40
1
 40
1
 40
1
 10
193.587590
 20
5.620329
 30
0.0
 10
194.802511
 20
5.620256
 30
0.0
 10
195.787382
 20
4.635386
 30
0.0
 10
195.787457
 20
3.420465
 30
0.0
  0
SPLINE
  5
116
100
AcDbEntity
  8
Plate_Outline
 62
1
100
AcDbSpline
 70
8
 71
3
 72
8
 73
4
 74
0
 40
0
 40
0
 40
0
 40
0
 40
1
 40
1
 40
1
 40
1
 10
195.787457
 20
3.420465
 30
0.0
 10
195.787382
 20
2.205543
 30
0.0
 10
194.802511
 20
1.220673
 30
0.0
 10
193.587590
 20
1.220600
 30
0.0
  0
SPLINE
  5
117
100
AcDbEntity
  8
Plate_Outline
 62
1
100
AcDbSpline
 70
8
 71
3
 72
8
 73
4
 74
0
 40
0
 40
0
 40
0
 40
0
 40
1
 40
1
 40
1
 40
1
 10
193.587590
 20
1.220600
 30
0.0
 10
193.004071
 20
1.220499
 30
0.0
 10
192.444415
 20
1.452221
 30
0.0
 10
192.031757
 20
1.864783
 30
0.0
  0
SPLINE
  5
118
100
AcDbEntity
  8
Plate_Outline
 62
1
100
AcDbSpline
 70
8
 71
3
 72
8
 73
4
 74
0
 40
0
 40
0
 40
0
 40
0
 40
1
 40
1
 40
1
 40
1
 10
192.031757
 20
1.864783
 30
0.0
 10
191.619098
 20
2.277344
 30
0.0
 10
191.387245
 20
2.836946
 30
0.0
 10
191.387209
 20
3.420465
 30
0.0
  0
SPLINE
  5
119
100
AcDbEntity
  8
Plate_Outline
 62
1
100
AcDbSpline
 70
8
 71
3
 72
8
 73
4
 74
0
 40
0
 40
0
 40
0
 40
0
 40
1
 40
1
 40
1
 40
1
 10
191.387209
 20
3.420465
 30
0.0
 10
191.387245
 20
4.003983
 30
0.0
 10
191.619098
 20
4.563585
 30
0.0
 10
192.031757
 20
4.976147
 30
0.0
  0
SPLINE
  5
11a
100
AcDbEntity
  8
Plate_Outline
 62
1
100
AcDbSpline
 70
8
 71
3
 72
8
 73
4
 74
0
 40
0
 40
0
 40
0
 40
0
 40
1
 40
1
 40
1
 40
1
 10
192.031757
 20
4.976147
 30
0.0
 10
192.444415
 20
5.388708
 30
0.0
 10
193.004071
 20
5.620430
 30
0.0
 10
193.587590
 20
5.620329
 30
0.0
  0
LWPOLYLINE
  5
11b
100
AcDbEntity
  8
Plate_Outline
 62
1
100
AcDbPolyline
 90
1
 70
1
 10
28.681925
 20
5.620329
 30
0.0
  0
LWPOLYLINE
  5
11c
100
AcDbEntity
  8
Plate_Outline
 62
1
100
AcDbPolyline
 90
1
 70
1
 10
193.587590
 20
5.620329
 30
0.0
  0
ENDSEC
  0
SECTION
  2
OBJECTS
  0
DICTIONARY
  5
C
330
0
100
AcDbDictionary
  3
ACAD_GROUP
350
D
  3
ACAD_MLINESTYLE
350
17
  0
DICTIONARY
  5
D
330
C
100
AcDbDictionary
  0
DICTIONARY
  5
1A
330
C
100
AcDbDictionary
  0
DICTIONARY
  5
17
330
C
100
AcDbDictionary
  3
STANDARD
350
18
  0
DICTIONARY
  5
19
330
C
100
AcDbDictionary
  0
ENDSEC
  0
EOF
